<svg xmlns="http://www.w3.org/2000/svg" width="52.5" height="45.014" viewBox="0 0 52.5 45.014">
  <g id="Charity_Icon" data-name="Charity Icon" transform="translate(0 0)">
    <g id="charity-donation-hand-love-icon" transform="translate(14.351 0)">
      <path id="Path_44" data-name="Path 44" d="M60.282,3.545C61.833,1.824,62.918.34,65.31.049a6.412,6.412,0,0,1,6.348,9.143,21.2,21.2,0,0,1-3.409,4.594c-1.593,1.752-3.358,3.473-4.6,4.776l-3.37,3.555L57.5,19.266c-3.349-3.428-8.813-7.745-8.992-13.093a5.681,5.681,0,0,1,5.852-6.1c2.862.036,4.063,1.548,5.925,3.473Z" transform="translate(-48.5 -0.007)" fill="#ffc82f" fill-rule="evenodd"/>
    </g>
    <g id="blood-care-icon" transform="translate(0 11.055)">
      <path id="Path_45" data-name="Path 45" d="M38.244,67.533a.781.781,0,0,1-.355,0H28.346v3.659H38.381V67.533Zm-9.877-1.857h9.364c.752-.794,1.568-1.621,2.422-2.461a79.232,79.232,0,0,0,5.472-5.9,12.1,12.1,0,0,0,3.037-6.129c.124-.49.261-1.035.427-1.711l1.119-4.181v-.045a6.451,6.451,0,0,0,.393-3.8.853.853,0,0,0-.286-.454.488.488,0,0,0-.333-.073,1.51,1.51,0,0,0-.923.577L45.75,49.9a.831.831,0,0,1-.115.213,4.664,4.664,0,0,1-.782,1.094L38.932,58.2a.83.83,0,0,1-1.222.064.96.96,0,0,1-.06-1.3l5.9-6.987a.8.8,0,0,1,.081-.1,2.031,2.031,0,0,0,.7-1.766.732.732,0,0,0-.184-.363.523.523,0,0,0-.32-.145h0c-.521-.059-1.282.35-2.243,1.539h0a.613.613,0,0,1-.09.1l-2.285,2.147h0a19.484,19.484,0,0,1-5.5,4.163c-.4.222-.854.454-1.4.79a5.334,5.334,0,0,0-.641.454c-.226.182-.427.368-.641.549a6.3,6.3,0,0,0-1.871,2.488,14.381,14.381,0,0,0-.594,3.319c-.064.572-.111,1.144-.15,1.711,0,.277-.03.549-.043.813Zm-4.246,0H14.757c-.752-.794-1.572-1.621-2.409-2.461a79.237,79.237,0,0,1-5.472-5.9,11.932,11.932,0,0,1-3.037-6.129c-.124-.5-.261-1.049-.423-1.707l-1.136-4.2v-.045a6.451,6.451,0,0,1-.393-3.8.853.853,0,0,1,.286-.454.488.488,0,0,1,.333-.073,1.514,1.514,0,0,1,.91.59L6.739,49.9a.831.831,0,0,0,.115.213,4.654,4.654,0,0,0,.8,1.094l5.9,6.991a.83.83,0,0,0,1.222.064.96.96,0,0,0,.06-1.3l-5.87-6.987a.8.8,0,0,0-.081-.1,2.031,2.031,0,0,1-.7-1.766.732.732,0,0,1,.184-.363.523.523,0,0,1,.32-.145h0c.521-.059,1.282.35,2.243,1.539h0a.614.614,0,0,0,.09.1l2.285,2.147h0a19.491,19.491,0,0,0,5.481,4.163c.4.222.854.454,1.4.79a5.333,5.333,0,0,1,.641.454c.226.182.427.368.641.549a6.3,6.3,0,0,1,1.871,2.488,14.385,14.385,0,0,1,.577,3.314c.064.572.111,1.144.15,1.711,0,.277.03.549.043.813Zm-9.877,1.857a.781.781,0,0,0,.355,0h9.543v3.659H14.1V67.533Zm-1.666-1.539a.941.941,0,0,0-.218.613v5.511a.882.882,0,0,0,.854.908h11.8a.882.882,0,0,0,.854-.908V66.552c0-.59-.038-1.226-.077-1.816s-.09-1.2-.154-1.816a15.359,15.359,0,0,0-.709-3.791,7.981,7.981,0,0,0-2.362-3.219c-.231-.209-.466-.418-.713-.613A6.742,6.742,0,0,0,21,54.7c-.513-.3-.991-.567-1.427-.808a18.194,18.194,0,0,1-5.049-3.841L14.467,50l-2.23-2.088c-1.363-1.7-2.7-2.27-3.721-2.143h0a2.2,2.2,0,0,0-1.282.581l-2.26-5.7h0a.92.92,0,0,0-.132-.232,3.3,3.3,0,0,0-2.179-1.339,2.106,2.106,0,0,0-1.452.363,2.645,2.645,0,0,0-.97,1.362A8.1,8.1,0,0,0,.609,45.8l1.1,4.163c.162.6.308,1.171.427,1.684a13.3,13.3,0,0,0,3.417,6.864,79.951,79.951,0,0,0,5.6,6.042l1.423,1.439Zm27.34,0a.941.941,0,0,1,.218.613v5.511a.882.882,0,0,1-.854.908H27.475a.882.882,0,0,1-.854-.908V66.552a.717.717,0,0,1,0-.1q0-.908.064-1.716c.038-.6.094-1.2.158-1.816a15.359,15.359,0,0,1,.709-3.791,7.981,7.981,0,0,1,2.35-3.2c.231-.209.466-.418.713-.613a6.742,6.742,0,0,1,.854-.595c.513-.3.991-.567,1.427-.808a18.191,18.191,0,0,0,5.088-3.863L38.039,50l2.23-2.088c1.363-1.7,2.7-2.27,3.721-2.143h0a2.2,2.2,0,0,1,1.282.581l2.251-5.7h0a.92.92,0,0,1,.132-.232,3.3,3.3,0,0,1,2.174-1.339,2.106,2.106,0,0,1,1.452.363,2.645,2.645,0,0,1,.97,1.362,8.1,8.1,0,0,1-.367,4.994l-1.111,4.158c-.162.6-.308,1.171-.427,1.684a13.3,13.3,0,0,1-3.417,6.864,79.947,79.947,0,0,1-5.6,6.042L39.91,65.989Z" transform="translate(0.003 -39.067)" fill="#ffc82f" fill-rule="evenodd"/>
    </g>
  </g>
</svg>
