<svg xmlns="http://www.w3.org/2000/svg" width="53" height="54" viewBox="0 0 53 54">
  <g id="Group_76" data-name="Group 76" transform="translate(-974 -3596)">
    <rect id="Rectangle_11" data-name="Rectangle 11" width="53" height="54" rx="2" transform="translate(974 3596)" fill="#fff"/>
    <g id="icons8-google" transform="translate(986 3608)">
      <path id="Path_6854" data-name="Path 6854" d="M25.786,12.846H24.9V12.8H15v4.4h6.217a6.605,6.605,0,1,1-1.838-7.129L22.49,6.96A10.989,10.989,0,1,0,26,15,11.075,11.075,0,0,0,25.786,12.846Z" fill="#ffc107"/>
      <path id="Path_6855" data-name="Path 6855" d="M6.306,9.88,9.92,12.53a6.587,6.587,0,0,1,10.5-2.459L23.528,6.96A10.978,10.978,0,0,0,6.306,9.88Z" transform="translate(-1.038)" fill="#ff3d00"/>
      <path id="Path_6856" data-name="Path 6856" d="M15.988,36.824a10.949,10.949,0,0,0,7.375-2.856l-3.4-2.881A6.583,6.583,0,0,1,9.782,28.054L6.2,30.818A10.991,10.991,0,0,0,15.988,36.824Z" transform="translate(-0.988 -10.824)" fill="#4caf50"/>
      <path id="Path_6857" data-name="Path 6857" d="M34.786,20.046H33.9V20H24v4.4h6.217a6.622,6.622,0,0,1-2.248,3.064h0l3.4,2.881A10.641,10.641,0,0,0,35,22.2,11.075,11.075,0,0,0,34.786,20.046Z" transform="translate(-9 -7.2)" fill="#1976d2"/>
    </g>
  </g>
</svg>
