<svg xmlns="http://www.w3.org/2000/svg" width="43.63" height="50.968" viewBox="0 0 43.63 50.968">
  <path id="hands-up-icon_1_" data-name="hands-up-icon (1)" d="M18.955,22.869a2.707,2.707,0,0,1,2.616.639,2.591,2.591,0,0,1,.581.829,2.539,2.539,0,0,1,.2.983h0V37.654l-.1,1.8a6.5,6.5,0,0,1-.589,1.808,6.74,6.74,0,0,1-1.281,1.766h0v7.915H18.6V43.6c0-1.2.037-1.244.391-1.455a2.537,2.537,0,0,0,.742-.717,5.027,5.027,0,0,0,.783-1.459,4.97,4.97,0,0,0,.272-1.629V25.328a.984.984,0,0,0-.074-.381h0a1.049,1.049,0,0,0-.235-.34,1.141,1.141,0,0,0-.342-.224h0a1.139,1.139,0,0,0-.824,0,.968.968,0,0,0-.354.228,1.173,1.173,0,0,0-.235.336,1.03,1.03,0,0,0-.078.39h0v4.573a.24.24,0,0,1-.235.236H17.282a.24.24,0,0,1-.239-.236v-7.16a.955.955,0,0,0-.078-.39.991.991,0,0,0-.235-.336h0a1.161,1.161,0,0,0-.35-.228,1.127,1.127,0,0,0-.412-.079,1.143,1.143,0,0,0-.412.079,1.087,1.087,0,0,0-.354.228,1.173,1.173,0,0,0-.235.336,1.03,1.03,0,0,0-.078.39v7.16a.24.24,0,0,1-.235.236h-1.17a.24.24,0,0,1-.235-.236V20.336a1.046,1.046,0,0,0-.074-.381h0a1.024,1.024,0,0,0-.235-.336,1.1,1.1,0,0,0-.766-.307,1.078,1.078,0,0,0-.412.075h0a.988.988,0,0,0-.35.228.969.969,0,0,0-.313.726v9.578a.24.24,0,0,1-.239.236H9.717a.24.24,0,0,1-.235-.236V22.774a1.013,1.013,0,0,0-.078-.39,1.09,1.09,0,0,0-.235-.336,1,1,0,0,0-.354-.228,1.127,1.127,0,0,0-.412-.079,1.16,1.16,0,0,0-.412.079,1.029,1.029,0,0,0-.342.22h0a.933.933,0,0,0-.231.344.955.955,0,0,0-.078.39v11.2c-.025.377.124,3.342-1.236,2.4a4.244,4.244,0,0,1-.5-.352c-.194-.158-.391-.332-.585-.5-.412-.373-.845-.788-1.005-.945h0a2.536,2.536,0,0,0-.923-.585,1.057,1.057,0,0,0-.9,0,1.068,1.068,0,0,0-.578.689,1.393,1.393,0,0,0,.115.97A6.95,6.95,0,0,0,3.215,37.31,53.772,53.772,0,0,0,8.571,42.2l.054.046a3.594,3.594,0,0,1,.33.46,3.239,3.239,0,0,1,.239.514,2.288,2.288,0,0,1,.115.469,2.67,2.67,0,0,1,.029.489h0v6.758H7.525V43.529a44.8,44.8,0,0,1-4.99-4.673,10.855,10.855,0,0,1-2.3-2.741,2.877,2.877,0,0,1-.152-1.791,2.7,2.7,0,0,1,.235-.614A2.6,2.6,0,0,1,.7,33.164a2.442,2.442,0,0,1,.511-.415,2.876,2.876,0,0,1,.606-.274,2.867,2.867,0,0,1,1.673.021,3.964,3.964,0,0,1,1.574.97l.387.373.251.236v-.394a2.233,2.233,0,0,1,.033-.29V22.774a2.539,2.539,0,0,1,.2-.983,2.591,2.591,0,0,1,.581-.829,2.54,2.54,0,0,1,.861-.551,2.635,2.635,0,0,1,1.005-.195,2.822,2.822,0,0,1,.775.112,2.462,2.462,0,0,1,.346.129v-.12a2.5,2.5,0,0,1,.8-1.82,2.639,2.639,0,0,1,.857-.556,2.774,2.774,0,0,1,1.014-.195,2.721,2.721,0,0,1,1.009.195,2.8,2.8,0,0,1,.861.556,2.538,2.538,0,0,1,.577.829,2.468,2.468,0,0,1,.206.983h0v.1a3.575,3.575,0,0,1,.35-.133,2.692,2.692,0,0,1,.791-.12h0a2.754,2.754,0,0,1,1.009.195,2.7,2.7,0,0,1,.857.551,2.591,2.591,0,0,1,.581.829,2.539,2.539,0,0,1,.2.983v.236a3.421,3.421,0,0,1,.33-.108ZM40.236,5.095a2.823,2.823,0,0,1,.75-.1A2.639,2.639,0,0,1,42,5.186a2.717,2.717,0,0,1,.857.551,2.583,2.583,0,0,1,.577.829,2.539,2.539,0,0,1,.2.983h0V19.88l-.1,1.8a6.509,6.509,0,0,1-.593,1.808,6.632,6.632,0,0,1-1.281,1.766h0V50.959H39.886V25.834c0-1.2.037-1.244.412-1.455a2.479,2.479,0,0,0,.742-.717,5.139,5.139,0,0,0,.787-1.459,5,5,0,0,0,.268-1.629q0-6.505,0-13.015a1.063,1.063,0,0,0-.074-.381h0a1.194,1.194,0,0,0-.235-.34,1.042,1.042,0,0,0-.342-.224h0a1.127,1.127,0,0,0-.412-.079,1.16,1.16,0,0,0-.412.079.951.951,0,0,0-.35.228.991.991,0,0,0-.235.336.942.942,0,0,0-.082.39h0v4.573a.236.236,0,0,1-.235.236H38.572a.24.24,0,0,1-.235-.236V4.97a1.03,1.03,0,0,0-.078-.39,1.12,1.12,0,0,0-.235-.336h0a1.1,1.1,0,0,0-.771-.307,1.16,1.16,0,0,0-.412.079,1.071,1.071,0,0,0-.35.228,1.032,1.032,0,0,0-.235.336.955.955,0,0,0-.078.39v7.169a.24.24,0,0,1-.239.236H34.777a.24.24,0,0,1-.239-.236V2.565a.967.967,0,0,0-.074-.381h0a.937.937,0,0,0-.235-.332,1.113,1.113,0,0,0-.771-.323,1.147,1.147,0,0,0-.412.075h0a1.087,1.087,0,0,0-.354.228,1.173,1.173,0,0,0-.235.336,1.034,1.034,0,0,0-.078.415V12.16a.24.24,0,0,1-.235.236H31.011a.236.236,0,0,1-.235-.236V5a.942.942,0,0,0-.082-.39.966.966,0,0,0-.235-.336.988.988,0,0,0-.35-.228,1.049,1.049,0,0,0-.412-.079,1.061,1.061,0,0,0-.412.079.955.955,0,0,0-.342.22h0a1.045,1.045,0,0,0-.235.34,1.013,1.013,0,0,0-.078.39V16.2c0,.377.124,3.342-1.236,2.4a3.926,3.926,0,0,1-.5-.352c-.194-.158-.412-.332-.589-.5-.412-.373-.824-.788-1-.945h0a2.586,2.586,0,0,0-.886-.58,1.053,1.053,0,0,0-.9,0,1.064,1.064,0,0,0-.578.691,1.405,1.405,0,0,0,.115.937,7.494,7.494,0,0,0,1.483,1.683A54.235,54.235,0,0,0,29.9,24.424a.276.276,0,0,1,.058.046,3.2,3.2,0,0,1,.326.46,2.564,2.564,0,0,1,.358.983,2.683,2.683,0,0,1,.025.489h0V50.93H28.819V25.747a44.844,44.844,0,0,1-4.994-4.673,10.535,10.535,0,0,1-2.3-2.728,2.731,2.731,0,0,1,.087-2.4A2.527,2.527,0,0,1,22.5,15a2.974,2.974,0,0,1,.606-.274,2.892,2.892,0,0,1,1.677,0,3.985,3.985,0,0,1,1.59.991l.412.373.247.236v-.116a2.667,2.667,0,0,1,0-.311,1.021,1.021,0,0,1,.029-.29V5a2.468,2.468,0,0,1,.206-.983,2.538,2.538,0,0,1,.577-.829,2.578,2.578,0,0,1,.836-.556,2.643,2.643,0,0,1,1.009-.2,2.769,2.769,0,0,1,.771.112,2.487,2.487,0,0,1,.346.133v-.12A2.527,2.527,0,0,1,31.588.749a2.656,2.656,0,0,1,.861-.56,2.7,2.7,0,0,1,2.884.556,2.5,2.5,0,0,1,.783,1.816h0v.1a3.575,3.575,0,0,1,.35-.133,2.7,2.7,0,0,1,.791-.124h0a2.643,2.643,0,0,1,1.009.2,2.717,2.717,0,0,1,.878.551,2.583,2.583,0,0,1,.577.829,2.468,2.468,0,0,1,.206.983V5.2c.1-.037.21-.079.326-.112Z" transform="translate(-0.002 0.009)" fill="#ffc82f"/>
</svg>
