<svg xmlns="http://www.w3.org/2000/svg" width="16.122" height="23.189" viewBox="0 0 16.122 23.189">
  <g id="map-pin-icon" transform="translate(0 0)">
    <path id="Path_6858" data-name="Path 6858" d="M5.156,18.224c.819,1.328,1.706,2.938,2.581,4.5.324.577.617.664,1.007-.021.845-1.493,1.676-3.038,2.551-4.48,2.657-4.376,7-8.643,3.547-14.532-3.07-5.229-11.421-4.67-13.918.2C-1.939,9.472,2.531,13.97,5.156,18.224Z" transform="translate(0)" fill="#646464" fill-rule="evenodd"/>
    <path id="Path_6859" data-name="Path 6859" d="M29.726,25.59A3.182,3.182,0,1,1,26.6,28.772a3.154,3.154,0,0,1,3.126-3.182Z" transform="translate(-21.668 -20.761)" fill="#181818" fill-rule="evenodd"/>
  </g>
</svg>
