<svg xmlns="http://www.w3.org/2000/svg" width="680.937" height="471.845" viewBox="0 0 680.937 471.845">
  <g id="noun-olive-branch-1789832" opacity="0.6">
    <path id="Path_1" data-name="Path 1" d="M134.923,350.415a30.629,30.629,0,0,0-.337,4.036c-.093,3.66.024,8.7.372,14.263v.008c.362,5.568.89,10.591,1.448,14.2a29.267,29.267,0,0,0,.851,3.972,17.527,17.527,0,0,1-1.81-4.116,59.423,59.423,0,0,1-2.4-13.989,58.477,58.477,0,0,1,.6-14.128,17.067,17.067,0,0,1,1.272-4.268ZM703.5,436.841a30.576,30.576,0,0,0-.068-4.044c-.269-3.66-.9-8.675-1.824-14.179v-.008c-.924-5.517-1.952-10.481-2.876-14.04a30.522,30.522,0,0,0-1.252-3.9,18.374,18.374,0,0,1,2.221,3.964,61.138,61.138,0,0,1,3.8,13.749,59.165,59.165,0,0,1,.841,14.12,16.86,16.86,0,0,1-.832,4.348Zm-21.854-80.436a.737.737,0,0,0-.127-.021,227.1,227.1,0,0,1-26.951-13.947q-1.908-1.3-3.854-2.541a.461.461,0,0,0-.093-.059q-3-1.919-6.065-3.753l-.01-.008a.833.833,0,0,0-.108-.059c-2.676-1.6-5.385-3.136-8.11-4.648a33.916,33.916,0,0,0-.293-14.293c-.269-1.22-.572-2.419-.934-3.571v-.021c-2.382-9.983-8.413-23.5-16.176-34.412-4.373-6.142-9.3-11.477-14.478-14.926a145.728,145.728,0,0,1,21,6.184,102.82,102.82,0,0,1,40.237,27.21c-2.094,1.705-2.651,4.85-1.849,8.7A36.073,36.073,0,0,0,670.6,319.87l.01.021a41.753,41.753,0,0,0,11.734,10.794c4.138,2.4,8.041,3.145,10.741,1.693l.01-.008.083-.042c2.7-1.524,3.493-4.93,2.607-9.219a36.072,36.072,0,0,0-6.765-13.626l-.01-.021a41.754,41.754,0,0,0-11.734-10.794c-3.6-2.089-7.014-2.925-9.616-2.149a105.031,105.031,0,0,0-41.278-27.986c-2.935-1.119-5.9-2.14-8.883-3.048,6.975.625,13.52.929,19.835.988.01,0,.01.008.024.008,24.4,9.27,38.495,5.378,52.009,1.655a104.478,104.478,0,0,1,14.518-3.267,1.241,1.241,0,0,0,.773-.371.9.9,0,0,0-.2-1.38c-20.49-13.787-30.958-10.329-46.762-5.095a150.151,150.151,0,0,1-24.295,6.382c-.049.008-.083.021-.117.03a248.731,248.731,0,0,1-31.261-2.816c-1.58-.321-3.155-.616-4.735-.9-.034-.008-.068-.008-.108-.021q-3.661-.652-7.327-1.182h-.01a1.121,1.121,0,0,1-.127-.021c-3.2-.473-6.417-.878-9.631-1.249a37.371,37.371,0,0,0-7.269-12.85c-.841-1.017-1.707-1.975-2.592-2.9,0-.008-.01-.008-.01-.021-7.048-8.181-19.13-18.236-31.51-25.285-6.965-3.972-14.048-7.012-20.441-8.248a151.179,151.179,0,0,1,22.065-2.056,117.2,117.2,0,0,1,49.789,9.983c-1.061,2.309-.034,5.365,2.583,8.565a43.357,43.357,0,0,0,12.8,9.886l.024.008a49.106,49.106,0,0,0,15.917,5.5c4.93.667,8.834-.08,10.565-2.381l.01-.008.049-.072c1.707-2.368.758-5.749-2.152-9.308a43.356,43.356,0,0,0-12.8-9.886l-.024-.008a49.106,49.106,0,0,0-15.917-5.5c-4.275-.574-7.782-.093-9.768,1.553a119.788,119.788,0,0,0-51.119-10.317c-3.2.051-6.393.211-9.548.485,6.628-1.975,12.7-4.095,18.455-6.344h.024c26.648-.5,37.527-9.169,47.94-17.467a90.451,90.451,0,0,1,11.549-8.248.974.974,0,0,0,.514-.616.991.991,0,0,0-.866-1.182c-25.328-5.023-33.109,1.938-44.878,12.436a128.918,128.918,0,0,1-18.9,14.644.364.364,0,0,0-.093.072,240.722,240.722,0,0,1-29.711,8.856c-1.59.283-3.155.6-4.735.908-.034.008-.068.008-.108.021q-3.632.741-7.224,1.6h-.01c-.049.008-.083.021-.127.03-3.13.747-6.251,1.545-9.338,2.368a44.842,44.842,0,0,0-12.879-9c-1.262-.616-2.514-1.169-3.761-1.676-.01,0-.01-.008-.024-.008-10.4-4.842-26.271-9.54-40.94-11.427-8.262-1.06-16.161-1.228-22.568-.021a137.709,137.709,0,0,1,18.993-9.916,117.448,117.448,0,0,1,50.019-9.109c.161,2.482,2.592,4.871,6.545,6.817a50.153,50.153,0,0,0,16.43,4.285l.024.008a51.556,51.556,0,0,0,17.12-.819c4.793-1.2,7.958-3.288,8.4-6.011v-.008l.01-.08c.386-2.765-2.128-5.488-6.51-7.645a50.152,50.152,0,0,0-16.43-4.285h-.024a51.556,51.556,0,0,0-17.12.819c-4.163,1.038-7.092,2.752-8.085,4.973a119.982,119.982,0,0,0-51.378,9.3c-2.886,1.22-5.679,2.52-8.413,3.913,5.038-4.2,9.514-8.341,13.618-12.478.01,0,.01-.008.024-.008,23.914-10.177,29.519-22,34.885-33.322a74.43,74.43,0,0,1,6.427-11.688.856.856,0,0,0,.161-.747,1.148,1.148,0,0,0-1.355-.756c-25.406,4.69-29.064,13.829-34.582,27.645a107.165,107.165,0,0,1-9.959,20.16.719.719,0,0,0-.059.1,206.318,206.318,0,0,1-22.593,18.86c-1.3.836-2.573,1.684-3.845,2.554-.034.021-.059.042-.083.059q-2.927,1.995-5.762,4.086l-.01.008c-.034.021-.068.051-.108.072-2.48,1.815-4.911,3.681-7.3,5.559a51.446,51.446,0,0,0-16.083-3.461c-1.438-.1-2.852-.139-4.231-.152h-.024a155.366,155.366,0,0,0-42.692,4.58c-8.007,2.047-15.252,4.791-20.466,8.21a112.884,112.884,0,0,1,12.356-15.906c9.993-10.671,22.975-19.912,40.868-26.5,1.37,2.178,4.745,3.47,9.269,3.791a51.485,51.485,0,0,0,16.992-2.106l.024-.008a47.252,47.252,0,0,0,15.109-6.99c3.761-2.832,5.61-5.889,4.676-8.514v-.008l-.024-.072c-1-2.642-4.617-4.2-9.641-4.559a51.262,51.262,0,0,0-16.992,2.106l-.024.008a47.252,47.252,0,0,0-15.109,6.99c-3.263,2.461-5.082,5.082-4.9,7.455-18.421,6.729-31.754,16.218-42.017,27.159-2.02,2.149-3.913,4.369-5.7,6.615a163.891,163.891,0,0,0,6.232-16.276l.024-.021c16.689-17.944,15.975-30.7,15.31-42.926a69.351,69.351,0,0,1,.093-12.943.841.841,0,0,0-.22-.734,1.26,1.26,0,0,0-1.6-.19c-20.735,13.517-19.565,23.136-17.8,37.662a100.174,100.174,0,0,1,.851,21.908v.11a172.641,172.641,0,0,1-11.231,25.328c-.758,1.228-1.507,2.469-2.23,3.71a.752.752,0,0,0-.049.08c-1.12,1.916-2.186,3.854-3.223,5.8l-.01.008c-.024.03-.034.072-.059.1q-2.032,3.831-3.894,7.7a52.018,52.018,0,0,0-16.268,2.735c-1.355.435-2.651.908-3.9,1.414-.01,0-.01.008-.024.008a140.212,140.212,0,0,0-36.45,19.717c-6.251,4.783-11.475,9.9-14.528,14.9a99.455,99.455,0,0,1,3.4-18.92c3.835-13.313,11.069-26.425,24.066-38.92,2.3,1.482,6,1.414,10.247.059a46.439,46.439,0,0,0,14.375-8.109l.024-.008a39.586,39.586,0,0,0,10.272-11.84c2.02-3.934,2.2-7.383.059-9.422l-.01-.008-.059-.059c-2.211-2.026-6.241-2.119-10.976-.616a46.441,46.441,0,0,0-14.375,8.109l-.024.008a39.588,39.588,0,0,0-10.272,11.84c-1.751,3.419-2.113,6.467-.783,8.544-13.392,12.82-20.838,26.272-24.775,39.941-.773,2.685-1.414,5.386-1.927,8.079a160.464,160.464,0,0,0-2.314-17.024c0-.008,0-.021.01-.021,6.334-22.339-.548-33.656-7.151-44.479a75.05,75.05,0,0,1-6.251-11.769,1.05,1.05,0,0,0-.562-.6,1.228,1.228,0,0,0-1.541.414c-12.18,19.81-6.4,28.1,2.3,40.625a110.7,110.7,0,0,1,11.5,19.549.961.961,0,0,0,.049.1,161.763,161.763,0,0,1,2.221,27.049c-.093,1.393-.152,2.782-.2,4.187v.093c-.068,2.149-.093,4.3-.083,6.433v.118q.037,4.2.245,8.4a46.045,46.045,0,0,0-13.407,8.4c-1.017.886-1.961,1.794-2.852,2.7l-.024.021a116.664,116.664,0,0,0-23.386,31.165c-3.331,6.615-5.552,13.162-5.865,18.8a101.492,101.492,0,0,1-6.183-18.4,77.442,77.442,0,0,1,2.759-44.057c2.817.5,6.124-.908,9.328-3.681a38.1,38.1,0,0,0,9.044-12.6l.01-.021a34.269,34.269,0,0,0,3.517-14.483c-.093-4.306-1.624-7.493-4.559-8.565l-.01-.008-.083-.03c-2.993-1.038-6.7.355-10.247,3.449a38.1,38.1,0,0,0-9.044,12.6l-.01.021a34.269,34.269,0,0,0-3.517,14.483c.083,3.74,1.252,6.627,3.473,8.029a79.16,79.16,0,0,0-2.886,45.234q.932,4.071,2.211,8.029c-3.4-5.293-6.882-10.084-10.438-14.584v-.021c-5.2-22.562-16.982-30.3-28.257-37.712a90.961,90.961,0,0,1-11.431-8.383,1.272,1.272,0,0,0-.792-.333,1.1,1.1,0,0,0-1.2.937c-1.33,22.39,7.958,27.8,21.982,35.977a133.789,133.789,0,0,1,20,13.517.688.688,0,0,0,.093.072,181.691,181.691,0,0,1,15.262,23.71c.6,1.3,1.228,2.583,1.859,3.862a.331.331,0,0,0,.049.093c.983,1.975,2.02,3.921,3.072,5.859v.008a.244.244,0,0,0,.059.1c1.389,2.533,2.842,5.044,4.334,7.522A38.315,38.315,0,0,0,176.8,385.4c-.479,1.169-.9,2.339-1.262,3.491,0,.008,0,.008-.01.021-3.717,9.671-6.325,23.985-5.923,36.775.22,7.2,1.414,13.96,3.894,19.185a120.97,120.97,0,0,1-14.611-14.411,83.039,83.039,0,0,1-19.071-40.929c2.793-.574,5.107-3.056,6.652-6.737a33.711,33.711,0,0,0,2.035-14.715v-.021a34.336,34.336,0,0,0-3.9-14.4c-2.2-3.862-5.141-6.193-8.32-6.1h-.1c-3.223.152-5.889,2.765-7.6,6.859a33.711,33.711,0,0,0-2.035,14.715v.021a34.188,34.188,0,0,0,3.913,14.4c1.9,3.36,4.383,5.559,7.083,6.011a84.884,84.884,0,0,0,19.532,42.06q2.839,3.356,5.923,6.475c-5.679-3.55-11.172-6.636-16.6-9.409,0-.008-.01-.008-.01-.021C130.631,410.119,116.162,407.4,102.31,404.8a102.967,102.967,0,0,1-14.459-3.428,1.338,1.338,0,0,0-.89-.008.945.945,0,0,0-.631,1.279c9.758,20.777,20.828,22.3,37.551,24.589a151.471,151.471,0,0,1,24.741,4.964l.117.03a218.149,218.149,0,0,1,25.444,15.926c1.179.958,2.372,1.9,3.576,2.824a1.008,1.008,0,0,0,.083.059c1.859,1.431,3.752,2.824,5.654,4.187l.01.008a.574.574,0,0,0,.108.072c2.92,2.089,5.889,4.1,8.883,6.083a1.258,1.258,0,0,0,1.6-.181.894.894,0,0,0-.21-1.38c-2.969-1.959-5.914-3.964-8.814-6.04-2.138-1.705-4.255-3.326-6.325-4.871-4.51-5.023-6.51-13.685-6.814-23.246a101.985,101.985,0,0,1,2.289-23.9c.6,3.449,2.23,5.9,4.862,6.707l.176.051h.01c3,.806,6.554-.718,9.885-3.862a37.718,37.718,0,0,0,8.438-12.908,33.743,33.743,0,0,0,2.827-14.613c-.3-4.348-2.02-7.493-5.063-8.421l-.176-.051h-.01c-2.632-.7-5.669.371-8.623,2.752-1.355-2.271-2.676-4.559-3.937-6.868q-1.665-3.482-3.341-6.729c-1.639-6.2.792-14.774,5.214-23.55a115.084,115.084,0,0,1,13.779-20.836c-1.145,3.339-.866,6.163,1.12,7.847l.137.118c2.323,1.836,6.285,1.743,10.844.1a45.49,45.49,0,0,0,13.964-8.611,38.867,38.867,0,0,0,9.724-12.212c1.849-4.057,1.849-7.535-.47-9.481l-.137-.118c-2.035-1.6-5.317-1.735-9.161-.646-.117-2.554-.186-5.1-.21-7.666.127-2.512.22-4.943.259-7.311,1.555-6.214,7.958-13.1,16.258-19.447a138.476,138.476,0,0,1,22.7-13.858c-2.676,2.613-3.81,5.277-2.827,7.522l.068.152.01.008c1.213,2.512,4.852,3.875,9.783,4.057a51.15,51.15,0,0,0,16.889-2.714A46.551,46.551,0,0,0,302,243.657c3.659-3,5.351-6.15,4.221-8.763l-.068-.152-.01-.008c-1.061-2.2-3.972-3.508-7.992-3.934,1.145-2.351,2.323-4.7,3.566-7.028,1.355-2.229,2.617-4.407,3.82-6.534,4.451-5.061,13.628-8.966,24.261-11.688a155.813,155.813,0,0,1,27.348-4.276c-3.7,1.393-6.031,3.39-6.251,5.787l-.01.16v.008c-.127,2.714,2.49,5.276,6.882,7.244a50.483,50.483,0,0,0,16.63,3.7,51.492,51.492,0,0,0,17.086-1.423c4.779-1.38,7.865-3.622,8.125-6.4l.01-.16v-.008c.117-2.368-1.883-4.631-5.317-6.475,2.186-1.714,4.407-3.411,6.672-5.061q3.47-2.286,6.662-4.529c6.51-2.963,16.748-3.158,27.71-1.756a155.182,155.182,0,0,1,26.878,6.091c-4.045-.093-7.127.865-8.5,2.963l-.093.139v.008c-1.448,2.41-.328,5.69,2.69,9.067a44.071,44.071,0,0,0,13.266,9.422,49.775,49.775,0,0,0,16.186,4.943c5.014.494,8.907-.414,10.5-2.845l.093-.139V222c1.262-2.106.563-4.88-1.648-7.805,2.827-.756,5.669-1.482,8.531-2.157q4.263-.8,8.252-1.676c7.352-.312,16.723,3.246,25.968,8.523a134.093,134.093,0,0,1,21.375,15.332c-3.61-1.553-6.882-1.807-9.152-.414l-.152.093-.01.008c-2.49,1.655-3.086,5.044-2,9.2a36.512,36.512,0,0,0,7.41,13.373,42.389,42.389,0,0,0,12.248,10.38c4.3,2.279,8.276,2.875,10.9,1.249l.152-.093.01-.008c2.186-1.452,2.9-4.225,2.323-7.674,2.935.342,5.855.726,8.79,1.161q4.263.829,8.3,1.494c6.823,2.4,13.569,9.038,19.365,17.2A111.733,111.733,0,0,1,628.9,301.872c-2.514-2.735-5.351-4.154-8.1-3.71l-.176.03-.01.008c-3.072.6-5.258,3.449-6.325,7.607a33.411,33.411,0,0,0,.161,14.817,35.555,35.555,0,0,0,6.021,13.88c2.783,3.63,6.09,5.618,9.269,5.112l.176-.03.01-.008c2.69-.515,4.7-2.765,5.865-6.112q3.735,2.07,7.4,4.255,3.456,2.3,6.789,4.377c5,4.66,7.865,13.14,9.127,22.642a102.237,102.237,0,0,1,.142,23.985c-.949-3.39-2.817-5.72-5.517-6.315l-.176-.042h-.01c-3.072-.587-6.452,1.2-9.455,4.588a36.531,36.531,0,0,0-7.107,13.495,33.579,33.579,0,0,0-1.345,14.766c.748,4.306,2.768,7.311,5.9,8.02l.176.042h.01c3.072.587,6.452-1.2,9.455-4.588a36.532,36.532,0,0,0,7.107-13.495c.362-1.211.665-2.4.9-3.571,0-.008,0-.008.01-.021,2.724-9.916,3.879-24.369,2.2-37.087-.949-7.159-2.817-13.8-5.806-18.809a124.481,124.481,0,0,1,16.009,13.263,85.673,85.673,0,0,1,23.14,39.333c-2.724.777-4.779,3.428-5.938,7.21a33.394,33.394,0,0,0-.538,14.816v.021a35.085,35.085,0,0,0,5.351,14.061c2.583,3.681,5.752,5.787,8.907,5.445h.01l.093-.008c3.189-.393,5.586-3.2,6.872-7.4a33.394,33.394,0,0,0,.538-14.817V417.6a35.085,35.085,0,0,0-5.351-14.061c-2.245-3.2-4.921-5.2-7.655-5.458a87.518,87.518,0,0,0-23.7-40.422c-2.1-2.089-4.3-4.086-6.554-6,6.021,3.115,11.8,5.77,17.482,8.117l.024.021c17.579,17.3,32.269,18.911,46.326,20.465a105.094,105.094,0,0,1,14.747,2.33,1.258,1.258,0,0,0,.876-.059.923.923,0,0,0,.489-1.33c-11.818-19.97-23-20.645-39.888-21.676a154.721,154.721,0,0,1-25.151-3.077ZM634.2,330.495a1.179,1.179,0,0,0-.783.443.908.908,0,0,0,.328,1.351,11.385,11.385,0,0,1-1.624,3.411,20.263,20.263,0,0,0,.421-3.461A60.126,60.126,0,0,0,631,317.895a61.925,61.925,0,0,0-4.534-13.858,21.064,21.064,0,0,0-1.834-3.107,13.76,13.76,0,0,1,3.492,3.369,31.167,31.167,0,0,1,4.745,9.582v.021a.431.431,0,0,0,.049.131c.337,1.1.641,2.25.89,3.419a32.871,32.871,0,0,1,.4,13.052Zm56.05,29.481c6.065.857,11.475,1.19,16.386,1.482,15.53.937,25.993,1.583,36.793,18.607-4.207-.886-8.369-1.351-12.586-1.815-12.62-1.393-25.767-2.845-41.151-16.327,10.331,4.006,20.466,7.172,31.133,10.519q3.434,1.076,6.956,2.187a1.206,1.206,0,0,0,1.472-.6.967.967,0,0,0-.69-1.271q-3.522-1.121-6.956-2.187c-10.751-3.369-20.945-6.564-31.358-10.612Zm5.679,41.081a1.335,1.335,0,0,0,.421.072c.245.886.582,2.157.983,3.7.924,3.559,1.952,8.48,2.862,13.947v.008c.91,5.475,1.531,10.46,1.81,14.082.186,2.461.3,4.225.318,4.951-.024,0-.049.008-.068.008s-.049.008-.068.008c-.22-.7-.68-2.419-1.311-4.829-.924-3.559-1.952-8.48-2.862-13.947v-.008c-.91-5.475-1.531-10.46-1.81-14.082-.127-1.655-.22-3-.269-3.913Zm3.424-.03a13.645,13.645,0,0,1,3.331,3.491,33.491,33.491,0,0,1,5.048,13.344v.021a31.63,31.63,0,0,1-.5,14.01,12.128,12.128,0,0,1-2.059,4.145,19.453,19.453,0,0,0,.582-3.449,60.366,60.366,0,0,0-.851-14.382,62.466,62.466,0,0,0-3.869-14.01,20.429,20.429,0,0,0-1.683-3.166Zm-.5,35.8a13.646,13.646,0,0,1-3.331-3.491,33.491,33.491,0,0,1-5.048-13.344v-.021a31.631,31.631,0,0,1,.5-14.01,12.128,12.128,0,0,1,2.059-4.145,19.454,19.454,0,0,0-.582,3.449,60.364,60.364,0,0,0,.851,14.382,62.463,62.463,0,0,0,3.869,14.01,21.306,21.306,0,0,0,1.683,3.166ZM694.7,401.006a30.565,30.565,0,0,0,.068,4.044c.269,3.66.9,8.675,1.824,14.179v.008c.924,5.517,1.952,10.481,2.876,14.04a30.53,30.53,0,0,0,1.252,3.9,18.373,18.373,0,0,1-2.221-3.964,61.132,61.132,0,0,1-3.8-13.749,59.165,59.165,0,0,1-.841-14.12,16.861,16.861,0,0,1,.832-4.348Zm-37.771.08a.666.666,0,0,0-.024.131c-.235,1.119-.528,2.271-.866,3.428a34.654,34.654,0,0,1-6.706,12.777,14.143,14.143,0,0,1-3.752,3.145,22.057,22.057,0,0,0,2.079-2.984,64,64,0,0,0,5.635-13.567,60.881,60.881,0,0,0,2.676-14.221,19.8,19.8,0,0,0-.142-3.478,11.966,11.966,0,0,1,1.521,4.327,28.831,28.831,0,0,1-.4,10.409l-.01.021Zm-13.266,19.679A31.4,31.4,0,0,0,645.4,417c1.37-3.449,3.028-8.291,4.642-13.685s2.876-10.308,3.61-13.917a27.574,27.574,0,0,0,.582-4.014,16.536,16.536,0,0,1,.279,4.4,60.173,60.173,0,0,1-2.632,13.947,62.761,62.761,0,0,1-5.517,13.3,18.715,18.715,0,0,1-2.71,3.732Zm.386-4.154c-.924,2.339-1.614,3.993-1.917,4.681a.129.129,0,0,1-.068-.021.311.311,0,0,1-.068-.021c.117-.726.455-2.461.949-4.9.739-3.58,1.986-8.472,3.59-13.829s3.248-10.148,4.617-13.6c.924-2.33,1.614-3.993,1.917-4.681a.129.129,0,0,1,.068.021.311.311,0,0,1,.068.021c-.117.726-.455,2.461-.949,4.9-.739,3.58-1.986,8.472-3.59,13.829S645.418,413.163,644.049,416.611Zm7.469-31.832a31.4,31.4,0,0,0-1.741,3.761c-1.37,3.449-3.028,8.29-4.642,13.685s-2.876,10.308-3.61,13.917a27.564,27.564,0,0,0-.582,4.014,16.574,16.574,0,0,1-.279-4.4,60.169,60.169,0,0,1,2.632-13.947,62.759,62.759,0,0,1,5.517-13.3,18.715,18.715,0,0,1,2.71-3.732Zm-1.9.181a22.057,22.057,0,0,0-2.079,2.984,63.988,63.988,0,0,0-5.635,13.567,60.881,60.881,0,0,0-2.676,14.221,18.9,18.9,0,0,0,.142,3.478,11.966,11.966,0,0,1-1.521-4.327,31.674,31.674,0,0,1,1.3-13.989,34.655,34.655,0,0,1,6.706-12.777,14.144,14.144,0,0,1,3.752-3.145Zm42.961-55.644a33.326,33.326,0,0,0-2.045-3.643c-2.045-3.217-5.063-7.535-8.589-12.182v-.008c-3.541-4.669-6.9-8.784-9.479-11.681a34.884,34.884,0,0,0-3.038-3.077,21.876,21.876,0,0,1,3.952,2.782,71.636,71.636,0,0,1,10.179,11.072,66.618,66.618,0,0,1,7.679,12.487,17.1,17.1,0,0,1,1.37,4.238Zm-114.9-71.107a.968.968,0,0,0-.489.684,1.016,1.016,0,0,0,.959,1.1,10.435,10.435,0,0,1,.2,3.681,20.009,20.009,0,0,0-1.321-3.288,68.344,68.344,0,0,0-8.413-12.436,73.421,73.421,0,0,0-10.9-10.9,25.586,25.586,0,0,0-3.179-2.14,16.493,16.493,0,0,1,4.813,1.777,37.436,37.436,0,0,1,8.985,6.948l.01.021a.582.582,0,0,0,.108.1c.851.878,1.683,1.807,2.49,2.773a36.278,36.278,0,0,1,6.755,11.681Zm65.236,6.273c5.914-1.431,10.976-3.107,15.578-4.631,14.537-4.812,24.335-8.05,42.457,3.449a122.627,122.627,0,0,0-12.3,2.946c-12.121,3.347-24.756,6.817-45.289.211,11.324-.139,22.055-.958,33.368-1.824,2.431-.182,4.886-.371,7.376-.553a1.04,1.04,0,0,0,1.042-1.068,1.1,1.1,0,0,0-1.238-.9c-2.49.182-4.945.371-7.376.553-11.4.865-22.193,1.693-33.614,1.815Zm25.269,35.158a1.506,1.506,0,0,0,.421-.093c.655.718,1.58,1.743,2.71,3,2.583,2.883,5.924,6.978,9.421,11.6v.008c3.507,4.631,6.51,8.915,8.531,12.1,1.379,2.17,2.338,3.723,2.71,4.377a.1.1,0,0,0-.059.042.215.215,0,0,0-.059.03c-.548-.566-1.8-1.946-3.551-3.9-2.583-2.883-5.923-6.978-9.421-11.6v-.008c-3.507-4.631-6.51-8.915-8.531-12.1-.924-1.452-1.658-2.634-2.162-3.449Zm3.086-1.279a16.165,16.165,0,0,1,4.72,1.946,39.582,39.582,0,0,1,11.1,10.249l.01.021a34.179,34.179,0,0,1,6.4,12.87,11.407,11.407,0,0,1,.176,4.508,20.132,20.132,0,0,0-1.159-3.339,67.014,67.014,0,0,0-7.816-12.727A72.94,72.94,0,0,0,674.342,300.6a26.166,26.166,0,0,0-3.072-2.258Zm17.076,32.625a16.165,16.165,0,0,1-4.72-1.946,39.582,39.582,0,0,1-11.1-10.249l-.01-.021a34.18,34.18,0,0,1-6.4-12.87,11.409,11.409,0,0,1-.176-4.508,20.139,20.139,0,0,0,1.159,3.339,67.013,67.013,0,0,0,7.816,12.727,73.674,73.674,0,0,0,10.365,11.287A25.244,25.244,0,0,0,688.346,331Zm-21.292-30.942a33.328,33.328,0,0,0,2.045,3.643c2.045,3.217,5.063,7.535,8.589,12.182v.008c3.541,4.669,6.9,8.784,9.479,11.681a34.892,34.892,0,0,0,3.038,3.077,21.874,21.874,0,0,1-3.952-2.782,71.64,71.64,0,0,1-10.179-11.072,66.612,66.612,0,0,1-7.679-12.487,17.1,17.1,0,0,1-1.37-4.238Zm-36.568,36.522a28.721,28.721,0,0,0-.269-4.044c-.445-3.63-1.311-8.611-2.49-14.1-1.179-5.466-2.441-10.388-3.541-13.93a29.68,29.68,0,0,0-1.438-3.854,18.3,18.3,0,0,1,2.407,3.884,61.652,61.652,0,0,1,4.451,13.605,58.736,58.736,0,0,1,1.507,14.07,15.882,15.882,0,0,1-.631,4.369Zm-1.692-3.9c.3,2.452.5,4.2.548,4.943-.024,0-.049.008-.068.008s-.049.008-.068.008c-.259-.7-.792-2.4-1.541-4.783-1.086-3.508-2.348-8.4-3.517-13.837s-2.035-10.38-2.48-14c-.3-2.452-.5-4.2-.548-4.943.024,0,.049-.008.068-.008s.049-.008.068-.008c.259.7.792,2.4,1.541,4.783,1.086,3.508,2.348,8.4,3.517,13.837S628.349,329.046,628.794,332.663Zm-8.824-31.579a28.713,28.713,0,0,0,.269,4.044c.445,3.63,1.311,8.611,2.49,14.1,1.179,5.466,2.441,10.388,3.541,13.93a29.681,29.681,0,0,0,1.438,3.854,18.3,18.3,0,0,1-2.407-3.884,61.658,61.658,0,0,1-4.451-13.605,58.738,58.738,0,0,1-1.506-14.07,15.88,15.88,0,0,1,.631-4.369Zm-1.639.865a20.275,20.275,0,0,0-.421,3.461,60.126,60.126,0,0,0,1.541,14.343,61.922,61.922,0,0,0,4.534,13.858,21.064,21.064,0,0,0,1.834,3.107,13.76,13.76,0,0,1-3.493-3.369,33.817,33.817,0,0,1-5.679-13.153,31.67,31.67,0,0,1-.176-14.031,11.945,11.945,0,0,1,1.859-4.217Zm11.685-66.1a38.009,38.009,0,0,0-3.644-2.554c-3.424-2.17-8.276-4.981-13.754-7.906h-.01c-5.493-2.946-10.556-5.445-14.318-7.121a44,44,0,0,0-4.265-1.684,25.021,25.021,0,0,1,4.945,1.081,85,85,0,0,1,14.644,6.323,78.736,78.736,0,0,1,13.065,8.523A20.181,20.181,0,0,1,630,235.854ZM491.074,213.3a.871.871,0,0,0-.108.806,1.18,1.18,0,0,0,1.414.646,11.247,11.247,0,0,1,1.976,3.267,23.307,23.307,0,0,0-2.8-2.5,82.271,82.271,0,0,0-13.72-8.2,87.779,87.779,0,0,0-15.217-5.91,29.788,29.788,0,0,0-3.937-.785,17.375,17.375,0,0,1,5.224-.139,43.481,43.481,0,0,1,11.549,3.027l.024.008a.638.638,0,0,0,.142.051c1.193.485,2.407,1.017,3.61,1.613a43.407,43.407,0,0,1,11.837,8.13Zm62.2-18.1c4.661-3.461,8.428-6.817,11.852-9.873,10.824-9.662,18.113-16.167,40.168-12.363a108.141,108.141,0,0,0-9.7,7.159c-9.347,7.455-19.086,15.209-40.94,16.712,10.189-4.268,19.517-8.915,29.349-13.816,2.1-1.047,4.241-2.119,6.417-3.2a.919.919,0,0,0,.421-1.351,1.249,1.249,0,0,0-1.565-.363l-6.417,3.2c-9.9,4.943-19.281,9.633-29.578,13.909ZM593.4,217.851a1.145,1.145,0,0,0,.328-.232c.949.414,2.289,1,3.928,1.735,3.752,1.676,8.79,4.166,14.224,7.079h.01c5.444,2.917,10.272,5.707,13.661,7.856,2.3,1.461,3.937,2.52,4.6,2.976a145.806,145.806,0,0,0-.068.1c-.773-.312-2.592-1.11-5.131-2.237-3.752-1.676-8.79-4.166-14.224-7.079h-.01c-5.444-2.917-10.272-5.707-13.661-7.856-1.555-.979-2.793-1.786-3.644-2.339Zm2.172-2.288a17.433,17.433,0,0,1,5.234.042,46.561,46.561,0,0,1,15.09,5.243l.024.008a41,41,0,0,1,12.106,9.329,12.672,12.672,0,0,1,2.363,4.023,22.493,22.493,0,0,0-2.69-2.6,80.834,80.834,0,0,0-13.31-8.683,86.286,86.286,0,0,0-14.924-6.446,27.588,27.588,0,0,0-3.894-.916ZM627.019,238.9a17.437,17.437,0,0,1-5.234-.042,46.561,46.561,0,0,1-15.09-5.243l-.024-.008a41,41,0,0,1-12.106-9.329,12.67,12.67,0,0,1-2.362-4.023,22.5,22.5,0,0,0,2.69,2.6,80.841,80.841,0,0,0,13.31,8.683,86.3,86.3,0,0,0,14.924,6.446,27.587,27.587,0,0,0,3.894.916Zm-34.455-20.283a38.024,38.024,0,0,0,3.644,2.554c3.424,2.17,8.276,4.981,13.754,7.906h.01c5.493,2.946,10.556,5.445,14.318,7.121a43.992,43.992,0,0,0,4.265,1.684,25.022,25.022,0,0,1-4.945-1.081,84.992,84.992,0,0,1-14.644-6.323,78.724,78.724,0,0,1-13.065-8.523,20.177,20.177,0,0,1-3.321-3.347ZM577.3,265.052a32.633,32.633,0,0,0-2.221-3.559c-2.186-3.128-5.41-7.332-9.161-11.87s-7.3-8.523-10.037-11.338a39.864,39.864,0,0,0-3.189-2.976,22.1,22.1,0,0,1,4.089,2.642,72.9,72.9,0,0,1,10.693,10.7,66.852,66.852,0,0,1,8.262,12.2,16.878,16.878,0,0,1,1.565,4.187Zm-3.448-2.925c1.472,2.119,2.514,3.63,2.92,4.276-.024.008-.034.03-.059.042s-.034.021-.059.03c-.572-.545-1.893-1.887-3.742-3.774-2.7-2.782-6.241-6.758-9.969-11.254s-6.916-8.662-9.1-11.79c-1.472-2.119-2.514-3.63-2.92-4.276.024-.008.034-.03.059-.042s.034-.021.059-.03c.572.545,1.893,1.887,3.742,3.774,2.7,2.782,6.241,6.758,9.969,11.254S571.668,259,573.854,262.127ZM550.4,236.719a32.626,32.626,0,0,0,2.221,3.559c2.186,3.128,5.41,7.332,9.161,11.87s7.3,8.523,10.037,11.338a39.873,39.873,0,0,0,3.189,2.976,22.1,22.1,0,0,1-4.089-2.642,72.9,72.9,0,0,1-10.693-10.7,66.856,66.856,0,0,1-8.262-12.2,16.878,16.878,0,0,1-1.565-4.187Zm-1.061,1.38a20.015,20.015,0,0,0,1.321,3.288,68.349,68.349,0,0,0,8.413,12.436,73.424,73.424,0,0,0,10.9,10.9,25.588,25.588,0,0,0,3.179,2.14,16.493,16.493,0,0,1-4.813-1.777,40.167,40.167,0,0,1-11.593-9.852,34.533,34.533,0,0,1-7.024-12.66,11.413,11.413,0,0,1-.386-4.5Zm-21.786-64.167c-1.179-.333-2.724-.667-4.544-.988-4.162-.718-9.944-1.494-16.337-2.157h-.01c-6.417-.667-12.238-1.089-16.455-1.241a44.139,44.139,0,0,0-4.686.03,24.742,24.742,0,0,1,5.014-.819,91.75,91.75,0,0,1,16.371.393,90.407,90.407,0,0,1,16.024,2.955,24.268,24.268,0,0,1,4.642,1.815ZM390.59,204.182a.9.9,0,0,0,.293.768,1.288,1.288,0,0,0,1.6.072,13.927,13.927,0,0,1,3.39,2.237,28.418,28.418,0,0,0-3.761-1.241,92.428,92.428,0,0,0-16.455-2.431,93.815,93.815,0,0,0-16.689.19,27.934,27.934,0,0,0-3.952.726,16.152,16.152,0,0,1,4.676-2.039,44.909,44.909,0,0,1,11.945-1.473h.176c1.321,0,2.676.051,4.065.139a49.55,49.55,0,0,1,14.7,3.048ZM438.1,165.089a135.445,135.445,0,0,0,5.9-13.271c5.072-12.7,8.5-21.262,30.35-25.851a91.15,91.15,0,0,0-5.292,10.025c-4.828,10.165-9.851,20.747-28.928,30.076,7.151-7.585,13.324-15.2,19.835-23.229q2.084-2.59,4.241-5.234a.9.9,0,0,0-.279-1.372,1.263,1.263,0,0,0-1.59.241q-2.157,2.647-4.241,5.234c-6.554,8.088-12.761,15.766-20,23.39Zm47.452,5.889a.926.926,0,0,0,.186-.333c1.061.03,2.558.072,4.407.139,4.221.152,10,.574,16.352,1.228h.01c6.369.654,12.106,1.423,16.235,2.14,2.8.485,4.8.848,5.635,1.017a.118.118,0,0,1-.01.059c0,.021-.01.042-.01.059-.851,0-2.886-.059-5.752-.16-4.221-.152-10-.574-16.352-1.228h-.01c-6.368-.654-12.106-1.423-16.235-2.14-1.883-.321-3.414-.6-4.451-.785Zm.851-2.866a16.436,16.436,0,0,1,4.769-1.874,49,49,0,0,1,16.235-.756l.024.008a47.554,47.554,0,0,1,15.545,4.036,15.242,15.242,0,0,1,4.114,2.782,26.375,26.375,0,0,0-3.7-1.38,91.853,91.853,0,0,0-16.317-3.014,92.782,92.782,0,0,0-16.679-.393,28.406,28.406,0,0,0-3.986.587Zm39.933,9.683a16.436,16.436,0,0,1-4.769,1.874,49,49,0,0,1-16.235.756h-.024a47.553,47.553,0,0,1-15.545-4.036,15.241,15.241,0,0,1-4.114-2.782,26.375,26.375,0,0,0,3.7,1.38A91.854,91.854,0,0,0,505.668,178a92.785,92.785,0,0,0,16.679.393,28.4,28.4,0,0,0,3.986-.587Zm-41.161-5.808c1.179.333,2.725.667,4.544.988,4.162.718,9.944,1.494,16.337,2.157h.01c6.417.667,12.238,1.089,16.469,1.241a44.143,44.143,0,0,0,4.686-.03,24.74,24.74,0,0,1-5.014.819,91.746,91.746,0,0,1-16.371-.393,90.409,90.409,0,0,1-16.024-2.955A24.269,24.269,0,0,1,485.169,172Zm8.907,47.645a38.013,38.013,0,0,0-3.761-2.419c-3.507-2.039-8.5-4.669-14.116-7.413s-10.8-5.061-14.644-6.606a43.957,43.957,0,0,0-4.348-1.532,25.45,25.45,0,0,1,5,.908,86.666,86.666,0,0,1,14.939,5.8,80.516,80.516,0,0,1,13.466,8.05,20.392,20.392,0,0,1,3.473,3.229Zm-4.559-1.393c2.372,1.38,4.055,2.381,4.745,2.816-.01.021-.024.042-.034.059a.175.175,0,0,1-.034.051c-.783-.283-2.641-1.017-5.234-2.056-3.81-1.532-8.966-3.841-14.552-6.564-5.561-2.714-10.516-5.336-14.023-7.362-2.372-1.38-4.055-2.381-4.745-2.816.01-.021.024-.042.034-.059a.175.175,0,0,1,.034-.051c.783.283,2.641,1.017,5.234,2.056,3.81,1.532,8.966,3.841,14.552,6.564C481.061,213.591,486.016,216.212,489.523,218.238Zm-33.691-14.462a38.027,38.027,0,0,0,3.761,2.419c3.507,2.039,8.5,4.669,14.116,7.412s10.8,5.061,14.644,6.606a43.971,43.971,0,0,0,4.348,1.532,25.453,25.453,0,0,1-5-.908,86.668,86.668,0,0,1-14.939-5.8,80.516,80.516,0,0,1-13.466-8.05,20.39,20.39,0,0,1-3.473-3.229Zm-.279,1.634a23.314,23.314,0,0,0,2.8,2.5,82.274,82.274,0,0,0,13.72,8.2,87.778,87.778,0,0,0,15.217,5.91,29.792,29.792,0,0,0,3.938.785,17.377,17.377,0,0,1-5.224.139,47.267,47.267,0,0,1-15.334-4.7,41.6,41.6,0,0,1-12.566-8.907,12.478,12.478,0,0,1-2.548-3.943Zm-51.168-50.216a43.888,43.888,0,0,0-4.6.768c-4.123.865-9.734,2.271-15.858,4.006h-.01c-6.134,1.735-11.617,3.478-15.521,4.88a43.9,43.9,0,0,0-4.231,1.735,21.376,21.376,0,0,1,4.138-2.571,86.331,86.331,0,0,1,15.031-5.618,89.975,89.975,0,0,1,15.965-3.166,25.476,25.476,0,0,1,5.1-.042ZM295.063,232.565a1.061,1.061,0,0,0,.641.587,1.224,1.224,0,0,0,1.482-.515,15.657,15.657,0,0,1,4.172.8,29.688,29.688,0,0,0-4.021.241,90.57,90.57,0,0,0-16.107,3.8,87.365,87.365,0,0,0-15.031,6.264,26.023,26.023,0,0,0-3.223,2.1,13.414,13.414,0,0,1,3.238-3.55,39.878,39.878,0,0,1,10.11-5.69l.024-.008c.049-.021.093-.042.142-.059q1.8-.728,3.752-1.351a50.175,50.175,0,0,1,14.821-2.6ZM318.977,179.8a129.208,129.208,0,0,0-1.145-14.179c-1.624-13.364-2.71-22.372,14.841-34.5a84.3,84.3,0,0,0,.117,11.013c.607,10.975,1.228,22.4-11.49,37.8,2.768-9.481,4.627-18.628,6.594-28.282.421-2.068.841-4.166,1.286-6.294a1.006,1.006,0,0,0-.924-1.14,1.136,1.136,0,0,0-1.321.8c-.445,2.128-.866,4.217-1.286,6.294-1.976,9.721-3.854,18.94-6.662,28.493Zm45.9-11.963a.946.946,0,0,0,.01-.371c.969-.363,2.362-.865,4.055-1.482,3.894-1.4,9.347-3.128,15.427-4.85h.01c6.1-1.726,11.676-3.128,15.755-3.985,2.783-.587,4.769-.988,5.6-1.131.01.021.01.042.024.059s.01.042.024.059c-.773.312-2.651,1-5.283,1.946-3.894,1.4-9.347,3.128-15.427,4.85h-.01c-6.1,1.727-11.676,3.128-15.755,3.985-1.868.393-3.38.7-4.432.908Zm-.631-2.9a14.015,14.015,0,0,1,3.4-3.44,45.04,45.04,0,0,1,14.351-6.606h.024a48.463,48.463,0,0,1,16.068-2.005,17.358,17.358,0,0,1,5.1,1.03,29.846,29.846,0,0,0-4.031.1,92.051,92.051,0,0,0-16.268,3.217,87.22,87.22,0,0,0-15.31,5.728,26.086,26.086,0,0,0-3.321,1.988Zm40.94-5.787a14.016,14.016,0,0,1-3.4,3.44A45.04,45.04,0,0,1,387.43,169.2l-.024.008a48.463,48.463,0,0,1-16.068,2.005,17.358,17.358,0,0,1-5.1-1.03,29.845,29.845,0,0,0,4.031-.1,92.051,92.051,0,0,0,16.268-3.217,87.225,87.225,0,0,0,15.31-5.728,26.084,26.084,0,0,0,3.321-1.988Zm-40.144,9.743a43.893,43.893,0,0,0,4.6-.768c4.123-.865,9.734-2.271,15.858-4.006h.01c6.134-1.735,11.617-3.478,15.521-4.88a43.9,43.9,0,0,0,4.231-1.735,21.376,21.376,0,0,1-4.138,2.571,86.332,86.332,0,0,1-15.031,5.618,89.978,89.978,0,0,1-15.965,3.166,25.476,25.476,0,0,1-5.1.042Zm31.4,39.941c-1.194-.291-2.744-.574-4.593-.827-4.182-.566-9.978-1.14-16.43-1.574-6.427-.435-12.272-.646-16.514-.646a45.843,45.843,0,0,0-4.686.2,24.831,24.831,0,0,1,4.979-1,91.844,91.844,0,0,1,16.371-.19,90.639,90.639,0,0,1,16.142,2.381,24.292,24.292,0,0,1,4.735,1.655Zm-4.813.393c2.827.384,4.838.675,5.669.819v.072a.117.117,0,0,1-.01.059c-.851.03-2.886.042-5.752.042-4.207,0-10-.211-16.4-.646s-12.145-1-16.317-1.562c-2.827-.384-4.838-.675-5.669-.819v-.072a.118.118,0,0,1,.01-.059c.841-.03,2.886-.042,5.752-.042,4.207,0,10,.211,16.4.646S387.454,208.665,391.626,209.226Zm-37.619-.827c1.193.291,2.744.574,4.593.827,4.182.566,9.978,1.14,16.43,1.574,6.427.435,12.272.646,16.514.646a45.839,45.839,0,0,0,4.686-.2,24.832,24.832,0,0,1-4.979,1,91.84,91.84,0,0,1-16.371.19,90.64,90.64,0,0,1-16.142-2.381A24.292,24.292,0,0,1,354,208.4Zm.538,1.583a28.417,28.417,0,0,0,3.761,1.241,92.428,92.428,0,0,0,16.455,2.431,93.814,93.814,0,0,0,16.689-.19,27.935,27.935,0,0,0,3.952-.726,16.225,16.225,0,0,1-4.661,2.039,48.869,48.869,0,0,1-16.2,1.33,47.872,47.872,0,0,1-15.755-3.491,15.368,15.368,0,0,1-4.241-2.642Zm-70.964-26.847a43.224,43.224,0,0,0-3.8,2.368c-3.321,2.288-7.714,5.606-12.409,9.422l-.01.008c-4.71,3.812-8.834,7.391-11.676,10.084a35.04,35.04,0,0,0-2.979,3.115,18.215,18.215,0,0,1,2.49-3.841,72.825,72.825,0,0,1,10.869-10.57,79.924,79.924,0,0,1,12.913-8.7,23.488,23.488,0,0,1,4.6-1.9Zm-61.2,110a1.308,1.308,0,0,0,.876.3,1.047,1.047,0,0,0,1.086-1.009,15.84,15.84,0,0,1,4.172-.806,27.579,27.579,0,0,0-3.532,1.693,78.589,78.589,0,0,0-12.737,9.32A73.427,73.427,0,0,0,201.7,313.791a20.773,20.773,0,0,0-1.893,3.077,11.653,11.653,0,0,1,1.193-4.4,33.252,33.252,0,0,1,6.369-8.843l.024-.021a.876.876,0,0,0,.093-.1c.851-.865,1.766-1.743,2.734-2.592a44.448,44.448,0,0,1,12.155-7.767Zm-4.163-56.53a143.966,143.966,0,0,0-7.992-12.436c-8.017-11.52-13.417-19.283-3.434-36.682a89.721,89.721,0,0,0,5.5,9.945c5.923,9.721,12.086,19.848,8.1,38.447-2.128-9.6-4.93-18.577-7.875-28.037q-.946-3.039-1.917-6.171a1.178,1.178,0,0,0-1.4-.7.985.985,0,0,0-.807,1.212c.641,2.09,1.286,4.145,1.917,6.171,2.969,9.532,5.786,18.57,7.914,28.253Zm35.741-27.585a.9.9,0,0,0-.176-.333c.7-.684,1.707-1.642,2.959-2.824,2.842-2.693,6.941-6.243,11.607-10.025l.01-.008c4.676-3.791,9.044-7.092,12.331-9.35,2.23-1.545,3.835-2.634,4.525-3.065a.236.236,0,0,1,.049.051c.01.021.034.03.049.051-.548.566-1.9,1.874-3.835,3.689-2.842,2.693-6.941,6.243-11.607,10.025l-.01.008c-4.676,3.791-9.044,7.092-12.331,9.35-1.5,1.038-2.724,1.874-3.566,2.44Zm-2-2.4a11.677,11.677,0,0,1,1.4-4.356,37.444,37.444,0,0,1,9.768-11.216l.024-.008a43.785,43.785,0,0,1,13.579-7.687,17.181,17.181,0,0,1,5.121-.929,27.619,27.619,0,0,0-3.6,1.562,79.507,79.507,0,0,0-13.158,8.856,74.381,74.381,0,0,0-11.079,10.773,21.237,21.237,0,0,0-2.035,3.005Zm34.269-20.173a11.679,11.679,0,0,1-1.4,4.356,37.443,37.443,0,0,1-9.768,11.216l-.024.008a43.785,43.785,0,0,1-13.579,7.687,17.181,17.181,0,0,1-5.121.929,27.622,27.622,0,0,0,3.6-1.562,79.5,79.5,0,0,0,13.158-8.856,74.379,74.379,0,0,0,11.079-10.773,22.248,22.248,0,0,0,2.045-3.005Zm-31.613,23.47a43.221,43.221,0,0,0,3.8-2.368c3.321-2.288,7.714-5.606,12.409-9.422l.01-.008c4.71-3.812,8.834-7.391,11.676-10.084a35.049,35.049,0,0,0,2.979-3.115,18.217,18.217,0,0,1-2.49,3.841,72.821,72.821,0,0,1-10.869,10.57,79.917,79.917,0,0,1-12.912,8.7,23.49,23.49,0,0,1-4.6,1.9Zm48.024,24.741c-1.228.173-2.768.485-4.568.929-4.065,1.009-9.607,2.613-15.662,4.567s-11.431,3.884-15.286,5.437a43.438,43.438,0,0,0-4.148,1.887A21.574,21.574,0,0,1,267,244.75a85.744,85.744,0,0,1,14.747-6.142,89.781,89.781,0,0,1,15.8-3.732,25.188,25.188,0,0,1,5.1-.224Zm-4.163,2.119c2.744-.684,4.72-1.161,5.542-1.33a.183.183,0,0,1,.024.059c.01.021.01.042.024.059-.748.334-2.592,1.1-5.19,2.14-3.81,1.532-9.176,3.461-15.183,5.395-5.982,1.938-11.49,3.529-15.555,4.538-2.744.684-4.72,1.161-5.542,1.33a.184.184,0,0,1-.024-.059c-.01-.021-.01-.042-.024-.059.748-.333,2.592-1.1,5.19-2.14,3.81-1.532,9.176-3.461,15.183-5.395C288.908,239.372,294.416,237.781,298.481,236.772Zm-34.5,12.981c1.228-.173,2.768-.485,4.568-.929,4.065-1.009,9.607-2.613,15.662-4.567s11.431-3.884,15.285-5.437a43.436,43.436,0,0,0,4.148-1.887,21.578,21.578,0,0,1-4.021,2.723,85.752,85.752,0,0,1-14.747,6.142,89.789,89.789,0,0,1-15.8,3.732,25.191,25.191,0,0,1-5.1.224Zm1.272,1.241a29.7,29.7,0,0,0,4.021-.241,90.57,90.57,0,0,0,16.107-3.8,87.363,87.363,0,0,0,15.031-6.264,26.024,26.024,0,0,0,3.223-2.1,13.413,13.413,0,0,1-3.238,3.55,44.138,44.138,0,0,1-14.023,7.108,48.524,48.524,0,0,1-15.975,2.583,17,17,0,0,1-5.141-.848Zm-77.464,1.545a35.075,35.075,0,0,0-2.279,3.542c-1.883,3.288-4.241,7.9-6.638,13.06v.008c-2.407,5.175-4.383,9.916-5.645,13.4a29.36,29.36,0,0,0-1.179,3.913,16.458,16.458,0,0,1,.372-4.386,61.032,61.032,0,0,1,4.676-13.546,65.886,65.886,0,0,1,7.454-12.587,19.157,19.157,0,0,1,3.238-3.4ZM186.2,374.531a1.242,1.242,0,0,0,.934-.051.923.923,0,0,0,.489-1.313,13.961,13.961,0,0,1,3.39-2.25,22.291,22.291,0,0,0-2.372,2.816,65.518,65.518,0,0,0-6.975,13.081,61.94,61.94,0,0,0-4.1,13.96,18.636,18.636,0,0,0-.21,3.478,11.748,11.748,0,0,1-1.076-4.42,29.038,29.038,0,0,1,1.448-10.338l.01-.021a.723.723,0,0,0,.034-.131c.338-1.1.748-2.22,1.213-3.347a36.976,36.976,0,0,1,7.21-11.469Zm-31.461-49.713c-4.754-3.36-9.245-5.982-13.333-8.362-12.9-7.514-21.6-12.587-21.082-31.992a108.386,108.386,0,0,0,9.851,7c10.135,6.657,20.676,13.584,26.178,31.892-6.638-7.927-13.559-15.036-20.871-22.541-1.565-1.613-3.155-3.238-4.754-4.892a1.283,1.283,0,0,0-1.614-.122.9.9,0,0,0-.142,1.393q2.4,2.482,4.754,4.892c7.361,7.556,14.341,14.715,21,22.722Zm18.875-38.033a1.025,1.025,0,0,0-.328-.241c.3-.878.748-2.119,1.3-3.63,1.262-3.478,3.223-8.189,5.61-13.313v-.008c2.382-5.146,4.735-9.721,6.594-12.972,1.262-2.208,2.186-3.791,2.592-4.428a.316.316,0,0,1,.068.021.258.258,0,0,0,.068.021c-.22.7-.817,2.389-1.673,4.749-1.262,3.478-3.223,8.189-5.61,13.313v.008c-2.382,5.146-4.735,9.721-6.594,12.972-.851,1.494-1.541,2.685-2.035,3.508Zm-2.979-1.452a11.581,11.581,0,0,1-.866-4.458,32.347,32.347,0,0,1,3.365-13.727l.01-.021a36.251,36.251,0,0,1,8.545-11.912,15.153,15.153,0,0,1,4.182-2.7,21.222,21.222,0,0,0-2.5,2.735,66.363,66.363,0,0,0-7.6,12.828,62.255,62.255,0,0,0-4.754,13.807,19.091,19.091,0,0,0-.372,3.47Zm21.174-30.781a11.615,11.615,0,0,1,.866,4.458,32.464,32.464,0,0,1-3.355,13.727l-.01.021a36.25,36.25,0,0,1-8.545,11.912,15.152,15.152,0,0,1-4.182,2.7,21.226,21.226,0,0,0,2.5-2.735,66.368,66.368,0,0,0,7.6-12.828A62.25,62.25,0,0,0,191.433,258a19.157,19.157,0,0,0,.372-3.47Zm-17.159,32.811a35.078,35.078,0,0,0,2.279-3.542c1.883-3.288,4.241-7.9,6.638-13.061v-.008c2.407-5.175,4.383-9.916,5.645-13.4a29.366,29.366,0,0,0,1.179-3.913,16.467,16.467,0,0,1-.372,4.386,61.028,61.028,0,0,1-4.676,13.546,65.9,65.9,0,0,1-7.454,12.587,19.165,19.165,0,0,1-3.238,3.4Zm55.645,4.914a38.342,38.342,0,0,0-3.683,2.512c-3.189,2.4-7.42,5.872-11.955,9.852-4.51,3.972-8.462,7.7-11.187,10.5a34.8,34.8,0,0,0-2.842,3.229,17.974,17.974,0,0,1,2.314-3.934A71.71,71.71,0,0,1,213.3,303.48a78.032,78.032,0,0,1,12.493-9.139,22.769,22.769,0,0,1,4.51-2.056Zm-2.734,3.44c2.162-1.625,3.7-2.773,4.373-3.229.024.008.034.03.059.042l.049.042c-.514.574-1.824,1.938-3.659,3.833-2.7,2.782-6.628,6.475-11.113,10.431s-8.682,7.391-11.876,9.785c-2.162,1.625-3.7,2.773-4.373,3.229-.024-.008-.034-.03-.059-.042l-.049-.042c.514-.574,1.824-1.938,3.659-3.833,2.7-2.782,6.628-6.475,11.113-10.431S224.367,298.111,227.562,295.717Zm-24.916,24.348a38.342,38.342,0,0,0,3.683-2.512c3.189-2.4,7.42-5.872,11.954-9.852,4.51-3.972,8.462-7.7,11.187-10.5a34.794,34.794,0,0,0,2.842-3.229A17.979,17.979,0,0,1,230,297.908a71.71,71.71,0,0,1-10.355,10.954A78.031,78.031,0,0,1,207.15,318a22.765,22.765,0,0,1-4.51,2.056Zm1.751.667a27.579,27.579,0,0,0,3.531-1.693,78.584,78.584,0,0,0,12.737-9.32,73.428,73.428,0,0,0,10.556-11.156,20.77,20.77,0,0,0,1.893-3.077,11.65,11.65,0,0,1-1.193,4.4,36.907,36.907,0,0,1-9.22,11.557,42.9,42.9,0,0,1-13.217,8.168,17.325,17.325,0,0,1-5.072,1.11Zm-64,107.223c-5.963-1.313-11.314-2.047-16.176-2.714-15.368-2.106-25.734-3.529-34.768-21.3a126.021,126.021,0,0,0,12.365,2.752c12.434,2.339,25.386,4.77,39.336,19.354-9.885-4.761-19.658-8.683-29.955-12.82q-3.316-1.33-6.706-2.7a1.226,1.226,0,0,0-1.521.473.932.932,0,0,0,.548,1.313q3.4,1.374,6.706,2.7c10.365,4.166,20.2,8.109,30.165,12.93ZM138.878,386.6a1.351,1.351,0,0,0-.411-.1c-.152-.908-.362-2.187-.607-3.761-.562-3.609-1.086-8.6-1.438-14.112v-.008c-.352-5.526-.479-10.54-.372-14.162.068-2.469.127-4.238.186-4.964h.137c.152.718.43,2.469.817,4.914.563,3.609,1.086,8.6,1.438,14.112v.008c.352,5.526.479,10.54.372,14.162-.049,1.663-.083,3-.127,3.922Zm-3.414-.224a13.572,13.572,0,0,1-2.969-3.723,32.62,32.62,0,0,1-3.683-13.668v-.021a32.175,32.175,0,0,1,1.9-13.917,12.83,12.83,0,0,1,2.465-3.985,19.935,19.935,0,0,0-.934,3.39,68.291,68.291,0,0,0,1.834,28.645,20.016,20.016,0,0,0,1.355,3.28Zm4.123-35.623a13.571,13.571,0,0,1,2.969,3.723,32.619,32.619,0,0,1,3.683,13.668v.021a32.175,32.175,0,0,1-1.9,13.917,12.609,12.609,0,0,1-2.465,3.972,19.935,19.935,0,0,0,.934-3.39,68.294,68.294,0,0,0-1.834-28.645,20.026,20.026,0,0,0-1.355-3.28Zm.514,35.986a30.607,30.607,0,0,0,.338-4.036c.093-3.66-.024-8.7-.372-14.263v-.008c-.362-5.568-.89-10.591-1.448-14.2a29.247,29.247,0,0,0-.851-3.972,17.521,17.521,0,0,1,1.81,4.116,59.422,59.422,0,0,1,2.4,13.989,58.453,58.453,0,0,1-.6,14.128,17.061,17.061,0,0,1-1.272,4.268ZM192.928,370.9a32.484,32.484,0,0,0-2.113,3.609c-1.717,3.339-3.854,8.029-6.007,13.284s-3.9,10.055-5,13.6a31.288,31.288,0,0,0-.993,3.964,16.971,16.971,0,0,1,.161-4.407,60.966,60.966,0,0,1,4.021-13.707,64.56,64.56,0,0,1,6.848-12.841,19.291,19.291,0,0,1,3.072-3.508Zm-.792,4.116c1.159-2.258,2.01-3.862,2.382-4.517a176.073,176.073,0,0,1,.137.042c-.186.718-.7,2.419-1.438,4.812-1.086,3.508-2.827,8.29-4.965,13.5s-4.255,9.865-5.972,13.191c-1.159,2.258-2.01,3.862-2.382,4.517a108.832,108.832,0,0,0-.137-.042c.186-.718.7-2.419,1.438-4.812,1.086-3.508,2.827-8.29,4.965-13.5S190.418,378.339,192.135,375.012Zm-10.658,31.157a32.485,32.485,0,0,0,2.113-3.609c1.717-3.339,3.854-8.029,6.007-13.284s3.9-10.055,5-13.6a31.3,31.3,0,0,0,.993-3.964,16.978,16.978,0,0,1-.161,4.407,60.969,60.969,0,0,1-4.021,13.707,64.556,64.556,0,0,1-6.848,12.841,19.29,19.29,0,0,1-3.072,3.508Zm1.917-.042a22.291,22.291,0,0,0,2.372-2.816,65.516,65.516,0,0,0,6.975-13.081,61.943,61.943,0,0,0,4.1-13.96,18.636,18.636,0,0,0,.21-3.478,11.748,11.748,0,0,1,1.076,4.42,32.161,32.161,0,0,1-2.7,13.849,35.715,35.715,0,0,1-7.983,12.224,15.033,15.033,0,0,1-4.055,2.854Z" transform="translate(-65.903 10.249)" fill="#ffc82f"/>
    <g id="Group_4" data-name="Group 4" transform="translate(0 0.068)">
      <path id="Path_2" data-name="Path 2" d="M.039-.031H0V0H.02V-.031h.02v.017Z" transform="translate(0 0.031)" fill="#ffc82f"/>
    </g>
    <g id="Group_5" data-name="Group 5" transform="translate(0.044 0.068)">
      <path id="Path_3" data-name="Path 3" d="M.02-.014V-.031H0V0H.02Z" transform="translate(0 0.031)" fill="#ffc82f"/>
    </g>
    <g id="Group_6" data-name="Group 6" transform="translate(0.073 0.068)">
      <path id="Path_4" data-name="Path 4" d="M.039-.014H.02V-.031c.01,0,.02,0,.02.017V-.031H0v.017L.02,0V-.014Z" transform="translate(0 0.031)" fill="#ffc82f"/>
    </g>
    <g id="Group_7" data-name="Group 7" transform="translate(0.112 0.068)">
      <path id="Path_5" data-name="Path 5" d="M.02-.014v0Zm.02,0V-.031H0v.017H0V0H.02V-.014Z" transform="translate(0 0.031)" fill="#ffc82f"/>
    </g>
    <g id="Group_8" data-name="Group 8" transform="translate(0.152 0.068)">
      <path id="Path_6" data-name="Path 6" d="M.02,0V-.031H0V0Z" transform="translate(0 0.031)" fill="#ffc82f"/>
    </g>
    <g id="Group_9" data-name="Group 9" transform="translate(0.181 0.068)">
      <path id="Path_7" data-name="Path 7" d="M.039-.014H.02V-.031c.01,0,.02,0,.02.017V-.031H0v.017L.02,0V-.014Z" transform="translate(0 0.031)" fill="#ffc82f"/>
    </g>
    <g id="Group_10" data-name="Group 10" transform="translate(0.22 0.068)">
      <path id="Path_8" data-name="Path 8" d="M.02-.014V0h.02V-.031H0v.017L.02,0Zm0-.017v0Z" transform="translate(0 0.031)" fill="#ffc82f"/>
    </g>
    <g id="Group_11" data-name="Group 11" transform="translate(0.279 0.068)">
      <path id="Path_9" data-name="Path 9" d="M.02-.031v0Zm0,.017V0a.02.02,0,0,0,.02-.017V-.031H0V0H.02Z" transform="translate(0 0.031)" fill="#ffc82f"/>
    </g>
    <g id="Group_12" data-name="Group 12" transform="translate(0.323 0.051)">
      <path id="Path_10" data-name="Path 10" d="M0,.019H.02v0h.02L.02-.014V-.031H0v.017H.02Z" transform="translate(0 0.031)" fill="#ffc82f"/>
    </g>
    <g id="Group_13" data-name="Group 13" transform="translate(0.382 0.068)">
      <path id="Path_11" data-name="Path 11" d="M.02,0V-.031h.02v.017A.02.02,0,0,1,.02,0Zm0,0h.02V-.031H0V0Z" transform="translate(0 0.031)" fill="#ffc82f"/>
    </g>
    <g id="Group_14" data-name="Group 14" transform="translate(0.431 0.068)">
      <path id="Path_12" data-name="Path 12" d="M0,0H.02V-.031H0Z" transform="translate(0 0.031)" fill="#ffc82f"/>
    </g>
    <g id="Group_15" data-name="Group 15" transform="translate(0.45 0.068)">
      <path id="Path_13" data-name="Path 13" d="M.039-.014H.02V-.031c.01,0,.02,0,.02.017V-.031H0v.017L.02,0V-.014Z" transform="translate(0 0.031)" fill="#ffc82f"/>
    </g>
    <g id="Group_16" data-name="Group 16" transform="translate(0.489 0.068)">
      <path id="Path_14" data-name="Path 14" d="M.039-.014V-.031H.02v0H0V0H.02V0A.02.02,0,0,0,.039-.014Z" transform="translate(0 0.031)" fill="#ffc82f"/>
    </g>
    <g id="Group_17" data-name="Group 17" transform="translate(0.533 0.068)">
      <path id="Path_15" data-name="Path 15" d="M.02-.014v0Zm.02,0V-.031H0v.017H0V0H.02V-.014Z" transform="translate(0 0.031)" fill="#ffc82f"/>
    </g>
    <g id="Group_18" data-name="Group 18" transform="translate(0.592 0.068)">
      <path id="Path_16" data-name="Path 16" d="M0,0H.039V-.014H.02V-.031H0ZM.02,0V0Z" transform="translate(0 0.031)" fill="#ffc82f"/>
    </g>
    <g id="Group_19" data-name="Group 19" transform="translate(0.636 0.068)">
      <path id="Path_17" data-name="Path 17" d="M.02-.014v0Zm.02,0V-.031H0v.017H0V0H.02V-.014Z" transform="translate(0 0.031)" fill="#ffc82f"/>
    </g>
    <g id="Group_20" data-name="Group 20" transform="translate(0.675 0.068)">
      <path id="Path_18" data-name="Path 18" d="M.039-.014V-.031H.02v0H0V0H.02V0A.02.02,0,0,0,.039-.014Z" transform="translate(0 0.031)" fill="#ffc82f"/>
    </g>
    <g id="Group_21" data-name="Group 21" transform="translate(0.714 0.068)">
      <path id="Path_19" data-name="Path 19" d="M.02-.014v0Zm.02,0V-.031H0v.017H0V0H.02V-.014Z" transform="translate(0 0.031)" fill="#ffc82f"/>
    </g>
    <g id="Group_22" data-name="Group 22" transform="translate(0.753 0.068)">
      <path id="Path_20" data-name="Path 20" d="M.039,0V-.014H.02a.02.02,0,0,0,.02-.017H.02v.017H0L.02,0Z" transform="translate(0 0.031)" fill="#ffc82f"/>
    </g>
    <g id="Group_23" data-name="Group 23" transform="translate(0.787 0.068)">
      <path id="Path_21" data-name="Path 21" d="M.02-.014v0ZM.02,0V-.014h.02c0-.013-.01-.017-.02-.017H0v.017Z" transform="translate(0 0.031)" fill="#ffc82f"/>
    </g>
    <g id="Group_24" data-name="Group 24" transform="translate(0.832 0.068)">
      <path id="Path_22" data-name="Path 22" d="M0,0H.02V0h.02L.02-.031Z" transform="translate(0 0.031)" fill="#ffc82f"/>
    </g>
    <g id="Group_25" data-name="Group 25" transform="translate(0.866 0.068)">
      <path id="Path_23" data-name="Path 23" d="M.039,0V-.014H.02a.02.02,0,0,0,.02-.017H.02v.017H0L.02,0Z" transform="translate(0 0.031)" fill="#ffc82f"/>
    </g>
    <g id="Group_26" data-name="Group 26" transform="translate(0.905 0.068)">
      <path id="Path_24" data-name="Path 24" d="M0,0H.02V0h.02L.02-.014l.02-.017H.02v0H0Z" transform="translate(0 0.031)" fill="#ffc82f"/>
    </g>
    <g id="Group_27" data-name="Group 27" transform="translate(0.939 0.068)">
      <path id="Path_25" data-name="Path 25" d="M.02-.014v0Zm.02,0V-.031H0v.017H0V0H.02V-.014Z" transform="translate(0 0.031)" fill="#ffc82f"/>
    </g>
    <g id="Group_28" data-name="Group 28" transform="translate(0 0.017)">
      <path id="Path_26" data-name="Path 26" d="M.02,0V-.031H0V0Z" transform="translate(0 0.031)" fill="#ffc82f"/>
    </g>
    <g id="Group_29" data-name="Group 29" transform="translate(0.024 0.017)">
      <path id="Path_27" data-name="Path 27" d="M.02-.014V-.031H0V0H.02Z" transform="translate(0 0.031)" fill="#ffc82f"/>
    </g>
    <g id="Group_30" data-name="Group 30" transform="translate(0.054 0.017)">
      <path id="Path_28" data-name="Path 28" d="M.02-.014v0ZM.02,0V-.014h.02c0-.013-.01-.017-.02-.017H0v.017Z" transform="translate(0 0.031)" fill="#ffc82f"/>
    </g>
    <g id="Group_31" data-name="Group 31" transform="translate(0.093 0.017)">
      <path id="Path_29" data-name="Path 29" d="M.039-.014V0a.02.02,0,0,0,.02-.017V-.031H.039v0H.02v0H0V0H.02V-.014Z" transform="translate(0 0.031)" fill="#ffc82f"/>
    </g>
    <g id="Group_32" data-name="Group 32" transform="translate(0.176 0.017)">
      <path id="Path_30" data-name="Path 30" d="M.02,0V-.031H0V0Z" transform="translate(0 0.031)" fill="#ffc82f"/>
    </g>
    <g id="Group_33" data-name="Group 33" transform="translate(0.206 0.017)">
      <path id="Path_31" data-name="Path 31" d="M.039-.014V-.031H.02v0H0V0H.02V0A.02.02,0,0,0,.039-.014Z" transform="translate(0 0.031)" fill="#ffc82f"/>
    </g>
    <g id="Group_34" data-name="Group 34" transform="translate(0.245 0.017)">
      <path id="Path_32" data-name="Path 32" d="M.039-.014H.02V-.031c.01,0,.02,0,.02.017V-.031H0v.017L.02,0V-.014Z" transform="translate(0 0.031)" fill="#ffc82f"/>
    </g>
    <g id="Group_35" data-name="Group 35" transform="translate(0.303 0.017)">
      <path id="Path_33" data-name="Path 33" d="M0,0H.02l.02-.017V-.031L.02-.014V-.031H0Z" transform="translate(0 0.031)" fill="#ffc82f"/>
    </g>
    <g id="Group_36" data-name="Group 36" transform="translate(0.352 0.017)">
      <path id="Path_34" data-name="Path 34" d="M.02-.014v0ZM.02,0V-.014h.02c0-.013-.01-.017-.02-.017H0v.017Z" transform="translate(0 0.031)" fill="#ffc82f"/>
    </g>
    <g id="Group_37" data-name="Group 37" transform="translate(0.396 0.017)">
      <path id="Path_35" data-name="Path 35" d="M0-.014V0H.02V0h.02V-.031H0Z" transform="translate(0 0.031)" fill="#ffc82f"/>
    </g>
    <g id="Group_38" data-name="Group 38" transform="translate(0.435 0.017)">
      <path id="Path_36" data-name="Path 36" d="M.039-.014V-.031H.02v0H0V0H.02V0A.02.02,0,0,0,.039-.014Z" transform="translate(0 0.031)" fill="#ffc82f"/>
    </g>
    <g id="Group_39" data-name="Group 39" transform="translate(0.499 0.017)">
      <path id="Path_37" data-name="Path 37" d="M0,0H.039V-.014H.02V-.031H0ZM.02,0V0Z" transform="translate(0 0.031)" fill="#ffc82f"/>
    </g>
    <g id="Group_40" data-name="Group 40" transform="translate(0.543 0.017)">
      <path id="Path_38" data-name="Path 38" d="M.02-.014V-.031H0V0H.02Z" transform="translate(0 0.031)" fill="#ffc82f"/>
    </g>
    <g id="Group_41" data-name="Group 41" transform="translate(0.567 0.017)">
      <path id="Path_39" data-name="Path 39" d="M.02-.014v0ZM.02,0V-.014h.02c0-.013-.01-.017-.02-.017H0v.017Z" transform="translate(0 0.031)" fill="#ffc82f"/>
    </g>
    <g id="Group_42" data-name="Group 42" transform="translate(0.611 0)">
      <path id="Path_40" data-name="Path 40" d="M0,.019H.02V-.014H0V-.031Zm0,0H.02Z" transform="translate(0 0.031)" fill="#ffc82f"/>
    </g>
    <g id="Group_43" data-name="Group 43" transform="translate(0.631 0.017)">
      <path id="Path_41" data-name="Path 41" d="M.039-.014H.02V-.031c.01,0,.02,0,.02.017V-.031H0v.017L.02,0V-.014Z" transform="translate(0 0.031)" fill="#ffc82f"/>
    </g>
    <g id="Group_44" data-name="Group 44" transform="translate(0.67 0.017)">
      <path id="Path_42" data-name="Path 42" d="M.039,0V-.014H.02V-.031H0v.017L.02,0Z" transform="translate(0 0.031)" fill="#ffc82f"/>
    </g>
    <g id="Group_45" data-name="Group 45" transform="translate(0.704 0.017)">
      <path id="Path_43" data-name="Path 43" d="M.02,0V-.031H0V0Z" transform="translate(0 0.031)" fill="#ffc82f"/>
    </g>
  </g>
</svg>
