<svg xmlns="http://www.w3.org/2000/svg" width="680.937" height="536.5" viewBox="0 0 680.937 536.5">
  <g id="noun-olive-branch-1789832" opacity="0.6">
    <path id="Path_1" data-name="Path 1" d="M698.164,381.5a39.489,39.489,0,0,1,.337,4.589c.093,4.161-.024,9.9-.372,16.218v.01c-.362,6.331-.89,12.042-1.448,16.146a37.253,37.253,0,0,1-.851,4.516,21.375,21.375,0,0,0,1.81-4.68,86.258,86.258,0,0,0,1.8-31.97,21.413,21.413,0,0,0-1.272-4.852Zm-568.58,98.268a39.517,39.517,0,0,1,.068-4.6c.269-4.161.9-9.863,1.824-16.122v-.01c.924-6.273,1.952-11.917,2.876-15.963a38.19,38.19,0,0,1,1.252-4.44,21.8,21.8,0,0,0-2.221,4.507,86.525,86.525,0,0,0-4.642,31.687,21.5,21.5,0,0,0,.832,4.944Zm21.854-91.457a.656.656,0,0,1,.127-.024,218.506,218.506,0,0,0,26.951-15.858q1.908-1.476,3.854-2.889a.459.459,0,0,1,.093-.067q3-2.181,6.065-4.267l.01-.01a.808.808,0,0,1,.108-.067c2.676-1.814,5.385-3.566,8.11-5.284a43.732,43.732,0,0,1,.293-16.252c.269-1.387.572-2.75.934-4.06v-.024c2.382-11.351,8.413-26.719,16.176-39.127,4.373-6.983,9.3-13.05,14.478-16.971a132.723,132.723,0,0,0-21,7.031A103.178,103.178,0,0,0,167.4,321.38c2.094,1.939,2.651,5.515,1.849,9.9a43.539,43.539,0,0,1-6.765,15.493l-.01.024a44.279,44.279,0,0,1-11.734,12.273C146.6,361.8,142.7,362.642,140,360.991l-.01-.01-.083-.048c-2.7-1.733-3.493-5.606-2.607-10.482a43.538,43.538,0,0,1,6.765-15.493l.01-.024a44.28,44.28,0,0,1,11.734-12.273c3.6-2.376,7.014-3.326,9.616-2.443A105.441,105.441,0,0,1,206.7,288.4c2.935-1.272,5.9-2.433,8.883-3.465-6.975.71-13.52,1.056-19.835,1.123-.01,0-.01.01-.024.01-24.4,10.54-38.495,6.115-52.009,1.881a93.871,93.871,0,0,0-14.518-3.715,1.188,1.188,0,0,1-.773-.422,1.106,1.106,0,0,1,.2-1.569c20.49-15.676,30.958-11.745,46.762-5.793a135.947,135.947,0,0,0,24.295,7.257,1.215,1.215,0,0,1,.117.034,219.578,219.578,0,0,0,31.261-3.2c1.58-.365,3.155-.7,4.735-1.022.034-.01.068-.01.108-.024q3.661-.742,7.327-1.344h.01a1,1,0,0,0,.127-.024c3.2-.538,6.417-1,9.631-1.421a44.406,44.406,0,0,1,7.269-14.611c.841-1.157,1.707-2.246,2.592-3.293,0-.01.01-.01.01-.024,7.048-9.3,19.13-20.734,31.51-28.749,6.965-4.517,14.048-7.972,20.441-9.379a133.515,133.515,0,0,0-22.065-2.337,105.1,105.1,0,0,0-49.789,11.351c1.061,2.625.034,6.1-2.583,9.739a44.674,44.674,0,0,1-12.8,11.241l-.024.01a45.246,45.246,0,0,1-15.917,6.249c-4.93.758-8.834-.091-10.565-2.707l-.01-.01-.049-.082c-1.707-2.693-.758-6.537,2.152-10.583a44.673,44.673,0,0,1,12.8-11.241l.024-.01a45.246,45.246,0,0,1,15.917-6.249c4.275-.653,7.782-.106,9.768,1.766a107.447,107.447,0,0,1,51.119-11.73c3.2.058,6.393.24,9.548.552-6.628-2.246-12.7-4.656-18.455-7.214h-.024c-26.648-.571-37.527-10.425-47.94-19.861a91.656,91.656,0,0,0-11.549-9.378,1.086,1.086,0,0,1-.514-.7,1.119,1.119,0,0,1,.866-1.344c25.328-5.712,33.109,2.2,44.878,14.14a132.719,132.719,0,0,0,18.9,16.65.374.374,0,0,1,.093.082,219.455,219.455,0,0,0,29.711,10.07c1.59.322,3.155.677,4.735,1.032.034.01.068.01.108.024q3.632.842,7.224,1.824h.01c.049.01.083.024.127.034,3.13.85,6.251,1.757,9.338,2.693a45.361,45.361,0,0,1,12.879-10.228c1.262-.7,2.514-1.329,3.761-1.905.01,0,.01-.01.024-.01,10.4-5.505,26.271-10.847,40.94-12.992,8.262-1.2,16.161-1.4,22.568-.024a132.719,132.719,0,0,0-18.993-11.274,105.15,105.15,0,0,0-50.019-10.358c-.161,2.822-2.592,5.539-6.545,7.751a45.474,45.474,0,0,1-16.43,4.872l-.024.01a45.489,45.489,0,0,1-17.12-.931c-4.793-1.363-7.958-3.739-8.4-6.835v-.01l-.01-.091c-.386-3.144,2.128-6.24,6.51-8.692a45.474,45.474,0,0,1,16.43-4.872h.024a45.49,45.49,0,0,1,17.12.931c4.163,1.181,7.092,3.129,8.085,5.654a107.406,107.406,0,0,1,51.378,10.574c2.886,1.387,5.679,2.865,8.413,4.449-5.038-4.78-9.514-9.484-13.618-14.188-.01,0-.01-.01-.024-.01-23.914-11.572-29.519-25.01-34.885-37.888a88.713,88.713,0,0,0-6.427-13.29,1.078,1.078,0,0,1-.161-.85,1.138,1.138,0,0,1,1.355-.859c25.406,5.332,29.064,15.724,34.582,31.433a129.474,129.474,0,0,0,9.959,22.923.85.85,0,0,1,.059.115A215.261,215.261,0,0,0,423.876,199.5c1.3.95,2.573,1.915,3.845,2.9.034.024.059.048.083.067q2.927,2.268,5.762,4.646l.01.01c.034.024.068.058.108.082,2.48,2.064,4.911,4.185,7.3,6.321a46.241,46.241,0,0,1,16.083-3.936c1.438-.115,2.852-.158,4.231-.173h.024c11.793-.677,28.482,1.056,42.692,5.208,8.007,2.328,15.252,5.448,20.466,9.335a127.675,127.675,0,0,0-12.356-18.085,103.27,103.27,0,0,0-40.868-30.128c-1.37,2.477-4.745,3.945-9.269,4.31A45.651,45.651,0,0,1,445,177.67l-.024-.01a44.95,44.95,0,0,1-15.109-7.948c-3.761-3.221-5.61-6.7-4.676-9.681v-.01l.024-.082c1-3,4.617-4.771,9.641-5.184a45.453,45.453,0,0,1,16.992,2.395l.024.01a44.95,44.95,0,0,1,15.109,7.948c3.263,2.8,5.082,5.779,4.9,8.476a105.624,105.624,0,0,1,42.017,30.881c2.02,2.443,3.913,4.968,5.7,7.521-2.514-6.422-4.534-12.546-6.232-18.507l-.024-.024c-16.689-20.4-15.975-34.908-15.31-48.808a89.613,89.613,0,0,0-.093-14.716,1.046,1.046,0,0,1,.22-.835,1.151,1.151,0,0,1,1.6-.216c20.735,15.369,19.565,26.307,17.8,42.823a129.343,129.343,0,0,0-.851,24.91v.125a210.872,210.872,0,0,0,11.231,28.8c.758,1.4,1.507,2.808,2.23,4.219a.886.886,0,0,1,.049.091c1.12,2.179,2.186,4.382,3.223,6.595l.01.01c.024.034.034.082.059.115q2.032,4.356,3.894,8.75a46.358,46.358,0,0,1,16.268,3.11c1.355.494,2.651,1.032,3.9,1.608.01,0,.01.01.024.01,10.976,4.276,25.362,12.776,36.45,22.419,6.251,5.438,11.475,11.26,14.528,16.938a127.153,127.153,0,0,0-3.4-21.512,100.912,100.912,0,0,0-24.066-44.253c-2.3,1.685-6,1.608-10.247.067a45.225,45.225,0,0,1-14.375-9.22l-.024-.01A43.97,43.97,0,0,1,546.19,201.01c-2.02-4.473-2.2-8.395-.059-10.713l.01-.01.059-.067c2.211-2.3,6.241-2.409,10.976-.7a45.226,45.226,0,0,1,14.375,9.22l.024.01a43.972,43.972,0,0,1,10.272,13.463c1.751,3.888,2.113,7.353.783,9.714A103.163,103.163,0,0,1,607.4,267.341c.773,3.053,1.414,6.124,1.927,9.187.489-6.868,1.3-13.247,2.314-19.357,0-.01,0-.024-.01-.024-6.334-25.4.548-38.268,7.151-50.574a89.84,89.84,0,0,0,6.251-13.382,1.146,1.146,0,0,1,2.1-.206c12.18,22.525,6.4,31.951-2.3,46.192a130.642,130.642,0,0,0-11.5,22.227,1.162,1.162,0,0,1-.049.115,208.558,208.558,0,0,0-2.221,30.756c.093,1.584.152,3.163.2,4.761v.106c.068,2.443.093,4.886.083,7.315v.134q-.037,4.781-.245,9.551a45.581,45.581,0,0,1,13.407,9.551c1.017,1.008,1.961,2.04,2.852,3.072l.024.024c8.11,8.428,17.482,22.088,23.386,35.436,3.331,7.521,5.552,14.966,5.865,21.377a126.656,126.656,0,0,0,6.183-20.916,99.539,99.539,0,0,0-2.759-50.094c-2.817.571-6.124-1.032-9.328-4.185a43.555,43.555,0,0,1-9.044-14.322l-.01-.024a43.4,43.4,0,0,1-3.517-16.467c.093-4.9,1.624-8.519,4.559-9.738l.01-.01.083-.034c2.993-1.181,6.7.4,10.247,3.921a43.557,43.557,0,0,1,9.044,14.322l.01.024a43.4,43.4,0,0,1,3.517,16.467c-.083,4.252-1.252,7.535-3.473,9.129a101.739,101.739,0,0,1,2.886,51.432q-.932,4.629-2.211,9.129c3.4-6.019,6.882-11.466,10.438-16.583v-.024c5.2-25.654,16.982-34.452,28.257-42.879a92.606,92.606,0,0,0,11.431-9.532,1.2,1.2,0,0,1,.792-.379,1.14,1.14,0,0,1,1.2,1.066c1.33,25.458-7.958,31.615-21.982,40.907a134.144,134.144,0,0,0-20,15.369.707.707,0,0,1-.093.082,211.788,211.788,0,0,0-15.262,26.959c-.6,1.478-1.228,2.937-1.859,4.392a.4.4,0,0,1-.049.106c-.983,2.246-2.02,4.459-3.072,6.662v.01a.289.289,0,0,1-.059.115c-1.389,2.88-2.842,5.736-4.334,8.553a44.593,44.593,0,0,1,8.027,14.221c.479,1.329.9,2.659,1.262,3.969,0,.01,0,.01.01.024,3.717,11,6.325,27.271,5.923,41.814-.22,8.188-1.414,15.872-3.894,21.814a130.246,130.246,0,0,0,14.611-16.386,100.507,100.507,0,0,0,19.071-46.537c-2.793-.653-5.107-3.475-6.652-7.66a43.165,43.165,0,0,1-2.035-16.731v-.024a43.215,43.215,0,0,1,3.9-16.376c2.2-4.392,5.141-7.041,8.32-6.94h.1c3.223.173,5.889,3.144,7.6,7.8a43.164,43.164,0,0,1,2.035,16.731v.024a43.024,43.024,0,0,1-3.913,16.376c-1.9,3.821-4.383,6.321-7.083,6.835a102.771,102.771,0,0,1-19.532,47.824q-2.839,3.816-5.923,7.363c5.679-4.037,11.172-7.545,16.6-10.7,0-.01.01-.01.01-.024,15.765-21.09,30.234-24.186,44.086-27.132a92.712,92.712,0,0,0,14.459-3.9,1.187,1.187,0,0,1,.89-.01,1.112,1.112,0,0,1,.631,1.454c-9.758,23.624-20.828,25.357-37.551,27.958a135.5,135.5,0,0,0-24.741,5.644l-.117.034A216.007,216.007,0,0,0,658.9,492.634c-1.179,1.089-2.372,2.155-3.576,3.211a1.018,1.018,0,0,1-.083.067c-1.859,1.627-3.752,3.211-5.654,4.761l-.01.01a.574.574,0,0,1-.108.082c-2.92,2.376-5.889,4.665-8.883,6.916a1.149,1.149,0,0,1-1.6-.206,1.1,1.1,0,0,1,.21-1.569c2.969-2.227,5.914-4.507,8.814-6.868,2.138-1.939,4.255-3.782,6.325-5.539,4.51-5.711,6.51-15.56,6.814-26.432a131.338,131.338,0,0,0-2.289-27.18c-.6,3.921-2.23,6.71-4.862,7.627l-.176.058h-.01c-3,.917-6.554-.816-9.885-4.392a43.763,43.763,0,0,1-8.438-14.677,43.01,43.01,0,0,1-2.827-16.616c.3-4.944,2.02-8.519,5.063-9.575l.176-.058h.01c2.632-.8,5.669.422,8.623,3.129,1.355-2.582,2.676-5.184,3.938-7.809,1.11-2.64,2.221-5.184,3.341-7.651,1.639-7.051-.792-16.8-5.214-26.777a133.624,133.624,0,0,0-13.779-23.691c1.145,3.8.866,7.007-1.12,8.922l-.137.134c-2.323,2.088-6.285,1.982-10.844.115a44.912,44.912,0,0,1-13.964-9.791,43.835,43.835,0,0,1-9.724-13.886c-1.849-4.612-1.849-8.567.47-10.78l.137-.134c2.035-1.824,5.317-1.973,9.161-.734.117-2.9.186-5.8.21-8.716-.127-2.856-.22-5.62-.259-8.313-1.555-7.065-7.958-14.9-16.258-22.112A136.631,136.631,0,0,0,569.8,258.4c2.676,2.971,3.81,6,2.827,8.553l-.068.173-.01.01c-1.213,2.856-4.852,4.406-9.783,4.612a45.545,45.545,0,0,1-16.889-3.086,44.825,44.825,0,0,1-14.787-8.553c-3.659-3.408-5.351-6.993-4.221-9.964l.068-.173.01-.01c1.061-2.5,3.972-3.988,7.992-4.473-1.145-2.673-2.323-5.342-3.566-7.991-1.355-2.534-2.617-5.011-3.82-7.43-4.451-5.755-13.628-10.194-24.261-13.29a138.547,138.547,0,0,0-27.348-4.862c3.7,1.584,6.031,3.854,6.251,6.58l.01.182v.01c.127,3.086-2.49,6-6.882,8.236a50.374,50.374,0,0,1-33.716,2.592c-4.779-1.569-7.865-4.118-8.125-7.281l-.01-.182v-.01c-.117-2.693,1.883-5.265,5.317-7.363-2.186-1.949-4.407-3.878-6.672-5.755q-3.47-2.6-6.662-5.15c-6.51-3.369-16.748-3.59-27.71-2a139.5,139.5,0,0,0-26.878,6.926c4.045-.106,7.127.984,8.5,3.369l.093.158v.01c1.448,2.741.328,6.47-2.69,10.31A44.726,44.726,0,0,1,363.5,233.268a45.456,45.456,0,0,1-16.186,5.62c-5.014.562-8.907-.47-10.5-3.235l-.093-.158v-.01c-1.262-2.395-.562-5.548,1.648-8.875-2.827-.859-5.669-1.685-8.531-2.453q-4.263-.914-8.252-1.906c-7.352-.355-16.723,3.691-25.968,9.69a136,136,0,0,0-21.375,17.433c3.61-1.766,6.882-2.054,9.152-.47l.152.106.01.01c2.49,1.881,3.086,5.736,2,10.458a43.5,43.5,0,0,1-7.41,15.205,44.261,44.261,0,0,1-12.248,11.8c-4.3,2.592-8.276,3.269-10.9,1.421l-.152-.106-.01-.01c-2.186-1.651-2.9-4.8-2.323-8.726-2.935.389-5.855.826-8.79,1.32q-4.263.943-8.3,1.7c-6.823,2.731-13.569,10.276-19.365,19.554A133.24,133.24,0,0,0,204.189,326.3c2.514-3.11,5.351-4.723,8.1-4.219l.176.034.01.01c3.072.677,5.258,3.921,6.325,8.649a47.782,47.782,0,0,1-6.183,32.628c-2.783,4.128-6.09,6.388-9.269,5.812l-.176-.034-.01-.01c-2.69-.586-4.7-3.144-5.865-6.95q-3.735,2.354-7.4,4.838-3.456,2.614-6.789,4.977c-5,5.3-7.865,14.941-9.127,25.745a132.071,132.071,0,0,0-.142,27.271c.949-3.854,2.817-6.5,5.517-7.18l.176-.048h.01c3.072-.667,6.452,1.363,9.455,5.217a43.65,43.65,0,0,1,7.107,15.344,43.186,43.186,0,0,1,1.345,16.789c-.748,4.9-2.768,8.313-5.9,9.119l-.176.048h-.01c-3.072.667-6.452-1.363-9.455-5.217a43.651,43.651,0,0,1-7.107-15.344c-.362-1.377-.665-2.731-.9-4.06,0-.01,0-.01-.01-.024-2.724-11.274-3.879-27.709-2.2-42.169.949-8.14,2.817-15.691,5.806-21.387a129.631,129.631,0,0,0-16.009,15.08,100.878,100.878,0,0,0-23.14,44.722c2.724.883,4.779,3.9,5.938,8.2a43.025,43.025,0,0,1,.538,16.847v.024A43.278,43.278,0,0,1,139.478,477c-2.583,4.185-5.752,6.58-8.907,6.192h-.01l-.093-.01c-3.189-.446-5.586-3.633-6.872-8.419a43.025,43.025,0,0,1-.538-16.847V457.9a43.278,43.278,0,0,1,5.351-15.988c2.245-3.633,4.921-5.918,7.655-6.206a103.092,103.092,0,0,1,23.7-45.961c2.1-2.376,4.3-4.646,6.554-6.825-6.021,3.542-11.8,6.561-17.482,9.23l-.024.024c-17.579,19.669-32.269,21.5-46.326,23.269a93.453,93.453,0,0,0-14.747,2.649,1.128,1.128,0,0,1-1.365-1.579c11.818-22.706,23-23.474,39.888-24.647a136.988,136.988,0,0,0,25.151-3.5ZM198.89,358.85a1.155,1.155,0,0,1,.783.5,1.109,1.109,0,0,1-.328,1.536,13.776,13.776,0,0,0,1.624,3.878,26.052,26.052,0,0,1-.421-3.936,88.241,88.241,0,0,1,6.075-32.066,24.856,24.856,0,0,1,1.834-3.533,14.724,14.724,0,0,0-3.492,3.83,37.544,37.544,0,0,0-4.745,10.9v.024a.534.534,0,0,1-.049.149c-.337,1.248-.641,2.558-.89,3.888a42.391,42.391,0,0,0-.4,14.84Zm-56.05,33.52c-6.065.974-11.475,1.354-16.386,1.685-15.53,1.066-25.993,1.8-36.793,21.157a114.179,114.179,0,0,1,12.586-2.064c12.62-1.584,25.767-3.235,41.151-18.564-10.331,4.555-20.466,8.155-31.133,11.961q-3.434,1.224-6.956,2.486a1.154,1.154,0,0,1-1.472-.677,1.129,1.129,0,0,1,.69-1.445q3.522-1.274,6.956-2.486c10.751-3.83,20.945-7.463,31.358-12.066Zm-5.679,46.71a1.191,1.191,0,0,1-.421.082c-.245,1.008-.582,2.453-.983,4.209-.924,4.046-1.952,9.643-2.862,15.858v.01c-.91,6.225-1.531,11.893-1.81,16.011-.186,2.8-.3,4.8-.318,5.63.024,0,.049.01.068.01s.049.01.068.01c.22-.8.68-2.75,1.311-5.491.924-4.046,1.952-9.643,2.862-15.858v-.01c.91-6.225,1.531-11.893,1.81-16.011.127-1.881.22-3.408.269-4.449Zm-3.424-.034a14.833,14.833,0,0,0-3.331,3.969,41.328,41.328,0,0,0-5.048,15.172v.024a40.753,40.753,0,0,0,.5,15.93,14.6,14.6,0,0,0,2.059,4.713,24.9,24.9,0,0,1-.582-3.921,77.9,77.9,0,0,1,.851-16.353,78.717,78.717,0,0,1,3.869-15.93,24.439,24.439,0,0,1,1.683-3.6Zm.5,40.7a14.836,14.836,0,0,0,3.331-3.969,41.328,41.328,0,0,0,5.048-15.172v-.024a40.754,40.754,0,0,0-.5-15.93,14.6,14.6,0,0,0-2.059-4.713,24.9,24.9,0,0,1,.582,3.921,77.9,77.9,0,0,1-.851,16.353,78.714,78.714,0,0,1-3.869,15.93,25.49,25.49,0,0,1-1.683,3.6Zm4.148-40.725a39.5,39.5,0,0,1-.068,4.6c-.269,4.161-.9,9.863-1.824,16.122v.01c-.924,6.273-1.952,11.917-2.876,15.963a38.2,38.2,0,0,1-1.252,4.44,21.8,21.8,0,0,0,2.221-4.507,77.032,77.032,0,0,0,3.8-15.633,76.348,76.348,0,0,0,.841-16.054,21.5,21.5,0,0,0-.832-4.944Zm37.771.091a.85.85,0,0,1,.024.149c.235,1.272.528,2.582.866,3.9a41.422,41.422,0,0,0,6.706,14.528,14.737,14.737,0,0,0,3.752,3.576,25.39,25.39,0,0,1-2.079-3.393,88.223,88.223,0,0,1-8.31-31.6,25.568,25.568,0,0,1,.142-3.955,14.853,14.853,0,0,0-1.521,4.92,37.19,37.19,0,0,0,.4,11.836l.01.024Zm13.266,22.376a38.153,38.153,0,0,1-1.741-4.276c-1.37-3.921-3.028-9.427-4.642-15.56s-2.876-11.721-3.61-15.825a35.4,35.4,0,0,1-.582-4.564,21.322,21.322,0,0,0-.279,5,86.962,86.962,0,0,0,8.149,30.985,21.364,21.364,0,0,0,2.71,4.243Zm-.386-4.723c.924,2.659,1.614,4.54,1.917,5.323a.118.118,0,0,0,.068-.024.285.285,0,0,0,.068-.024c-.117-.826-.455-2.8-.949-5.572-.739-4.07-1.986-9.633-3.59-15.724s-3.248-11.538-4.617-15.46c-.924-2.649-1.614-4.54-1.917-5.323a.118.118,0,0,0-.068.024.285.285,0,0,0-.068.024c.117.826.455,2.8.949,5.572.739,4.07,1.986,9.633,3.59,15.724S187.669,452.845,189.039,456.767Zm-7.469-36.194a38.153,38.153,0,0,1,1.741,4.276c1.37,3.921,3.028,9.427,4.642,15.56s2.876,11.721,3.61,15.824a35.385,35.385,0,0,1,.582,4.564,21.372,21.372,0,0,0,.279-5,86.96,86.96,0,0,0-8.149-30.985,21.364,21.364,0,0,0-2.71-4.243Zm1.9.206a25.39,25.39,0,0,1,2.079,3.393,78.511,78.511,0,0,1,5.635,15.426,77.774,77.774,0,0,1,2.676,16.17,24.409,24.409,0,0,1-.142,3.955,14.853,14.853,0,0,0,1.521-4.92,40.733,40.733,0,0,0-1.3-15.906,41.424,41.424,0,0,0-6.706-14.528,14.739,14.739,0,0,0-3.752-3.576ZM140.511,357.51a39.645,39.645,0,0,1,2.045-4.142c2.045-3.657,5.063-8.567,8.589-13.851v-.01c3.541-5.308,6.9-9.988,9.479-13.281a37.725,37.725,0,0,1,3.038-3.5,22.069,22.069,0,0,0-3.952,3.163,87.934,87.934,0,0,0-17.858,26.787,21.414,21.414,0,0,0-1.37,4.819Zm114.9-80.85a1.105,1.105,0,0,1,.489.778,1.119,1.119,0,0,1-.959,1.248,13.456,13.456,0,0,0-.2,4.185,24.661,24.661,0,0,1,1.321-3.739,89.408,89.408,0,0,1,19.316-26.538,25.64,25.64,0,0,1,3.179-2.433,15.278,15.278,0,0,0-4.813,2.021,38.444,38.444,0,0,0-8.985,7.9l-.01.024a.621.621,0,0,1-.108.115c-.851,1-1.683,2.054-2.49,3.153a42.982,42.982,0,0,0-6.755,13.281Zm-65.236,7.132c-5.914-1.627-10.976-3.533-15.578-5.265-14.537-5.472-24.335-9.153-42.457,3.921a110.458,110.458,0,0,1,12.3,3.35c12.121,3.806,24.756,7.751,45.289.24-11.324-.158-22.055-1.09-33.368-2.073-2.431-.206-4.886-.422-7.376-.629a1.123,1.123,0,1,1,.2-2.237c2.49.206,4.945.422,7.376.629,11.4.984,22.193,1.925,33.614,2.064ZM164.9,323.769a1.354,1.354,0,0,1-.421-.106c-.655.816-1.58,1.982-2.71,3.408-2.583,3.278-5.924,7.934-9.421,13.189v.01c-3.507,5.265-6.51,10.137-8.531,13.76-1.379,2.467-2.338,4.233-2.71,4.977a.1.1,0,0,1,.059.048.207.207,0,0,1,.059.034c.548-.643,1.8-2.213,3.551-4.44,2.583-3.278,5.923-7.934,9.421-13.189v-.01c3.507-5.265,6.51-10.137,8.531-13.76.924-1.651,1.658-2.995,2.162-3.921Zm-3.086-1.454a15.133,15.133,0,0,0-4.72,2.213,42,42,0,0,0-11.1,11.654l-.01.024a41.247,41.247,0,0,0-6.4,14.634,14.708,14.708,0,0,0-.176,5.126,25.083,25.083,0,0,1,1.159-3.8,78.765,78.765,0,0,1,7.816-14.47,79.925,79.925,0,0,1,10.365-12.834,26.638,26.638,0,0,1,3.072-2.568Zm-17.076,37.1a15.134,15.134,0,0,0,4.72-2.213,42,42,0,0,0,11.1-11.654l.01-.024a41.248,41.248,0,0,0,6.4-14.634,14.711,14.711,0,0,0,.176-5.126,25.092,25.092,0,0,1-1.159,3.8,78.765,78.765,0,0,1-7.816,14.47,80.728,80.728,0,0,1-10.365,12.834,25.694,25.694,0,0,1-3.072,2.568Zm21.292-35.182a39.648,39.648,0,0,1-2.045,4.142c-2.045,3.657-5.063,8.567-8.589,13.851v.01c-3.541,5.308-6.9,9.988-9.479,13.281a37.732,37.732,0,0,1-3.038,3.5,22.069,22.069,0,0,0,3.952-3.163,78.481,78.481,0,0,0,10.179-12.589,78.278,78.278,0,0,0,7.679-14.2,21.414,21.414,0,0,0,1.37-4.819ZM202.6,365.755a37.07,37.07,0,0,1,.269-4.6c.445-4.128,1.311-9.791,2.49-16.031,1.179-6.216,2.441-11.812,3.541-15.839a36.762,36.762,0,0,1,1.438-4.382,21.411,21.411,0,0,0-2.407,4.416,76.993,76.993,0,0,0-4.451,15.469,75.6,75.6,0,0,0-1.507,16,20.355,20.355,0,0,0,.631,4.968Zm1.692-4.44c-.3,2.789-.5,4.78-.548,5.62.024,0,.049.01.068.01s.049.01.068.01c.259-.792.792-2.731,1.541-5.438,1.086-3.988,2.348-9.551,3.517-15.734s2.035-11.8,2.48-15.915c.3-2.789.5-4.78.548-5.62-.024,0-.049-.01-.068-.01s-.049-.01-.068-.01c-.259.792-.792,2.731-1.541,5.438-1.086,3.988-2.348,9.551-3.517,15.734S204.739,357.2,204.293,361.316Zm8.824-35.906a37.059,37.059,0,0,1-.269,4.6c-.445,4.128-1.311,9.791-2.49,16.031-1.179,6.216-2.441,11.812-3.541,15.839a36.765,36.765,0,0,1-1.438,4.382,21.412,21.412,0,0,0,2.407-4.416,77,77,0,0,0,4.451-15.469,75.606,75.606,0,0,0,1.506-16,20.353,20.353,0,0,0-.631-4.968Zm1.639.984a26.068,26.068,0,0,1,.421,3.936,88.245,88.245,0,0,1-6.075,32.066,24.856,24.856,0,0,1-1.834,3.533,14.724,14.724,0,0,0,3.493-3.83,41.268,41.268,0,0,0,5.679-14.956,40.828,40.828,0,0,0,.176-15.954,14.555,14.555,0,0,0-1.859-4.795Zm-11.685-75.162a38.41,38.41,0,0,1,3.644-2.9c3.424-2.467,8.276-5.664,13.754-8.99h.01c5.493-3.35,10.556-6.192,14.318-8.1a41,41,0,0,1,4.265-1.915,22.445,22.445,0,0,0-4.945,1.229,79.933,79.933,0,0,0-14.644,7.19,78.637,78.637,0,0,0-13.065,9.69,21.864,21.864,0,0,0-3.321,3.806ZM342.013,225.6a1.105,1.105,0,0,1,.108.917,1.142,1.142,0,0,1-1.414.734,13.245,13.245,0,0,0-1.976,3.715,24.639,24.639,0,0,1,2.8-2.846,91.838,91.838,0,0,1,28.937-16.045,26.641,26.641,0,0,1,3.938-.893,15.313,15.313,0,0,0-5.224-.158,39.346,39.346,0,0,0-11.549,3.441l-.024.01a.589.589,0,0,1-.142.058c-1.193.552-2.407,1.157-3.61,1.833a43.771,43.771,0,0,0-11.837,9.244Zm-62.2-20.586c-4.661-3.936-8.428-7.751-11.852-11.226C257.138,182.8,249.85,175.406,227.8,179.731a110.227,110.227,0,0,1,9.7,8.14c9.347,8.476,19.086,17.293,40.94,19-10.189-4.852-19.517-10.137-29.349-15.709-2.1-1.19-4.241-2.409-6.417-3.633a1.113,1.113,0,0,1-.421-1.536,1.158,1.158,0,0,1,1.565-.413l6.417,3.633c9.9,5.62,19.281,10.953,29.578,15.815ZM239.691,230.77a1.159,1.159,0,0,1-.328-.264c-.949.47-2.289,1.138-3.928,1.973-3.752,1.906-8.79,4.737-14.224,8.049h-.01c-5.444,3.317-10.272,6.489-13.661,8.932-2.3,1.661-3.937,2.865-4.6,3.384a143.9,143.9,0,0,1,.068.115c.773-.355,2.592-1.262,5.131-2.544,3.752-1.905,8.79-4.737,14.224-8.049h.01c5.444-3.316,10.272-6.489,13.661-8.932,1.555-1.114,2.793-2.03,3.644-2.659Zm-2.172-2.6a15.358,15.358,0,0,0-5.234.048,42.92,42.92,0,0,0-15.09,5.961l-.024.01a42.225,42.225,0,0,0-12.106,10.607,14.986,14.986,0,0,0-2.363,4.574,24.141,24.141,0,0,1,2.69-2.956,91.469,91.469,0,0,1,28.233-17.2,24.824,24.824,0,0,1,3.894-1.042Zm-31.451,26.538a15.36,15.36,0,0,0,5.234-.048,42.919,42.919,0,0,0,15.09-5.961l.024-.01a42.225,42.225,0,0,0,12.106-10.607,14.984,14.984,0,0,0,2.362-4.574,24.146,24.146,0,0,1-2.69,2.956,80.739,80.739,0,0,1-13.31,9.873,81.157,81.157,0,0,1-14.924,7.329,24.823,24.823,0,0,1-3.894,1.042Zm34.455-23.063a38.426,38.426,0,0,1-3.644,2.9c-3.424,2.467-8.276,5.664-13.754,8.99h-.01c-5.493,3.35-10.556,6.192-14.318,8.1a40.992,40.992,0,0,1-4.265,1.915,22.445,22.445,0,0,0,4.945-1.229,79.929,79.929,0,0,0,14.644-7.19,78.625,78.625,0,0,0,13.065-9.69,21.86,21.86,0,0,0,3.321-3.806Zm15.262,52.8a38.258,38.258,0,0,1,2.221-4.046c2.186-3.556,5.41-8.337,9.161-13.5s7.3-9.69,10.037-12.892a42.44,42.44,0,0,1,3.189-3.384,21.97,21.97,0,0,0-4.089,3,78.61,78.61,0,0,0-10.693,12.167,77.44,77.44,0,0,0-8.262,13.876,20.932,20.932,0,0,0-1.565,4.761Zm3.448-3.326c-1.472,2.409-2.514,4.128-2.92,4.862.024.01.034.034.059.048s.034.024.059.034c.572-.619,1.893-2.145,3.742-4.291,2.7-3.163,6.241-7.684,9.969-12.8s6.916-9.849,9.1-13.405c1.472-2.409,2.514-4.128,2.92-4.862-.024-.01-.034-.034-.059-.048s-.034-.024-.059-.034c-.572.619-1.893,2.145-3.742,4.291-2.7,3.163-6.241,7.684-9.969,12.8S261.419,277.557,259.233,281.114Zm23.453-28.889a38.25,38.25,0,0,1-2.221,4.046c-2.186,3.556-5.41,8.337-9.161,13.5s-7.3,9.69-10.037,12.892a42.45,42.45,0,0,1-3.189,3.384,21.967,21.967,0,0,0,4.089-3A78.609,78.609,0,0,0,272.86,270.87a77.443,77.443,0,0,0,8.262-13.876,20.931,20.931,0,0,0,1.565-4.761Zm1.061,1.569a24.668,24.668,0,0,1-1.321,3.739,89.411,89.411,0,0,1-19.316,26.538,25.648,25.648,0,0,1-3.179,2.433,15.279,15.279,0,0,0,4.813-2.021,41.962,41.962,0,0,0,11.593-11.2,41.139,41.139,0,0,0,7.024-14.394,14.691,14.691,0,0,0,.386-5.116Zm21.786-72.959a43.156,43.156,0,0,1,4.544-1.123c4.162-.816,9.944-1.7,16.337-2.453h.01c6.417-.758,12.238-1.238,16.455-1.411a38.83,38.83,0,0,1,4.686.034,22.04,22.04,0,0,0-5.014-.931,91.391,91.391,0,0,0-32.4,3.806,22.643,22.643,0,0,0-4.642,2.064ZM442.5,215.228a1.109,1.109,0,0,1-.293.874,1.169,1.169,0,0,1-1.6.082,13.943,13.943,0,0,0-3.39,2.544,26.1,26.1,0,0,1,3.761-1.411,93.148,93.148,0,0,1,33.144-2.549,24.937,24.937,0,0,1,3.952.826,15.253,15.253,0,0,0-4.676-2.318,39.821,39.821,0,0,0-11.945-1.675h-.176c-1.321,0-2.676.058-4.065.158a44.466,44.466,0,0,0-14.7,3.465Zm-47.509-44.45c-2.534-5.491-4.3-10.526-5.9-15.09-5.072-14.437-8.5-24.176-30.35-29.393a109.212,109.212,0,0,1,5.292,11.4c4.828,11.557,9.851,23.59,28.928,34.2-7.151-8.625-13.324-17.283-19.835-26.412q-2.084-2.945-4.241-5.952a1.109,1.109,0,0,1,.279-1.56,1.158,1.158,0,0,1,1.59.274q2.157,3.009,4.241,5.952c6.554,9.2,12.761,17.927,20,26.6Zm-47.452,6.7a1.1,1.1,0,0,1-.186-.379c-1.061.034-2.558.082-4.407.158-4.221.173-10,.653-16.352,1.4h-.01c-6.369.744-12.106,1.617-16.235,2.433-2.8.552-4.8.965-5.635,1.157a.15.15,0,0,0,.01.067c0,.024.01.048.01.067.851,0,2.886-.067,5.752-.182,4.221-.173,10-.653,16.352-1.4h.01c6.368-.744,12.106-1.617,16.235-2.433,1.883-.365,3.414-.677,4.451-.893Zm-.851-3.259a15.353,15.353,0,0,0-4.769-2.131,43.236,43.236,0,0,0-16.235-.859l-.024.01a43.11,43.11,0,0,0-15.545,4.589A15.332,15.332,0,0,0,306,178.986a24.471,24.471,0,0,1,3.7-1.569,92.655,92.655,0,0,1,33-3.873,25.23,25.23,0,0,1,3.986.667Zm-39.933,11.01a15.352,15.352,0,0,0,4.769,2.131,43.236,43.236,0,0,0,16.235.859h.024a43.109,43.109,0,0,0,15.545-4.589,15.331,15.331,0,0,0,4.114-3.163,24.47,24.47,0,0,1-3.7,1.569,92.656,92.656,0,0,1-33,3.873,25.229,25.229,0,0,1-3.986-.667Zm41.161-6.6a43.157,43.157,0,0,1-4.544,1.123c-4.162.816-9.944,1.7-16.337,2.453h-.01c-6.417.758-12.238,1.238-16.469,1.411a38.83,38.83,0,0,1-4.686-.034,22.038,22.038,0,0,0,5.014.931,91.39,91.39,0,0,0,32.4-3.806,22.643,22.643,0,0,0,4.642-2.064Zm-8.907,54.174a37.853,37.853,0,0,1,3.761-2.75c3.507-2.318,8.5-5.308,14.116-8.428s10.8-5.755,14.644-7.511a40.535,40.535,0,0,1,4.348-1.742,22.7,22.7,0,0,0-5,1.032,80.618,80.618,0,0,0-14.939,6.595,79.272,79.272,0,0,0-13.466,9.153,21.756,21.756,0,0,0-3.473,3.672Zm4.559-1.584c-2.372,1.569-4.055,2.707-4.745,3.2.01.024.024.048.034.067a.2.2,0,0,0,.034.058c.783-.322,2.641-1.157,5.234-2.337,3.81-1.742,8.966-4.368,14.552-7.463,5.561-3.086,10.516-6.067,14.023-8.371,2.372-1.569,4.055-2.707,4.745-3.2-.01-.024-.024-.048-.034-.067a.2.2,0,0,0-.034-.058c-.783.322-2.641,1.157-5.234,2.337-3.81,1.742-8.966,4.368-14.552,7.463C352.026,225.927,347.071,228.907,343.564,231.211Zm33.691-16.444a37.86,37.86,0,0,1-3.761,2.75c-3.507,2.318-8.5,5.308-14.116,8.428s-10.8,5.755-14.644,7.511a40.55,40.55,0,0,1-4.348,1.742,22.7,22.7,0,0,0,5-1.032,80.619,80.619,0,0,0,14.939-6.595,79.27,79.27,0,0,0,13.466-9.153,21.754,21.754,0,0,0,3.473-3.672Zm.279,1.857a24.646,24.646,0,0,1-2.8,2.846,91.837,91.837,0,0,1-28.937,16.045,26.642,26.642,0,0,1-3.937.893,15.314,15.314,0,0,0,5.224.158,43.173,43.173,0,0,0,15.334-5.342A42.211,42.211,0,0,0,374.981,221.1a14.557,14.557,0,0,0,2.548-4.483Zm51.168-57.1a39.059,39.059,0,0,1,4.6.874c4.123.984,9.734,2.582,15.858,4.555h.01c6.134,1.973,11.617,3.955,15.521,5.548a41.1,41.1,0,0,1,4.231,1.973,21.2,21.2,0,0,0-4.138-2.923,90.9,90.9,0,0,0-31-9.988,22.423,22.423,0,0,0-5.1-.048ZM538.025,247.5a1.128,1.128,0,0,1-.641.667,1.157,1.157,0,0,1-1.482-.586,14.01,14.01,0,0,0-4.172.907,26.16,26.16,0,0,1,4.021.274,92.539,92.539,0,0,1,31.138,11.447,25.964,25.964,0,0,1,3.223,2.385,14.763,14.763,0,0,0-3.238-4.037,38.921,38.921,0,0,0-10.11-6.47l-.024-.01c-.049-.024-.093-.048-.142-.067q-1.8-.828-3.752-1.536a44.754,44.754,0,0,0-14.821-2.956Zm-23.914-59.99c.068-6.033.641-11.318,1.145-16.122,1.624-15.2,2.71-25.438-14.841-39.223a108.955,108.955,0,0,1-.117,12.522c-.607,12.479-1.228,25.471,11.49,42.98-2.768-10.78-4.627-21.18-6.594-32.158-.421-2.352-.841-4.737-1.286-7.156a1.119,1.119,0,0,1,.924-1.3,1.137,1.137,0,0,1,1.321.907c.445,2.419.866,4.795,1.286,7.156,1.976,11.054,3.854,21.536,6.662,32.4Zm-45.9-13.6a1.22,1.22,0,0,1-.01-.422c-.969-.413-2.362-.984-4.055-1.685-3.894-1.594-9.347-3.556-15.427-5.515h-.01c-6.1-1.963-11.676-3.556-15.755-4.531-2.783-.667-4.769-1.123-5.6-1.286a75279659820.735,75279659820.735,0,0,1-.049.134c.773.355,2.651,1.138,5.283,2.213,3.894,1.594,9.347,3.556,15.427,5.515h.01c6.1,1.963,11.676,3.557,15.755,4.531,1.868.446,3.38.8,4.432,1.032Zm.631-3.3a15.194,15.194,0,0,0-3.4-3.912,42.822,42.822,0,0,0-14.351-7.511h-.024A42.974,42.974,0,0,0,435,156.9a15.565,15.565,0,0,0-5.1,1.171,26.264,26.264,0,0,1,4.031.115,82.305,82.305,0,0,1,16.268,3.657,80.989,80.989,0,0,1,15.31,6.513,25.671,25.671,0,0,1,3.321,2.261Zm-40.94-6.58a15.194,15.194,0,0,0,3.4,3.912,42.821,42.821,0,0,0,14.351,7.511l.024.01a42.974,42.974,0,0,0,16.068,2.28,15.564,15.564,0,0,0,5.1-1.171,26.264,26.264,0,0,1-4.031-.115,82.306,82.306,0,0,1-16.268-3.657,80.994,80.994,0,0,1-15.31-6.513,25.67,25.67,0,0,1-3.321-2.261ZM468.05,175.1a39.059,39.059,0,0,1-4.6-.874c-4.123-.984-9.734-2.582-15.858-4.555h-.01c-6.134-1.973-11.617-3.955-15.521-5.548a41.107,41.107,0,0,1-4.231-1.973,21.2,21.2,0,0,0,4.138,2.923,90.9,90.9,0,0,0,31,9.988,22.422,22.422,0,0,0,5.1.048Zm-31.4,45.414a41.745,41.745,0,0,1,4.593-.941c4.182-.643,9.978-1.3,16.43-1.79,6.427-.494,12.272-.734,16.514-.734a40.359,40.359,0,0,1,4.686.23,22.246,22.246,0,0,0-4.979-1.138,91.4,91.4,0,0,0-32.513,2.491,22.437,22.437,0,0,0-4.735,1.881Zm4.813.446c-2.827.437-4.838.768-5.669.931v.082a.15.15,0,0,0,.01.067c.851.034,2.886.048,5.752.048,4.207,0,10-.24,16.4-.734s12.145-1.138,16.317-1.776c2.827-.437,4.838-.768,5.669-.931v-.082a.15.15,0,0,0-.01-.067c-.841-.034-2.886-.048-5.752-.048-4.207,0-10,.24-16.4.734S445.633,220.326,441.461,220.964Zm37.619-.941a41.743,41.743,0,0,1-4.593.941c-4.182.643-9.978,1.3-16.43,1.79-6.427.494-12.272.734-16.514.734a40.36,40.36,0,0,1-4.686-.23,22.246,22.246,0,0,0,4.979,1.138,91.4,91.4,0,0,0,32.513-2.491,22.436,22.436,0,0,0,4.735-1.881Zm-.538,1.8a26.094,26.094,0,0,1-3.761,1.411,93.149,93.149,0,0,1-33.144,2.549,24.939,24.939,0,0,1-3.952-.826,15.328,15.328,0,0,0,4.661,2.318,48.072,48.072,0,0,0,31.956-2.457,15.248,15.248,0,0,0,4.241-3ZM549.506,191.3a42.751,42.751,0,0,1,3.8,2.693c3.321,2.6,7.714,6.374,12.409,10.713l.01.01c4.71,4.334,8.834,8.4,11.676,11.466a38.183,38.183,0,0,1,2.979,3.542,21.255,21.255,0,0,0-2.49-4.368,78.3,78.3,0,0,0-10.869-12.018,80.068,80.068,0,0,0-12.913-9.887,21.968,21.968,0,0,0-4.6-2.155Zm61.2,125.07a1.215,1.215,0,0,1-.876.346,1.118,1.118,0,0,1-1.086-1.147,14.162,14.162,0,0,0-4.172-.917,26.268,26.268,0,0,1,3.532,1.925,90.578,90.578,0,0,1,23.293,23.283,24.4,24.4,0,0,1,1.893,3.5,14.7,14.7,0,0,0-1.193-5,38.132,38.132,0,0,0-6.369-10.055l-.024-.024a.962.962,0,0,1-.093-.115c-.851-.984-1.766-1.982-2.734-2.947a44.143,44.143,0,0,0-12.155-8.831Zm4.163-64.276c2.666-5.438,5.459-10,7.992-14.14,8.017-13.1,13.417-21.925,3.434-41.708a106.864,106.864,0,0,1-5.5,11.308c-5.923,11.054-12.086,22.568-8.1,43.715,2.128-10.919,4.93-21.123,7.875-31.879q.946-3.456,1.917-7.017a1.151,1.151,0,0,1,1.4-.792,1.125,1.125,0,0,1,.807,1.378c-.641,2.376-1.286,4.713-1.917,7.017-2.969,10.838-5.786,21.114-7.914,32.125Zm-35.741-31.365a1.08,1.08,0,0,1,.176-.379c-.7-.778-1.707-1.867-2.959-3.211-2.842-3.062-6.941-7.1-11.607-11.4l-.01-.01c-4.676-4.31-9.044-8.063-12.331-10.631-2.23-1.757-3.835-2.995-4.525-3.484a.257.257,0,0,0-.049.058c-.01.024-.034.034-.049.058.548.643,1.9,2.131,3.835,4.195,2.842,3.062,6.941,7.1,11.607,11.4l.01.01c4.676,4.31,9.044,8.063,12.331,10.631,1.5,1.181,2.724,2.131,3.566,2.774Zm2-2.731a14.606,14.606,0,0,0-1.4-4.953,41.564,41.564,0,0,0-9.768-12.753l-.024-.01a42.66,42.66,0,0,0-13.579-8.74,15.336,15.336,0,0,0-5.121-1.056,26,26,0,0,1,3.6,1.776,90.874,90.874,0,0,1,24.237,22.318A24.589,24.589,0,0,1,581.1,218Zm-34.269-22.937a14.609,14.609,0,0,0,1.4,4.953,41.563,41.563,0,0,0,9.768,12.753l.024.01a42.66,42.66,0,0,0,13.579,8.74,15.336,15.336,0,0,0,5.121,1.056,26,26,0,0,1-3.6-1.776,79.639,79.639,0,0,1-13.158-10.07,79.969,79.969,0,0,1-11.079-12.249,25.739,25.739,0,0,1-2.045-3.417Zm31.613,26.686a42.753,42.753,0,0,1-3.8-2.693c-3.321-2.6-7.714-6.374-12.409-10.713l-.01-.01c-4.71-4.334-8.834-8.4-11.676-11.466a38.194,38.194,0,0,1-2.979-3.542,21.257,21.257,0,0,0,2.49,4.368,78.3,78.3,0,0,0,10.869,12.018,80.062,80.062,0,0,0,12.912,9.887,21.969,21.969,0,0,0,4.6,2.155Zm-48.024,28.131a42.6,42.6,0,0,1,4.568,1.056c4.065,1.147,9.607,2.971,15.662,5.193s11.431,4.416,15.286,6.182a41.145,41.145,0,0,1,4.148,2.145,21.7,21.7,0,0,0-4.021-3.1,90.939,90.939,0,0,0-30.546-11.226,22.184,22.184,0,0,0-5.1-.254Zm4.163,2.409c-2.744-.778-4.72-1.32-5.542-1.512a.224.224,0,0,0-.024.067.273.273,0,0,1-.024.067c.748.379,2.592,1.248,5.19,2.433,3.81,1.742,9.176,3.936,15.183,6.134,5.982,2.2,11.49,4.012,15.555,5.16,2.744.778,4.72,1.32,5.542,1.512a.226.226,0,0,0,.024-.067.272.272,0,0,1,.024-.067c-.748-.379-2.592-1.248-5.19-2.433-3.81-1.742-9.176-3.936-15.183-6.134C544.179,255.241,538.671,253.432,534.606,252.285Zm34.5,14.759a42.61,42.61,0,0,1-4.568-1.056c-4.065-1.147-9.607-2.971-15.662-5.193s-11.431-4.416-15.285-6.182a41.14,41.14,0,0,1-4.148-2.145,21.706,21.706,0,0,0,4.021,3.1,90.938,90.938,0,0,0,30.546,11.226,22.185,22.185,0,0,0,5.1.254Zm-1.272,1.411a26.166,26.166,0,0,1-4.021-.274,92.543,92.543,0,0,1-31.138-11.447,25.963,25.963,0,0,1-3.223-2.385,14.762,14.762,0,0,0,3.238,4.037,42.484,42.484,0,0,0,14.023,8.083,43.211,43.211,0,0,0,15.975,2.937,15.159,15.159,0,0,0,5.141-.965Zm77.464,1.757a40.876,40.876,0,0,1,2.279,4.027c1.883,3.739,4.241,8.98,6.638,14.85v.01c2.407,5.884,4.383,11.274,5.645,15.238a36.9,36.9,0,0,1,1.179,4.449,21.212,21.212,0,0,0-.372-4.987,76.08,76.08,0,0,0-4.676-15.4,77.662,77.662,0,0,0-7.454-14.312,20.826,20.826,0,0,0-3.238-3.864Zm1.59,138.709a1.132,1.132,0,0,1-1.423-1.55,13.954,13.954,0,0,0-3.39-2.558,24.833,24.833,0,0,1,2.372,3.2,88.6,88.6,0,0,1,11.079,30.746,24.053,24.053,0,0,1,.21,3.955,14.858,14.858,0,0,0,1.076-5.025,37.244,37.244,0,0,0-1.448-11.754l-.01-.024a.914.914,0,0,1-.034-.149c-.338-1.248-.748-2.525-1.213-3.806a43.176,43.176,0,0,0-7.21-13.04Zm31.461-56.525c4.754-3.821,9.245-6.8,13.333-9.508,12.9-8.543,21.6-14.312,21.082-36.376a109.717,109.717,0,0,1-9.851,7.958c-10.135,7.569-20.676,15.445-26.178,36.262,6.638-9.014,13.559-17.1,20.871-25.63,1.565-1.833,3.155-3.681,4.754-5.563a1.167,1.167,0,0,1,1.614-.139,1.116,1.116,0,0,1,.142,1.584q-2.4,2.822-4.754,5.563c-7.361,8.591-14.341,16.731-21,25.836ZM659.473,309.15a1.044,1.044,0,0,1,.328-.274c-.3-1-.748-2.409-1.3-4.128-1.262-3.955-3.223-9.311-5.61-15.138v-.01c-2.382-5.851-4.735-11.054-6.594-14.749-1.262-2.51-2.186-4.31-2.592-5.035a.288.288,0,0,0-.068.024.235.235,0,0,1-.068.024c.22.8.817,2.717,1.673,5.4,1.262,3.955,3.223,9.311,5.61,15.138v.01c2.382,5.851,4.735,11.054,6.594,14.749.851,1.7,1.541,3.053,2.035,3.988Zm2.979-1.651a14.747,14.747,0,0,0,.866-5.068,40.954,40.954,0,0,0-3.365-15.608l-.01-.024a41.448,41.448,0,0,0-8.545-13.544,15.073,15.073,0,0,0-4.182-3.072,23.288,23.288,0,0,1,2.5,3.11,88.4,88.4,0,0,1,12.351,30.285,24.578,24.578,0,0,1,.372,3.945Zm-21.174-35a14.79,14.79,0,0,0-.866,5.068,41.107,41.107,0,0,0,3.355,15.608l.01.024a41.447,41.447,0,0,0,8.545,13.544,15.072,15.072,0,0,0,4.182,3.072,23.292,23.292,0,0,1-2.5-3.11,88.392,88.392,0,0,1-12.351-30.285,24.664,24.664,0,0,1-.372-3.945Zm17.159,37.307a40.885,40.885,0,0,1-2.279-4.027c-1.883-3.739-4.241-8.98-6.638-14.85v-.01c-2.407-5.884-4.383-11.274-5.645-15.238a36.907,36.907,0,0,1-1.179-4.449,21.223,21.223,0,0,0,.372,4.987,76.075,76.075,0,0,0,4.676,15.4,77.68,77.68,0,0,0,7.454,14.312,20.834,20.834,0,0,0,3.238,3.864Zm-55.645,5.587a38.5,38.5,0,0,1,3.683,2.856c3.189,2.731,7.42,6.676,11.955,11.2,4.51,4.516,8.462,8.75,11.187,11.937a38.517,38.517,0,0,1,2.842,3.672,21.269,21.269,0,0,0-2.314-4.473,78.35,78.35,0,0,0-10.355-12.455A79.319,79.319,0,0,0,607.3,317.741a21.534,21.534,0,0,0-4.51-2.337Zm2.734,3.912c-2.162-1.848-3.7-3.153-4.373-3.672-.024.01-.034.034-.059.048l-.049.048c.514.653,1.824,2.2,3.659,4.358,2.7,3.163,6.628,7.363,11.113,11.86s8.682,8.4,11.876,11.126c2.162,1.848,3.7,3.153,4.373,3.672.024-.01.034-.034.059-.048l.049-.048c-.514-.653-1.824-2.2-3.659-4.358-2.7-3.163-6.628-7.363-11.113-11.86S608.72,322.028,605.526,319.306Zm24.916,27.684a38.5,38.5,0,0,1-3.683-2.856c-3.189-2.731-7.42-6.676-11.954-11.2-4.51-4.517-8.462-8.75-11.187-11.937a38.508,38.508,0,0,1-2.842-3.672,21.275,21.275,0,0,0,2.314,4.473,78.347,78.347,0,0,0,10.355,12.455,79.319,79.319,0,0,0,12.493,10.391,21.529,21.529,0,0,0,4.51,2.337Zm-1.751.758a26.264,26.264,0,0,1-3.531-1.925,90.578,90.578,0,0,1-23.293-23.283,24.4,24.4,0,0,1-1.893-3.5,14.7,14.7,0,0,0,1.193,5,41.613,41.613,0,0,0,9.22,13.141,42.362,42.362,0,0,0,13.217,9.287,15.556,15.556,0,0,0,5.072,1.262Zm64,121.916c5.963-1.493,11.314-2.328,16.176-3.086,15.368-2.4,25.734-4.012,34.768-24.219a113.158,113.158,0,0,1-12.365,3.129c-12.434,2.659-25.386,5.424-39.336,22.006,9.885-5.414,19.658-9.873,29.955-14.576q3.316-1.512,6.706-3.072a1.151,1.151,0,0,1,1.521.538,1.112,1.112,0,0,1-.548,1.493q-3.4,1.562-6.706,3.072c-10.365,4.737-20.2,9.22-30.165,14.7Zm1.521-47.018a1.22,1.22,0,0,1,.411-.115c.152-1.032.362-2.486.607-4.276.563-4.1,1.086-9.782,1.438-16.046v-.01c.352-6.283.479-11.985.372-16.1-.068-2.808-.127-4.819-.186-5.644h-.137c-.152.816-.43,2.808-.817,5.587-.562,4.1-1.086,9.782-1.438,16.046v.01c-.352,6.283-.479,11.985-.372,16.1.049,1.891.083,3.408.127,4.459Zm3.414-.254a15.246,15.246,0,0,0,2.969-4.233,41.064,41.064,0,0,0,3.683-15.541v-.024a41.205,41.205,0,0,0-1.9-15.824,15.014,15.014,0,0,0-2.465-4.531,25.138,25.138,0,0,1,.934,3.854,87.945,87.945,0,0,1-1.834,32.571,24.586,24.586,0,0,1-1.355,3.729Zm-4.123-40.5a15.245,15.245,0,0,0-2.969,4.233,41.063,41.063,0,0,0-3.683,15.541v.024a41.205,41.205,0,0,0,1.9,15.824,14.746,14.746,0,0,0,2.465,4.516,25.137,25.137,0,0,1-.934-3.854,87.949,87.949,0,0,1,1.834-32.571,24.6,24.6,0,0,1,1.355-3.729Zm-.514,40.917a39.461,39.461,0,0,1-.338-4.588c-.093-4.161.024-9.9.372-16.218v-.01c.362-6.331.89-12.042,1.448-16.146a37.228,37.228,0,0,1,.851-4.516,21.368,21.368,0,0,0-1.81,4.68,86.253,86.253,0,0,0-1.8,31.97,21.407,21.407,0,0,0,1.272,4.852ZM640.16,404.788a38.376,38.376,0,0,1,2.113,4.1c1.717,3.8,3.854,9.129,6.007,15.1s3.9,11.433,5,15.46a39.646,39.646,0,0,1,.993,4.507,21.913,21.913,0,0,0-.161-5.011,86.707,86.707,0,0,0-10.869-30.186,21.306,21.306,0,0,0-3.072-3.988Zm.792,4.68c-1.159-2.568-2.01-4.392-2.382-5.136a182.841,182.841,0,0,0-.137.048c.186.816.7,2.75,1.438,5.472,1.086,3.988,2.827,9.426,4.965,15.354s4.255,11.217,5.972,15c1.159,2.568,2.01,4.392,2.382,5.136a260.638,260.638,0,0,1,.137-.048c-.186-.816-.7-2.75-1.438-5.472-1.086-3.988-2.827-9.427-4.965-15.354S642.669,413.249,640.952,409.467Zm10.658,35.426a38.376,38.376,0,0,1-2.113-4.1c-1.717-3.8-3.854-9.129-6.007-15.1s-3.9-11.433-5-15.46a39.661,39.661,0,0,1-.993-4.507,21.921,21.921,0,0,0,.161,5.011,86.707,86.707,0,0,0,10.869,30.186A21.3,21.3,0,0,0,651.6,444.9Zm-1.917-.048a24.833,24.833,0,0,1-2.372-3.2A88.6,88.6,0,0,1,636.242,410.9a24.054,24.054,0,0,1-.21-3.955,14.858,14.858,0,0,0-1.076,5.025,40.989,40.989,0,0,0,2.7,15.747,41.442,41.442,0,0,0,7.983,13.9,15.174,15.174,0,0,0,4.055,3.245Z" transform="translate(-86.248 28.585)" fill="#ffc82f"/>
    <g id="Group_4" data-name="Group 4" transform="translate(680.897 0.077)">
      <path id="Path_2" data-name="Path 2" d="M0-.031H.039V.007H.02V-.031H0v.019Z" transform="translate(0 0.031)" fill="#ffc82f"/>
    </g>
    <g id="Group_5" data-name="Group 5" transform="translate(680.873 0.077)">
      <path id="Path_3" data-name="Path 3" d="M0-.012V-.031H.02V.007H0Z" transform="translate(0 0.031)" fill="#ffc82f"/>
    </g>
    <g id="Group_6" data-name="Group 6" transform="translate(680.824 0.077)">
      <path id="Path_4" data-name="Path 4" d="M0-.012H.02V-.031A.018.018,0,0,0,0-.012V-.031H.039v.019L.02.007V-.012Z" transform="translate(0 0.031)" fill="#ffc82f"/>
    </g>
    <g id="Group_7" data-name="Group 7" transform="translate(680.785 0.077)">
      <path id="Path_5" data-name="Path 5" d="M.02-.012v0ZM0-.012V-.031H.039v.019h0V.007H.02V-.012Z" transform="translate(0 0.031)" fill="#ffc82f"/>
    </g>
    <g id="Group_8" data-name="Group 8" transform="translate(680.765 0.077)">
      <path id="Path_6" data-name="Path 6" d="M0,.007V-.031H.02V.007Z" transform="translate(0 0.031)" fill="#ffc82f"/>
    </g>
    <g id="Group_9" data-name="Group 9" transform="translate(680.716 0.077)">
      <path id="Path_7" data-name="Path 7" d="M0-.012H.02V-.031A.018.018,0,0,0,0-.012V-.031H.039v.019L.02.007V-.012Z" transform="translate(0 0.031)" fill="#ffc82f"/>
    </g>
    <g id="Group_10" data-name="Group 10" transform="translate(680.677 0.077)">
      <path id="Path_8" data-name="Path 8" d="M.02-.012V.007H0V-.031H.039v.019L.02.007Zm0-.019v0Z" transform="translate(0 0.031)" fill="#ffc82f"/>
    </g>
    <g id="Group_11" data-name="Group 11" transform="translate(680.619 0.077)">
      <path id="Path_9" data-name="Path 9" d="M.02-.031v0Zm0,.019V.007A.021.021,0,0,1,0-.012V-.031H.039V.007H.02Z" transform="translate(0 0.031)" fill="#ffc82f"/>
    </g>
    <g id="Group_12" data-name="Group 12" transform="translate(680.575 0.058)">
      <path id="Path_10" data-name="Path 10" d="M.039.026H.02v0H0L.02-.012V-.031h.02v.019H.02Z" transform="translate(0 0.031)" fill="#ffc82f"/>
    </g>
    <g id="Group_13" data-name="Group 13" transform="translate(680.516 0.077)">
      <path id="Path_11" data-name="Path 11" d="M.02.007V-.031H0v.019A.021.021,0,0,0,.02.007Zm0,0H0V-.031H.039V.007Z" transform="translate(0 0.031)" fill="#ffc82f"/>
    </g>
    <g id="Group_14" data-name="Group 14" transform="translate(680.486 0.077)">
      <path id="Path_12" data-name="Path 12" d="M.02.007H0V-.031H.02Z" transform="translate(0 0.031)" fill="#ffc82f"/>
    </g>
    <g id="Group_15" data-name="Group 15" transform="translate(680.447 0.077)">
      <path id="Path_13" data-name="Path 13" d="M0-.012H.02V-.031A.018.018,0,0,0,0-.012V-.031H.039v.019L.02.007V-.012Z" transform="translate(0 0.031)" fill="#ffc82f"/>
    </g>
    <g id="Group_16" data-name="Group 16" transform="translate(680.408 0.077)">
      <path id="Path_14" data-name="Path 14" d="M0-.012V-.031H.02v0h.02V.007H.02v0A.021.021,0,0,1,0-.012Z" transform="translate(0 0.031)" fill="#ffc82f"/>
    </g>
    <g id="Group_17" data-name="Group 17" transform="translate(680.364 0.077)">
      <path id="Path_15" data-name="Path 15" d="M.02-.012v0ZM0-.012V-.031H.039v.019h0V.007H.02V-.012Z" transform="translate(0 0.031)" fill="#ffc82f"/>
    </g>
    <g id="Group_18" data-name="Group 18" transform="translate(680.305 0.077)">
      <path id="Path_16" data-name="Path 16" d="M.039.007H0V-.012H.02V-.031h.02Zm-.02,0v0Z" transform="translate(0 0.031)" fill="#ffc82f"/>
    </g>
    <g id="Group_19" data-name="Group 19" transform="translate(680.262 0.077)">
      <path id="Path_17" data-name="Path 17" d="M.02-.012v0ZM0-.012V-.031H.039v.019h0V.007H.02V-.012Z" transform="translate(0 0.031)" fill="#ffc82f"/>
    </g>
    <g id="Group_20" data-name="Group 20" transform="translate(680.222 0.077)">
      <path id="Path_18" data-name="Path 18" d="M0-.012V-.031H.02v0h.02V.007H.02v0A.021.021,0,0,1,0-.012Z" transform="translate(0 0.031)" fill="#ffc82f"/>
    </g>
    <g id="Group_21" data-name="Group 21" transform="translate(680.183 0.077)">
      <path id="Path_19" data-name="Path 19" d="M.02-.012v0ZM0-.012V-.031H.039v.019h0V.007H.02V-.012Z" transform="translate(0 0.031)" fill="#ffc82f"/>
    </g>
    <g id="Group_22" data-name="Group 22" transform="translate(680.144 0.077)">
      <path id="Path_20" data-name="Path 20" d="M0,.007V-.012H.02A.021.021,0,0,1,0-.031H.02v.019h.02L.02.007Z" transform="translate(0 0.031)" fill="#ffc82f"/>
    </g>
    <g id="Group_23" data-name="Group 23" transform="translate(680.11 0.077)">
      <path id="Path_21" data-name="Path 21" d="M.02-.012v0Zm0,.019V-.012H0A.018.018,0,0,1,.02-.031h.02v.019Z" transform="translate(0 0.031)" fill="#ffc82f"/>
    </g>
    <g id="Group_24" data-name="Group 24" transform="translate(680.066 0.077)">
      <path id="Path_22" data-name="Path 22" d="M.039.007H.02v0H0L.02-.031Z" transform="translate(0 0.031)" fill="#ffc82f"/>
    </g>
    <g id="Group_25" data-name="Group 25" transform="translate(680.032 0.077)">
      <path id="Path_23" data-name="Path 23" d="M0,.007V-.012H.02A.021.021,0,0,1,0-.031H.02v.019h.02L.02.007Z" transform="translate(0 0.031)" fill="#ffc82f"/>
    </g>
    <g id="Group_26" data-name="Group 26" transform="translate(679.992 0.077)">
      <path id="Path_24" data-name="Path 24" d="M.039.007H.02v0H0L.02-.012,0-.031H.02v0h.02Z" transform="translate(0 0.031)" fill="#ffc82f"/>
    </g>
    <g id="Group_27" data-name="Group 27" transform="translate(679.958 0.077)">
      <path id="Path_25" data-name="Path 25" d="M.02-.012v0ZM0-.012V-.031H.039v.019h0V.007H.02V-.012Z" transform="translate(0 0.031)" fill="#ffc82f"/>
    </g>
    <g id="Group_28" data-name="Group 28" transform="translate(680.917 0.019)">
      <path id="Path_26" data-name="Path 26" d="M0,.007V-.031H.02V.007Z" transform="translate(0 0.031)" fill="#ffc82f"/>
    </g>
    <g id="Group_29" data-name="Group 29" transform="translate(680.893 0.019)">
      <path id="Path_27" data-name="Path 27" d="M0-.012V-.031H.02V.007H0Z" transform="translate(0 0.031)" fill="#ffc82f"/>
    </g>
    <g id="Group_30" data-name="Group 30" transform="translate(680.844 0.019)">
      <path id="Path_28" data-name="Path 28" d="M.02-.012v0Zm0,.019V-.012H0A.018.018,0,0,1,.02-.031h.02v.019Z" transform="translate(0 0.031)" fill="#ffc82f"/>
    </g>
    <g id="Group_31" data-name="Group 31" transform="translate(680.785 0.019)">
      <path id="Path_29" data-name="Path 29" d="M.02-.012V.007A.021.021,0,0,1,0-.012V-.031H.02v0h.02v0h.02V.007H.039V-.012Z" transform="translate(0 0.031)" fill="#ffc82f"/>
    </g>
    <g id="Group_32" data-name="Group 32" transform="translate(680.741 0.019)">
      <path id="Path_30" data-name="Path 30" d="M0,.007V-.031H.02V.007Z" transform="translate(0 0.031)" fill="#ffc82f"/>
    </g>
    <g id="Group_33" data-name="Group 33" transform="translate(680.692 0.019)">
      <path id="Path_31" data-name="Path 31" d="M0-.012V-.031H.02v0h.02V.007H.02v0A.021.021,0,0,1,0-.012Z" transform="translate(0 0.031)" fill="#ffc82f"/>
    </g>
    <g id="Group_34" data-name="Group 34" transform="translate(680.653 0.019)">
      <path id="Path_32" data-name="Path 32" d="M0-.012H.02V-.031A.018.018,0,0,0,0-.012V-.031H.039v.019L.02.007V-.012Z" transform="translate(0 0.031)" fill="#ffc82f"/>
    </g>
    <g id="Group_35" data-name="Group 35" transform="translate(680.594 0.019)">
      <path id="Path_33" data-name="Path 33" d="M.039.007H.02L0-.012V-.031l.02.019V-.031h.02Z" transform="translate(0 0.031)" fill="#ffc82f"/>
    </g>
    <g id="Group_36" data-name="Group 36" transform="translate(680.545 0.019)">
      <path id="Path_34" data-name="Path 34" d="M.02-.012v0Zm0,.019V-.012H0A.018.018,0,0,1,.02-.031h.02v.019Z" transform="translate(0 0.031)" fill="#ffc82f"/>
    </g>
    <g id="Group_37" data-name="Group 37" transform="translate(680.501 0.019)">
      <path id="Path_35" data-name="Path 35" d="M.039-.012V.007H.02v0H0V-.031H.039Z" transform="translate(0 0.031)" fill="#ffc82f"/>
    </g>
    <g id="Group_38" data-name="Group 38" transform="translate(680.462 0.019)">
      <path id="Path_36" data-name="Path 36" d="M0-.012V-.031H.02v0h.02V.007H.02v0A.021.021,0,0,1,0-.012Z" transform="translate(0 0.031)" fill="#ffc82f"/>
    </g>
    <g id="Group_39" data-name="Group 39" transform="translate(680.398 0.019)">
      <path id="Path_37" data-name="Path 37" d="M.039.007H0V-.012H.02V-.031h.02Zm-.02,0v0Z" transform="translate(0 0.031)" fill="#ffc82f"/>
    </g>
    <g id="Group_40" data-name="Group 40" transform="translate(680.374 0.019)">
      <path id="Path_38" data-name="Path 38" d="M0-.012V-.031H.02V.007H0Z" transform="translate(0 0.031)" fill="#ffc82f"/>
    </g>
    <g id="Group_41" data-name="Group 41" transform="translate(680.33 0.019)">
      <path id="Path_39" data-name="Path 39" d="M.02-.012v0Zm0,.019V-.012H0A.018.018,0,0,1,.02-.031h.02v.019Z" transform="translate(0 0.031)" fill="#ffc82f"/>
    </g>
    <g id="Group_42" data-name="Group 42" transform="translate(680.306 0)">
      <path id="Path_40" data-name="Path 40" d="M.02.026H0V-.012H.02V-.031Zm0,0H0Z" transform="translate(0 0.031)" fill="#ffc82f"/>
    </g>
    <g id="Group_43" data-name="Group 43" transform="translate(680.266 0.019)">
      <path id="Path_41" data-name="Path 41" d="M0-.012H.02V-.031A.018.018,0,0,0,0-.012V-.031H.039v.019L.02.007V-.012Z" transform="translate(0 0.031)" fill="#ffc82f"/>
    </g>
    <g id="Group_44" data-name="Group 44" transform="translate(680.227 0.019)">
      <path id="Path_42" data-name="Path 42" d="M0,.007V-.012H.02V-.031h.02v.019L.02.007Z" transform="translate(0 0.031)" fill="#ffc82f"/>
    </g>
    <g id="Group_45" data-name="Group 45" transform="translate(680.213 0.019)">
      <path id="Path_43" data-name="Path 43" d="M0,.007V-.031H.02V.007Z" transform="translate(0 0.031)" fill="#ffc82f"/>
    </g>
  </g>
</svg>
