<svg xmlns="http://www.w3.org/2000/svg" width="45.148" height="43.077" viewBox="0 0 45.148 43.077">
  <path id="student-boy-icon" d="M12.961,10.951l.06-2.225,7.28,2.129a9.077,9.077,0,0,0,3.944,0L31.2,8.7v2.48a24.666,24.666,0,0,1-.145,3.679,4.2,4.2,0,0,1-.459,1.564.957.957,0,0,1,.186.113c.751.575.7,2.071.531,2.911A3.949,3.949,0,0,1,30.8,20.79a1.781,1.781,0,0,1-1.133.84,11.565,11.565,0,0,1-.425,1.35,11.429,11.429,0,0,1-2.095,3.473c.311.474.641.954.976,1.412C30.43,29.883,37.032,30.3,39.5,31.694a6.539,6.539,0,0,1,2.069,1.774c1.426,1.906,1.548,3.513,2.064,5.85a2.3,2.3,0,0,1-2.389,2.261H2.389A2.3,2.3,0,0,1,0,39.318c.516-2.337.638-3.943,2.064-5.85a6.539,6.539,0,0,1,2.069-1.774c2.344-1.324,8.412-1.766,11-3.534.4-.528.822-1.149,1.195-1.705l.04-.059a17.809,17.809,0,0,1-1.727-2.314,6.431,6.431,0,0,1-.712-1.29,6.077,6.077,0,0,1-.27-1.121l0-.06A1.805,1.805,0,0,1,12.6,20.79a3.915,3.915,0,0,1-.512-1.325c-.178-.867-.223-2.426.583-2.962a1,1,0,0,1,.764-.142c.089.019-.215-.638-.263-.821a14.454,14.454,0,0,1-.214-4.589Zm15.7,4.376a26.5,26.5,0,0,1-6.409,1.109,27.153,27.153,0,0,1-7.522-1.246V19.9l-.005.658a4.536,4.536,0,0,0,.972,3.4l.337.489a9.726,9.726,0,0,0,2.923,2.782,5.552,5.552,0,0,0,3.252.794,5.8,5.8,0,0,0,3-1.174,9.85,9.85,0,0,0,3.294-4.87,10.007,10.007,0,0,0,.159-2.24V15.326ZM26.367,27.239a7.1,7.1,0,0,1-4.149,1.91,6.782,6.782,0,0,1-5.1-2c-.462.588-.943,1.266-1.373,1.811,2.2,5.214,10.913,5.362,12.148.329-.529-.629-1.045-1.352-1.525-2.054ZM29.73,17.99v2.533A2.04,2.04,0,0,0,30.4,18.87c.019-.173.052-1.576-.254-1.52C29.91,17.393,29.777,17.794,29.73,17.99ZM13.671,20.524V17.99c-.048-.2-.179-.6-.412-.64-.306-.056-.273,1.347-.254,1.52a2.547,2.547,0,0,0,.666,1.654ZM9.951,5.5v5.48H9.78a.215.215,0,0,0-.212.215v1.473a.215.215,0,0,0,.212.215h.171V13.4a.477.477,0,0,0-.383.467h0a.475.475,0,0,0,.47.475h.841a.475.475,0,0,0,.47-.475h0a.476.476,0,0,0-.383-.467v-.516h.171a.215.215,0,0,0,.212-.215V11.191a.214.214,0,0,0-.212-.215h-.171V5.815l8.86,2.791a9.835,9.835,0,0,0,4.813,0L34.415,5.65l.884-.268c1.1-.456.827-1.526-.2-1.772L24.041.266a5.628,5.628,0,0,0-3.422,0l-10.86,3.3c-1.18.291-1.415,1.4-.04,1.854l.233.073Z" transform="translate(0.758 0.749)" fill="none" stroke="#ffc82f" stroke-width="1.5" fill-rule="evenodd"/>
</svg>
