<svg id="teamwork-together-icon" xmlns="http://www.w3.org/2000/svg" width="50" height="50" viewBox="0 0 50 50">
  <path id="Path_10597" data-name="Path 10597" d="M18.366,4.461a2.877,2.877,0,0,1,1.7.077,2.7,2.7,0,0,1,.834.484,2.233,2.233,0,0,1,.561.729,2.006,2.006,0,0,1,.2.859h0V7.656h4.706a41.426,41.426,0,0,1,4.2-4.387c.4-.379.745-.7.978-.936v0a.052.052,0,0,1,.022-.02,3.873,3.873,0,0,1,1.462-1.07A2.69,2.69,0,0,1,34.664,1.1a2.306,2.306,0,0,1,.556.212,2.334,2.334,0,0,1,.857.79,2.238,2.238,0,0,1,.247.529,2.407,2.407,0,0,1-.018,1.465,3.424,3.424,0,0,1-.866,1.372l-.013.012c-.063.065-.179.179-.332.342l-.215.224h.094q.141,0,.283.012c.085.008.175.016.26.028h9.842a2.371,2.371,0,0,1,.9.179,2.248,2.248,0,0,1,.754.513,2.379,2.379,0,0,1,.5.757A2.305,2.305,0,0,1,47.584,9.1a2.3,2.3,0,0,1-.117.305h.09a2.354,2.354,0,0,1,.9.179,2.309,2.309,0,0,1,.754.513,2.366,2.366,0,0,1,.5.757,2.317,2.317,0,0,1,0,1.766,2.366,2.366,0,0,1-.5.757,2.425,2.425,0,0,1-.754.513,2.279,2.279,0,0,1-.9.179h-.081a2.716,2.716,0,0,1,.126.313,2.259,2.259,0,0,1,.108.692v0a2.329,2.329,0,0,1-.175.883,2.336,2.336,0,0,1-1.252,1.27,2.279,2.279,0,0,1-.9.179h-.2a1.784,1.784,0,0,1,.108.293,2.277,2.277,0,0,1,.094.655v.008a2.287,2.287,0,0,1-.175.875,2.366,2.366,0,0,1-.5.757,2.425,2.425,0,0,1-.754.513,2.279,2.279,0,0,1-.9.179h-.368v6.8a44.079,44.079,0,0,1,4.84,4.086c.413.387.767.716,1.032.948l.009,0,.022.02a3.826,3.826,0,0,1,1.171,1.412,2.228,2.228,0,0,1-.947,2.93,2.942,2.942,0,0,1-.588.24,3.059,3.059,0,0,1-1.624-.016,3.942,3.942,0,0,1-1.525-.851l-.377-.326-.242-.208v.1c0,.09,0,.179-.013.273s-.018.163-.031.252v9.267a2.006,2.006,0,0,1-.2.859,2.233,2.233,0,0,1-.561.729,2.55,2.55,0,0,1-.834.484,2.873,2.873,0,0,1-.978.171,3.011,3.011,0,0,1-.749-.1,2.915,2.915,0,0,1-.336-.114v.1a2.006,2.006,0,0,1-.2.859,2.233,2.233,0,0,1-.561.729,2.55,2.55,0,0,1-.834.484,2.883,2.883,0,0,1-1.956,0,2.7,2.7,0,0,1-.834-.484,2.233,2.233,0,0,1-.561-.729,2.006,2.006,0,0,1-.2-.859h0v-.09a3.009,3.009,0,0,1-.323.114l-.018.008a2.85,2.85,0,0,1-.767.1h0a2.873,2.873,0,0,1-.978-.171,2.7,2.7,0,0,1-.834-.484,2.233,2.233,0,0,1-.561-.729,2.006,2.006,0,0,1-.2-.859v-.208a2.679,2.679,0,0,1-.323.106,2.877,2.877,0,0,1-1.7-.077,2.7,2.7,0,0,1-.834-.484,2.233,2.233,0,0,1-.561-.729,2.006,2.006,0,0,1-.2-.859h0V42.352h-4.7a41.426,41.426,0,0,1-4.2,4.387c-.4.379-.745.7-.978.936l-.027.028a3.936,3.936,0,0,1-1.458,1.066,2.69,2.69,0,0,1-1.628.138,2.306,2.306,0,0,1-.556-.212,2.263,2.263,0,0,1-.48-.342,2.111,2.111,0,0,1-.363-.435l-.009-.016a2.314,2.314,0,0,1-.229-1.994,3.424,3.424,0,0,1,.866-1.372l.013-.012c.063-.065.179-.179.332-.342l.215-.224h-.094q-.141,0-.283-.012c-.085-.008-.175-.016-.26-.028H4.518a2.371,2.371,0,0,1-.9-.179A2.339,2.339,0,0,1,2.414,40.6h-.09a2.354,2.354,0,0,1-.9-.179,2.309,2.309,0,0,1-.754-.513,2.366,2.366,0,0,1-.5-.757A2.215,2.215,0,0,1,0,38.274a2.329,2.329,0,0,1,.175-.883,2.366,2.366,0,0,1,.5-.757,2.425,2.425,0,0,1,.754-.513,2.279,2.279,0,0,1,.9-.179H2.4a2.716,2.716,0,0,1-.126-.313,2.259,2.259,0,0,1-.108-.692v0a2.329,2.329,0,0,1,.175-.883,2.336,2.336,0,0,1,1.252-1.27,2.279,2.279,0,0,1,.9-.179h.2c-.04-.094-.076-.187-.108-.285l0-.008a2.277,2.277,0,0,1-.094-.655v-.008a2.287,2.287,0,0,1,.175-.875A2.336,2.336,0,0,1,5.913,29.5a2.279,2.279,0,0,1,.9-.179h.48v-6.8a44.079,44.079,0,0,1-4.84-4.086c-.417-.391-.772-.72-1.036-.952l-.022-.02A3.843,3.843,0,0,1,.215,16.048a2.209,2.209,0,0,1,.081-2.1,2.316,2.316,0,0,1,.866-.826,2.942,2.942,0,0,1,.588-.24,3.059,3.059,0,0,1,1.624.016,3.942,3.942,0,0,1,1.525.851l.377.326.242.208v-.1c0-.09,0-.179.013-.273s.018-.163.031-.252V4.379a2.006,2.006,0,0,1,.2-.859,2.233,2.233,0,0,1,.561-.729,2.55,2.55,0,0,1,.834-.484,2.873,2.873,0,0,1,.978-.171,3.011,3.011,0,0,1,.749.1,2.915,2.915,0,0,1,.336.114V2.243a2.006,2.006,0,0,1,.2-.859A2.233,2.233,0,0,1,9.977.655a2.55,2.55,0,0,1,.834-.484,2.9,2.9,0,0,1,1.96,0,2.7,2.7,0,0,1,.834.484,2.233,2.233,0,0,1,.561.729,2.006,2.006,0,0,1,.2.859h0v.09a3.339,3.339,0,0,1,.341-.118,2.853,2.853,0,0,1,.767-.106h0a2.873,2.873,0,0,1,.978.171,2.7,2.7,0,0,1,.834.484,2.233,2.233,0,0,1,.561.729,2.006,2.006,0,0,1,.2.859v.208c.1-.033.206-.069.319-.1ZM9.03,23.1V29.32h5.437a.959.959,0,0,1,.108.008c.018,0,.036,0,.049.008l.17-.012h0c.076,0,.153-.008.22-.008h3.01V22.593c0-1.05.036-1.07.381-1.27a2.415,2.415,0,0,0,.718-.627,4.4,4.4,0,0,0,.763-1.278,3.994,3.994,0,0,0,.26-1.424V14.172h0a.654.654,0,0,0,0-.094V6.614a.83.83,0,0,0-.072-.334l0-.008a.938.938,0,0,0-.229-.3,1.05,1.05,0,0,0-.332-.2l-.009,0a1.176,1.176,0,0,0-.4-.069,1.2,1.2,0,0,0-.4.069.986.986,0,0,0-.341.2.924.924,0,0,0-.229.293.8.8,0,0,0-.076.342h0v4.009a.22.22,0,0,1-.229.208H16.751a.22.22,0,0,1-.229-.208V4.359a.8.8,0,0,0-.076-.342.881.881,0,0,0-.229-.293h0a1.029,1.029,0,0,0-.341-.2,1.176,1.176,0,0,0-.4-.069,1.2,1.2,0,0,0-.4.069.986.986,0,0,0-.341.2.924.924,0,0,0-.229.293.8.8,0,0,0-.076.342v6.26a.22.22,0,0,1-.229.208H13.068a.22.22,0,0,1-.229-.208V2.247a.83.83,0,0,0-.072-.334l0-.008a.881.881,0,0,0-.229-.293,1.077,1.077,0,0,0-.341-.2,1.176,1.176,0,0,0-.4-.069,1.2,1.2,0,0,0-.39.065H11.39a.986.986,0,0,0-.341.2.924.924,0,0,0-.229.293.8.8,0,0,0-.076.342v8.376a.22.22,0,0,1-.229.208h-1.1a.22.22,0,0,1-.229-.208V4.379a.8.8,0,0,0-.076-.342.943.943,0,0,0-.229-.293,1.029,1.029,0,0,0-.341-.2,1.176,1.176,0,0,0-.4-.069,1.2,1.2,0,0,0-.4.069,1.041,1.041,0,0,0-.332.191l-.009.008a.9.9,0,0,0-.229.3.8.8,0,0,0-.076.342c0,1.514-.009,3.211-.013,4.9-.009,1.494-.013,2.983-.013,4.888l-.126,1.84a.209.209,0,0,1-.13.175l-.4.171a.271.271,0,0,1-.117.028h0a.783.783,0,0,1-.215-.028.756.756,0,0,1-.2-.081,4,4,0,0,1-.484-.309c-.188-.138-.381-.289-.57-.44-.4-.326-.816-.688-.973-.826h0a2.559,2.559,0,0,0-.857-.509,1.372,1.372,0,0,0-.772-.037.964.964,0,0,0-.224.094h0A.913.913,0,0,0,1.8,14.4h0a.859.859,0,0,0-.148.183.971.971,0,0,0-.094.22,1.128,1.128,0,0,0,.112.822,2.582,2.582,0,0,0,.74.847l.018.012.04.033.027.024c.148.13.354.317.615.554a51.362,51.362,0,0,0,5.186,4.278.468.468,0,0,1,.054.041,2.823,2.823,0,0,1,.319.4,2.542,2.542,0,0,1,.233.448,2.158,2.158,0,0,1,.112.411,2.2,2.2,0,0,1,.027.427l-.009,0Zm10.726-1.009v7.277a6,6,0,0,1,3.423,1.677H28.41a5.355,5.355,0,0,1,.574-1.579,5.885,5.885,0,0,1,1.247-1.551V20.643a6,6,0,0,1-3.423-1.677H21.574A5.355,5.355,0,0,1,21,20.545a5.983,5.983,0,0,1-1.243,1.547ZM28.321,35.84V32.621H23.682c-1.095,0-1.113-.033-1.323-.35a2.345,2.345,0,0,0-.642-.651,4.6,4.6,0,0,0-2.768-.924H15.015a.838.838,0,0,0-.1,0h-8.1a.875.875,0,0,0-.341.069.956.956,0,0,0-.3.2,1.07,1.07,0,0,0-.206.309,1,1,0,0,0-.072.37,1.015,1.015,0,0,0,.072.37,1.037,1.037,0,0,0,.206.313.955.955,0,0,0,.3.2.859.859,0,0,0,.341.069h4.54a.22.22,0,0,1,.229.208v.965a.22.22,0,0,1-.229.208H4.5a.875.875,0,0,0-.341.069.975.975,0,0,0-.3.2,1.07,1.07,0,0,0-.206.309,1,1,0,0,0-.072.37,1.015,1.015,0,0,0,.072.37,1.037,1.037,0,0,0,.206.313.925.925,0,0,0,.3.2A.859.859,0,0,0,4.5,35.9h6.859a.22.22,0,0,1,.229.208v1.022a.22.22,0,0,1-.229.208H2.319a.875.875,0,0,0-.341.069h0a.906.906,0,0,0-.3.2,1.037,1.037,0,0,0-.206.313.991.991,0,0,0,0,.741.884.884,0,0,0,.2.3l.009.008a.975.975,0,0,0,.3.2.859.859,0,0,0,.341.069h9.035a.22.22,0,0,1,.229.208v1a.22.22,0,0,1-.229.208H4.518a.875.875,0,0,0-.341.069h0a.882.882,0,0,0-.287.191l-.009.012a1.07,1.07,0,0,0-.206.309,1,1,0,0,0-.072.37,1.015,1.015,0,0,0,.072.37.959.959,0,0,0,.206.313.9.9,0,0,0,.287.2l.009,0a.859.859,0,0,0,.341.069c1.552,0,3.4.008,5.258.012,1.633.008,3.266.012,5.24.012l1.893.114a.226.226,0,0,1,.193.122l.179.366a.179.179,0,0,1,.027.1h0a.682.682,0,0,1-.027.191.736.736,0,0,1-.081.171,3.717,3.717,0,0,1-.323.448c-.13.155-.287.334-.458.517-.332.358-.686.72-.834.871l-.013.016a2.158,2.158,0,0,0-.52.777,1.114,1.114,0,0,0-.036.708h0a.787.787,0,0,0,.094.2.815.815,0,0,0,.148.175.745.745,0,0,0,.188.13.829.829,0,0,0,.22.081,1.316,1.316,0,0,0,.825-.1,2.539,2.539,0,0,0,.861-.663l.013-.02.036-.037.031-.033c.153-.151.336-.33.561-.549a48.987,48.987,0,0,0,4.405-4.7.444.444,0,0,1,.045-.049,3.218,3.218,0,0,1,.417-.293,2.367,2.367,0,0,1,.467-.212,2.435,2.435,0,0,1,.431-.1,2.655,2.655,0,0,1,.444-.024H28.33v-4.4h0v0a.719.719,0,0,1,.009-.1h0a.218.218,0,0,0,.009-.053c0-.053-.013-.11-.013-.171a1.393,1.393,0,0,1-.013-.224ZM21.668,14.172v3.219h4.639c1.095,0,1.113.033,1.323.35a2.345,2.345,0,0,0,.642.651,4.6,4.6,0,0,0,2.768.924h3.934a.837.837,0,0,0,.1,0h7.985a.875.875,0,0,0,.341-.069,1.032,1.032,0,0,0,.3-.2,1.07,1.07,0,0,0,.206-.309,1,1,0,0,0,.072-.37,1.015,1.015,0,0,0-.072-.37,1.037,1.037,0,0,0-.206-.313.956.956,0,0,0-.3-.2.859.859,0,0,0-.341-.069H38.634a.22.22,0,0,1-.229-.208v-.965a.22.22,0,0,1,.229-.208h6.752a.9.9,0,0,0,.628-.26l.009-.012a1.07,1.07,0,0,0,.206-.309,1,1,0,0,0,.072-.37,1.015,1.015,0,0,0-.072-.37,1.037,1.037,0,0,0-.206-.313.925.925,0,0,0-.3-.2.859.859,0,0,0-.341-.069H38.63a.22.22,0,0,1-.229-.208V12.886a.22.22,0,0,1,.229-.208h8.927a.875.875,0,0,0,.341-.069.975.975,0,0,0,.3-.2A1.07,1.07,0,0,0,48.4,12.1a1,1,0,0,0,.072-.37,1.015,1.015,0,0,0-.072-.37.884.884,0,0,0-.2-.3l-.009-.008a1.011,1.011,0,0,0-.3-.2.859.859,0,0,0-.341-.069H38.634a.22.22,0,0,1-.229-.208v-1a.22.22,0,0,1,.229-.208h6.729a.875.875,0,0,0,.341-.069.975.975,0,0,0,.3-.2,1.07,1.07,0,0,0,.206-.309,1,1,0,0,0,.072-.37,1.015,1.015,0,0,0-.072-.37A.96.96,0,0,0,46,7.725a.975.975,0,0,0-.3-.2.859.859,0,0,0-.341-.069c-1.552,0-3.378-.008-5.2-.012-1.606,0-3.212-.012-5.181-.012l-1.9-.1a.226.226,0,0,1-.193-.122l-.179-.366a.179.179,0,0,1-.027-.1h0a.682.682,0,0,1,.027-.191.736.736,0,0,1,.081-.171,3.718,3.718,0,0,1,.323-.448c.13-.155.287-.334.458-.517.327-.354.682-.712.834-.867l.018-.02a2.158,2.158,0,0,0,.52-.777,1.114,1.114,0,0,0,.036-.708h0a.787.787,0,0,0-.094-.2.815.815,0,0,0-.148-.175.745.745,0,0,0-.188-.13.849.849,0,0,0-.22-.09,1.316,1.316,0,0,0-.825.1,2.539,2.539,0,0,0-.861.663l-.013.02-.036.037-.04.037c-.153.151-.336.33-.561.549a48.986,48.986,0,0,0-4.405,4.7.444.444,0,0,1-.045.049,3.669,3.669,0,0,1-.417.293,2.367,2.367,0,0,1-.467.212,2.435,2.435,0,0,1-.431.1,2.655,2.655,0,0,1-.444.024H21.654v4.4h0v0a.719.719,0,0,1-.009.1h0a.218.218,0,0,0-.009.053c0,.053.013.11.013.171a1.214,1.214,0,0,1,.018.212Zm13.3,6.524h-3.01v6.728c0,1.05-.036,1.07-.381,1.27a2.415,2.415,0,0,0-.718.627A4.4,4.4,0,0,0,30.1,30.6a3.994,3.994,0,0,0-.26,1.424v3.822h0a.654.654,0,0,0,0,.094V43.4a.811.811,0,0,0,.072.33l0,.008a.938.938,0,0,0,.229.3,1.076,1.076,0,0,0,.341.2,1.175,1.175,0,0,0,.4.069,1.194,1.194,0,0,0,.4-.069.986.986,0,0,0,.341-.2.924.924,0,0,0,.229-.293.8.8,0,0,0,.076-.342h0V39.394a.22.22,0,0,1,.229-.208h1.063a.22.22,0,0,1,.229.208v6.26a.8.8,0,0,0,.076.342.914.914,0,0,0,.215.285l.013.008a1.05,1.05,0,0,0,.332.2l.009,0a1.175,1.175,0,0,0,.4.069,1.2,1.2,0,0,0,.4-.069h0a1.029,1.029,0,0,0,.341-.2A.924.924,0,0,0,35.485,46a.8.8,0,0,0,.076-.342v-6.26a.22.22,0,0,1,.229-.208h1.126a.22.22,0,0,1,.229.208V47.77a.8.8,0,0,0,.076.342.881.881,0,0,0,.229.293,1.076,1.076,0,0,0,.341.2,1.175,1.175,0,0,0,.4.069,1.2,1.2,0,0,0,.39-.065l.009,0a.986.986,0,0,0,.341-.2.924.924,0,0,0,.229-.293.8.8,0,0,0,.076-.342V39.394a.22.22,0,0,1,.229-.208h1.1a.22.22,0,0,1,.229.208v6.239a.8.8,0,0,0,.076.342.938.938,0,0,0,.229.3,1.029,1.029,0,0,0,.341.2,1.175,1.175,0,0,0,.4.069,1.2,1.2,0,0,0,.4-.069,1.029,1.029,0,0,0,.341-.2.9.9,0,0,0,.229-.3.8.8,0,0,0,.076-.342c0-1.514.009-3.211.013-4.9.009-1.494.013-2.983.013-4.888L43.048,34a.209.209,0,0,1,.13-.175l.4-.171a.271.271,0,0,1,.117-.028h0a.783.783,0,0,1,.215.028.757.757,0,0,1,.2.081,4,4,0,0,1,.484.309c.188.138.381.289.57.44.4.326.816.688.973.826h0A2.559,2.559,0,0,0,47,35.82a1.336,1.336,0,0,0,.772.037.964.964,0,0,0,.224-.094,1.079,1.079,0,0,0,.193-.142h0a.859.859,0,0,0,.148-.183.971.971,0,0,0,.094-.22,1.128,1.128,0,0,0-.112-.822,2.582,2.582,0,0,0-.74-.847l-.018-.012-.04-.033-.027-.024c-.148-.13-.354-.317-.61-.549a51.918,51.918,0,0,0-5.186-4.282.468.468,0,0,1-.054-.041,3.181,3.181,0,0,1-.319-.4,2.543,2.543,0,0,1-.233-.448,2.158,2.158,0,0,1-.112-.411,2.195,2.195,0,0,1-.027-.427V20.688H35.512a.958.958,0,0,1-.108-.008c-.018,0-.036,0-.049-.008l-.166.012h0a1.91,1.91,0,0,1-.215.012Z" transform="translate(0.008)" fill="#ffc82f"/>
</svg>
