<svg xmlns="http://www.w3.org/2000/svg" xmlns:xlink="http://www.w3.org/1999/xlink" width="707.63" height="707.631" viewBox="0 0 707.63 707.631">
  <defs>
    <clipPath id="clip-path">
      <ellipse id="Ellipse_272" data-name="Ellipse 272" cx="353.815" cy="353.815" rx="353.815" ry="353.815" fill="none"/>
    </clipPath>
  </defs>
  <g id="OBJECTS" transform="translate(-62.848 -37.881)">
    <ellipse id="Ellipse_271" data-name="Ellipse 271" cx="353.815" cy="353.815" rx="353.815" ry="353.815" transform="translate(62.848 37.881)" fill="#215dd0" opacity="0.38"/>
    <g id="Group_7475" data-name="Group 7475" transform="translate(119.01 122.87)">
      <path id="Path_11446" data-name="Path 11446" d="M413.371,342.457a14.017,14.017,0,0,0-7.234,2.018c-2.832-9.786-11.188-16.877-21.059-16.877-9.843,0-18.16,7.063-21.015,16.807-.044.025-.091.044-.136.07-2.833-9.786-11.188-16.877-21.059-16.877-10.165,0-18.721,7.526-21.294,17.766a14.153,14.153,0,0,0-8.547-2.906c-8.348,0-15.115,7.414-15.115,16.559a18.2,18.2,0,0,0,.339,3.475h129.9a18.2,18.2,0,0,0,.339-3.475C428.487,349.87,421.719,342.457,413.371,342.457Z" transform="translate(91.284 136.317)" fill="#fff" opacity="0.7"/>
      <path id="Path_11447" data-name="Path 11447" d="M207.949,267.758a14.029,14.029,0,0,0-7.232,2.018c-2.834-9.786-11.19-16.877-21.059-16.877-9.843,0-18.16,7.063-21.015,16.807-.045.026-.093.044-.136.07-2.832-9.786-11.19-16.877-21.059-16.877-10.167,0-18.723,7.525-21.3,17.766a14.144,14.144,0,0,0-8.547-2.906c-8.348,0-15.115,7.414-15.115,16.559a18.19,18.19,0,0,0,.339,3.475h129.9a18.19,18.19,0,0,0,.339-3.475C223.065,275.171,216.3,267.758,207.949,267.758Z" transform="translate(-92.491 69.489)" fill="#fff" opacity="0.7"/>
      <path id="Path_11448" data-name="Path 11448" d="M363.15,138.522a24.433,24.433,0,0,0-31.117-33.575,24.434,24.434,0,0,0-48.688.273,24.469,24.469,0,0,0-27.4,9.553,18.012,18.012,0,0,0-22.974,23.749Z" transform="translate(31.966 -82.739)" fill="#fff" opacity="0.66"/>
    </g>
    <g id="Group_7487" data-name="Group 7487" transform="translate(62.848 37.881)">
      <g id="Group_7486" data-name="Group 7486" clip-path="url(#clip-path)">
        <g id="Group_7485" data-name="Group 7485" transform="translate(-152.006 181.886)">
          <path id="Path_11461" data-name="Path 11461" d="M426.421,355.18s180.281-13.257,281.634,5.413l5.333-226.711s-112.02,42.676-173.366,42.676-193.644,7.685-193.644,7.685S387.5,352.434,426.421,355.18Z" transform="translate(342.811 -133.882)" fill="#8d4328"/>
          <path id="Path_11462" data-name="Path 11462" d="M487.171,175.261s-48.008-26.671-141.36-21.337l-125.356,8s-18.671,53.343,40.007,61.346,93.352,162.7,90.684,205.371c0,0-10.669,24,18.67,18.67S553.85,327.29,553.85,327.29,588.524,260.61,487.171,175.261Z" transform="translate(227.63 -116.583)" fill="#8d4328"/>
          <path id="Path_11463" data-name="Path 11463" d="M316.961,228.586a98.818,98.818,0,0,1,13.961-12.855A113.245,113.245,0,0,1,346.936,205.4a89.565,89.565,0,0,1,17.79-6.957,61.409,61.409,0,0,1,18.914-1.866c-3.137.529-6.267.616-9.3,1.474a75.432,75.432,0,0,0-9.034,2.361,127.734,127.734,0,0,0-17.133,7.351,183.753,183.753,0,0,0-16.053,9.623q-3.919,2.586-7.671,5.436C321.878,224.64,319.432,226.612,316.961,228.586Z" transform="translate(316.493 -77.89)" fill="#181532" opacity="0.41"/>
          <path id="Path_11464" data-name="Path 11464" d="M280.359,208.825a81.017,81.017,0,0,0,5.273-7.378,75.937,75.937,0,0,0,4.358-7.781,81.24,81.24,0,0,0,3.494-8.213c1.072-2.8,1.883-5.693,2.88-8.634a38.049,38.049,0,0,1-3.983,18.022,38.951,38.951,0,0,1-5.078,7.832A27.257,27.257,0,0,1,280.359,208.825Z" transform="translate(283.748 -95.47)" fill="#181532" opacity="0.41"/>
          <path id="Path_11465" data-name="Path 11465" d="M360.6,171.188a80.532,80.532,0,0,1,24.389,18.838,38.638,38.638,0,0,1,7.779,13.656,71.784,71.784,0,0,1,1.582,7.668c.468,2.469,1.017,4.943,1.713,7.381,2.491,9.846,6.148,19.416,9.9,28.912q2.85,7.113,6.061,14.083c2.143,4.634,4.234,9.341,7.254,13.482A35.514,35.514,0,0,1,414.713,269q-2-3.3-3.857-6.688c-2.4-4.549-4.634-9.183-6.779-13.861a207.068,207.068,0,0,1-10.589-29.041c-.669-2.5-1.2-5.049-1.641-7.618a70.015,70.015,0,0,0-1.4-7.406,40.357,40.357,0,0,0-7.05-13.073A75.025,75.025,0,0,0,372.846,180.4,105.331,105.331,0,0,0,360.6,171.188Z" transform="translate(355.534 -100.507)" fill="#181532" opacity="0.41"/>
          <path id="Path_11466" data-name="Path 11466" d="M353.356,219.826-17.382,145.144l5.335,192.037S236,326.513,249.335,334.514,366.69,251.832,353.356,219.826Z" transform="translate(17.382 -123.807)" fill="#ffc7a6"/>
          <path id="Path_11467" data-name="Path 11467" d="M231.321,183.858s173.366,8,192.035,13.336,52.011,20,52.011,20-44.008,129.357-137.36,174.7c0,0-125.358-16-208.039-98.685l-18.67-2.668S65.956,202.528,231.321,183.858Z" transform="translate(127.414 -89.172)" fill="#ffc7a6"/>
          <path id="Path_11468" data-name="Path 11468" d="M243.231,305.708s61.344,13.336,66.679,29.338,10.669,40.009,26.671,37.341,16-34.674,10.669-45.342S325.912,289.7,277.9,260.366C277.9,260.366,221.894,236.361,243.231,305.708Z" transform="translate(246.195 -24.32)" fill="#ffc7a6"/>
          <path id="Path_11469" data-name="Path 11469" d="M271.96,231.722s29.34,18.67,45.342,32.006,45.342,48.008,50.677,64.012,5.333,50.675-8,64.012-22.881,2.166-24.776-9.585,14.333-46.752-79.131-103.933C256.069,278.233,237.286,231.722,271.96,231.722Z" transform="translate(257.474 -46.352)" fill="#ffc7a6"/>
          <path id="Path_11470" data-name="Path 11470" d="M359.084,346.977c2.613,7.853,2.7,22.379,13.094,22.12,13.638-.341,21.371-12.535,24.969-24.255a87.272,87.272,0,0,0,2.59-11.156c-.241-8.5-3.327-15.191-4.469-20.9-2.666-13.336-40.007-53.345-53.343-64.014s-50.676-32.006-50.676-32.006c-18.67-8-32.006,29.34-32.006,29.34,55.092,43.559,80.633,72.96,92.276,92.643A12.861,12.861,0,0,1,359.084,346.977Z" transform="translate(264.857 -60.737)" fill="#ffc7a6"/>
          <path id="Path_11471" data-name="Path 11471" d="M310.345,199.882S355,215.357,367.816,226.647s40.471,47.318,39.457,68.631-8.2,46.422-25.917,60.891c0,0-6.3-1.01-10.744-19.912s-75.743-91.719-86.4-92.227S289.032,198.867,310.345,199.882Z" transform="translate(284.104 -74.852)" fill="#ffc7a6"/>
          <path id="Path_11472" data-name="Path 11472" d="M378.324,351.7c1.47-5.03,2.831-10.114,2.92-15.345a58.43,58.43,0,0,0-1.3-15.462,69.994,69.994,0,0,0-4.93-14.693,76.609,76.609,0,0,0-7.838-13.279l-.032-.042-.021-.028a195.829,195.829,0,0,0-16.009-19.82c-5.828-6.188-11.743-12.323-18.139-17.959-6.324-5.71-12.944-11.087-19.666-16.337-6.739-5.222-13.692-10.212-20.852-14.816l.14.061-9.227-3.028-.2-.066-.051-.184-3.359-12.2,4.077,11.976-.25-.248,9.369,2.552.066.017.074.044c7.414,4.369,14.505,9.191,21.464,14.225s13.584,10.513,20.053,16.167a226.2,226.2,0,0,1,18.431,18.039,198.326,198.326,0,0,1,16.019,20.254l-.051-.068a68.214,68.214,0,0,1,7.876,13.908,71.978,71.978,0,0,1,4.591,15.223,62.525,62.525,0,0,1,.936,7.9c.085,1.322-.015,2.652-.013,3.975l-.034,1.984-.222,1.974A53.988,53.988,0,0,1,378.324,351.7Z" transform="translate(283.214 -67.125)" fill="#c9614a" opacity="0.49"/>
          <path id="Path_11473" data-name="Path 11473" d="M261.766,219.649l2.683,10.669-.127-.2a420.028,420.028,0,0,1,32.43,26.779,387.584,387.584,0,0,1,29.484,30.058q6.909,7.96,13.154,16.485a148.7,148.7,0,0,1,11.432,17.749,104.474,104.474,0,0,1,8.433,19.365c2,6.749,3.119,13.874,2.3,20.86a55.052,55.052,0,0,0-3.477-20.479,107.576,107.576,0,0,0-8.963-18.774,225.373,225.373,0,0,0-24.852-33.493c-9.174-10.5-18.906-20.526-29.063-30.111-10.079-9.672-20.562-18.937-31.3-27.887l-.106-.089-.021-.114Z" transform="translate(267.114 -57.153)" fill="#c9614a" opacity="0.49"/>
          <path id="Path_11474" data-name="Path 11474" d="M257.065,244.871l4.748,8.369-.119-.131A237.717,237.717,0,0,1,290.9,275.014c9.049,8.156,17.768,16.794,25.166,26.57,7.345,9.74,13.787,20.5,16.974,32.457a51.8,51.8,0,0,1,1.645,18.313,46.341,46.341,0,0,1-5.369,17.408,49.868,49.868,0,0,0,1.836-35.193c-3.59-11.419-9.733-21.944-17.158-31.4a206.956,206.956,0,0,0-24.613-26.47,305.07,305.07,0,0,0-28.069-23.008l-.087-.064-.032-.068Z" transform="translate(262.908 -34.589)" fill="#c9614a" opacity="0.49"/>
          <path id="Path_11475" data-name="Path 11475" d="M286.13,306.315s-2.668,26.673,8,26.673c0,0,14.89.009,8.78-26.667C302.911,306.321,294.131,292.979,286.13,306.315Z" transform="translate(288.645 15.079)" fill="#fff" opacity="0.46"/>
          <path id="Path_11476" data-name="Path 11476" d="M307.041,304.019s-10.595,24.622-.422,27.843c0,0,14.191,4.5,16.419-22.773C323.037,309.089,318.695,293.722,307.041,304.019Z" transform="translate(303.291 15.149)" fill="#fff" opacity="0.46"/>
          <path id="Path_11477" data-name="Path 11477" d="M323.933,282.9s-10.593,24.622-.422,27.843c0,0,14.191,4.5,16.419-22.773C339.93,287.974,335.587,272.6,323.933,282.9Z" transform="translate(318.404 -3.742)" fill="#fff" opacity="0.46"/>
          <path id="Path_11478" data-name="Path 11478" d="M338.031,255.162a13.881,13.881,0,0,1,2.673-4.532,15.755,15.755,0,0,1,4.075-3.456,11.648,11.648,0,0,1,5.263-1.614,7.711,7.711,0,0,1,5.112,1.7,15.6,15.6,0,0,0-4.829.366,18.259,18.259,0,0,0-4.206,1.857C343.381,251.03,340.9,253.131,338.031,255.162Z" transform="translate(335.342 -33.974)" fill="#c9614a" opacity="0.44"/>
          <path id="Path_11479" data-name="Path 11479" d="M319.73,225.6a13.879,13.879,0,0,1,2.673-4.532,15.754,15.754,0,0,1,4.075-3.456A11.63,11.63,0,0,1,331.742,216a7.7,7.7,0,0,1,5.112,1.7,15.6,15.6,0,0,0-4.829.366,18.256,18.256,0,0,0-4.206,1.857C325.082,221.466,322.6,223.567,319.73,225.6Z" transform="translate(318.97 -60.421)" fill="#c9614a" opacity="0.44"/>
          <path id="Path_11480" data-name="Path 11480" d="M318.132,269.8a13.879,13.879,0,0,1,3.039-4.293,15.681,15.681,0,0,1,4.35-3.105,11.616,11.616,0,0,1,5.379-1.171,7.7,7.7,0,0,1,4.952,2.114,15.641,15.641,0,0,0-4.843-.036,18.326,18.326,0,0,0-4.346,1.5C323.808,266.13,321.163,268.017,318.132,269.8Z" transform="translate(317.54 -19.964)" fill="#c9614a" opacity="0.44"/>
          <path id="Path_11481" data-name="Path 11481" d="M268.479,209.817a13.881,13.881,0,0,1,1.43-5.062,15.674,15.674,0,0,1,3.06-4.38,11.61,11.61,0,0,1,4.678-2.9,7.7,7.7,0,0,1,5.375.337,15.638,15.638,0,0,0-4.577,1.586,18.3,18.3,0,0,0-3.594,2.867C272.6,204.46,270.739,207.121,268.479,209.817Z" transform="translate(273.12 -77.287)" fill="#c9614a" opacity="0.44"/>
          <path id="Path_11482" data-name="Path 11482" d="M250.179,225.3a13.851,13.851,0,0,1,1.429-5.064,15.74,15.74,0,0,1,3.06-4.38,11.651,11.651,0,0,1,4.678-2.9,7.705,7.705,0,0,1,5.375.339,15.637,15.637,0,0,0-4.577,1.584,18.3,18.3,0,0,0-3.594,2.868C254.3,219.944,252.437,222.608,250.179,225.3Z" transform="translate(256.748 -63.433)" fill="#c9614a" opacity="0.44"/>
          <path id="Path_11483" data-name="Path 11483" d="M238.916,243.6a13.892,13.892,0,0,1,1.43-5.062,15.674,15.674,0,0,1,3.06-4.38,11.63,11.63,0,0,1,4.678-2.9,7.706,7.706,0,0,1,5.375.337,15.638,15.638,0,0,0-4.577,1.586,18.3,18.3,0,0,0-3.594,2.868C243.039,238.245,241.176,240.907,238.916,243.6Z" transform="translate(246.672 -47.061)" fill="#c9614a" opacity="0.44"/>
          <path id="Path_11484" data-name="Path 11484" d="M302.647,293.734a13.878,13.878,0,0,1,3.039-4.293,15.654,15.654,0,0,1,4.35-3.105,11.614,11.614,0,0,1,5.377-1.171,7.7,7.7,0,0,1,4.954,2.114,15.653,15.653,0,0,0-4.845-.036,18.3,18.3,0,0,0-4.346,1.5C308.321,290.062,305.678,291.949,302.647,293.734Z" transform="translate(303.687 1.447)" fill="#c9614a" opacity="0.44"/>
          <path id="Path_11485" data-name="Path 11485" d="M301.239,290.918a13.877,13.877,0,0,1,3.039-4.293,15.734,15.734,0,0,1,4.35-3.105,11.618,11.618,0,0,1,5.379-1.171,7.7,7.7,0,0,1,4.953,2.116,15.586,15.586,0,0,0-4.843-.038,18.326,18.326,0,0,0-4.346,1.5C306.913,287.246,304.27,289.133,301.239,290.918Z" transform="translate(302.427 -1.073)" fill="#c9614a" opacity="0.44"/>
          <path id="Path_11486" data-name="Path 11486" d="M283.627,266.727a13.9,13.9,0,0,1,1.838-4.93,15.774,15.774,0,0,1,3.408-4.117,11.644,11.644,0,0,1,4.9-2.51,7.7,7.7,0,0,1,5.33.777,15.608,15.608,0,0,0-4.691,1.2,18.278,18.278,0,0,0-3.816,2.565C288.172,261.721,286.1,264.224,283.627,266.727Z" transform="translate(286.671 -25.524)" fill="#c9614a" opacity="0.44"/>
          <path id="Path_11487" data-name="Path 11487" d="M282.962,296.666a13.887,13.887,0,0,1,2.992-4.329,15.7,15.7,0,0,1,4.314-3.153,11.606,11.606,0,0,1,5.364-1.232,7.692,7.692,0,0,1,4.977,2.059,15.608,15.608,0,0,0-4.843.017,18.283,18.283,0,0,0-4.329,1.55C288.6,292.929,285.973,294.845,282.962,296.666Z" transform="translate(286.076 3.945)" fill="#c9614a" opacity="0.44"/>
          <path id="Path_11488" data-name="Path 11488" d="M281.554,292.441a13.911,13.911,0,0,1,2.992-4.327,15.735,15.735,0,0,1,4.314-3.155,11.631,11.631,0,0,1,5.366-1.232,7.71,7.71,0,0,1,4.977,2.06,15.676,15.676,0,0,0-4.845.017,18.289,18.289,0,0,0-4.329,1.552C287.189,288.705,284.566,290.623,281.554,292.441Z" transform="translate(284.817 0.166)" fill="#c9614a" opacity="0.44"/>
          <path id="Path_11489" data-name="Path 11489" d="M280.812,263.911a13.872,13.872,0,0,1,1.838-4.93,15.66,15.66,0,0,1,3.408-4.115,11.615,11.615,0,0,1,4.9-2.51,7.7,7.7,0,0,1,5.332.775,15.62,15.62,0,0,0-4.693,1.2,18.275,18.275,0,0,0-3.816,2.565C285.357,258.907,283.285,261.408,280.812,263.911Z" transform="translate(284.153 -28.043)" fill="#c9614a" opacity="0.44"/>
          <path id="Path_11490" data-name="Path 11490" d="M316.724,265.58a13.882,13.882,0,0,1,3.041-4.3,15.706,15.706,0,0,1,4.348-3.1,11.624,11.624,0,0,1,5.379-1.173,7.724,7.724,0,0,1,4.954,2.116,15.715,15.715,0,0,0-4.845-.038,18.247,18.247,0,0,0-4.346,1.5C322.4,261.906,319.755,263.793,316.724,265.58Z" transform="translate(316.281 -23.742)" fill="#c9614a" opacity="0.44"/>
          <path id="Path_11491" data-name="Path 11491" d="M297.755,247.162a13.9,13.9,0,0,1,1.76-4.956,15.693,15.693,0,0,1,3.344-4.168,11.633,11.633,0,0,1,4.86-2.588,7.708,7.708,0,0,1,5.341.693,15.588,15.588,0,0,0-4.672,1.279,18.275,18.275,0,0,0-3.776,2.624C302.221,242.088,300.188,244.621,297.755,247.162Z" transform="translate(299.311 -43.19)" fill="#c9614a" opacity="0.44"/>
          <path id="Path_11492" data-name="Path 11492" d="M294.939,244.347a13.862,13.862,0,0,1,1.762-4.958,15.679,15.679,0,0,1,3.344-4.168,11.612,11.612,0,0,1,4.858-2.586,7.7,7.7,0,0,1,5.343.692,15.645,15.645,0,0,0-4.672,1.279,18.224,18.224,0,0,0-3.776,2.624C299.406,239.273,297.374,241.807,294.939,244.347Z" transform="translate(296.791 -45.709)" fill="#c9614a" opacity="0.44"/>
          <path id="Path_11493" data-name="Path 11493" d="M316.915,222.782a13.9,13.9,0,0,1,2.671-4.53,15.7,15.7,0,0,1,4.077-3.456,11.618,11.618,0,0,1,5.263-1.614,7.694,7.694,0,0,1,5.112,1.7,15.669,15.669,0,0,0-4.831.364A18.343,18.343,0,0,0,325,217.1C322.265,218.652,319.787,220.751,316.915,222.782Z" transform="translate(316.452 -62.941)" fill="#c9614a" opacity="0.44"/>
          <path id="Path_11494" data-name="Path 11494" d="M338.031,250.937a13.892,13.892,0,0,1,2.673-4.53,15.72,15.72,0,0,1,4.075-3.456,11.649,11.649,0,0,1,5.263-1.614,7.7,7.7,0,0,1,5.112,1.7,15.6,15.6,0,0,0-4.829.366,18.259,18.259,0,0,0-4.206,1.857C343.381,246.807,340.9,248.908,338.031,250.937Z" transform="translate(335.342 -37.753)" fill="#c9614a" opacity="0.44"/>
          <path id="Path_11495" data-name="Path 11495" d="M336.706,292.354s14.064-10.979,14.064-21.648c0,0-2.666-8-8,0S330.645,290,336.706,292.354Z" transform="translate(332.025 -14.657)" fill="#fff" opacity="0.46"/>
          <g id="Group_7484" data-name="Group 7484" transform="translate(342.394 200.728)">
            <path id="Path_11496" data-name="Path 11496" d="M319.681,359.77S276.73,391.4,253.1,348.526c0,0-20.9-50.859,3.359-79.989,0,0,16.093-10.53,31.934,8.278S303.747,351.629,319.681,359.77Z" transform="translate(-90.522 -216.774)" fill="#8d4328"/>
            <path id="Path_11497" data-name="Path 11497" d="M286.116,383.193s-39.162,25.594-57.578-3.9-7.146-98.75-1.652-117.374c0,0,8.209-23.935,29.5-18.416s23.865,16.21,23.635,42.881S286.116,383.193,286.116,383.193Z" transform="translate(-114.065 -237.284)" fill="#8d4328"/>
            <path id="Path_11498" data-name="Path 11498" d="M251.05,376.938s-39,15.193-54.728-16.949-1.883-90.7,3.568-103.994,34.4-29.291,55.734,1.692C255.623,257.687,242.022,364,251.05,376.938Z" transform="translate(-140.339 -239.828)" fill="#8d4328"/>
            <path id="Path_11499" data-name="Path 11499" d="M212.972,326.725s-36.21,8.85-46.6-23.247,8.393-45.27,19.107-50.513,29.268,8.255,29.177,18.924S212.972,326.725,212.972,326.725Z" transform="translate(-163.337 -229.12)" fill="#8d4328"/>
            <path id="Path_11500" data-name="Path 11500" d="M174.882,256.773s-11.847,24.191,2.463,28.857c0,0,19.967,6.523,20.043-21.512C197.389,264.118,189.751,247.595,174.882,256.773Z" transform="translate(-157.128 -227.152)" fill="#fff" opacity="0.46"/>
            <path id="Path_11501" data-name="Path 11501" d="M204.543,245.767S192.694,269.957,207,274.624c0,0,19.967,6.523,20.043-21.512C227.047,253.112,219.41,236.589,204.543,245.767Z" transform="translate(-130.594 -236.999)" fill="#fff" opacity="0.46"/>
            <path id="Path_11502" data-name="Path 11502" d="M234.08,248.838s-11.847,24.191,2.461,28.857c0,0,19.967,6.523,20.043-21.512C256.584,256.183,248.947,239.66,234.08,248.838Z" transform="translate(-104.169 -234.251)" fill="#fff" opacity="0.46"/>
            <path id="Path_11503" data-name="Path 11503" d="M252.692,274.021s-2.651,24.617,11.178,24.162c0,0,19.3-.627,10.572-24.875C274.442,273.309,262.662,261.427,252.692,274.021Z" transform="translate(-83.58 -214.417)" fill="#fff" opacity="0.46"/>
            <path id="Path_11504" data-name="Path 11504" d="M192.431,267.471c.239,7.819-.14,15.543-.513,23.262l-.627,11.559a109.242,109.242,0,0,0-.159,11.584,41.836,41.836,0,0,1-1.921-11.58c-.2-3.907-.127-7.81.044-11.7A130.535,130.535,0,0,1,192.431,267.471Z" transform="translate(-140.298 -215.098)" fill="#181532" opacity="0.34"/>
            <path id="Path_11505" data-name="Path 11505" d="M229.522,248.617c-.837,5-1.682,9.985-2.4,14.99-.788,4.994-1.518,9.994-2.158,15-1.328,10.009-2.512,20.036-3.139,30.1-.47,5.021-.64,10.053-.87,15.085-.034,5.03-.11,10.066.131,15.087.081,2.514.125,5.034.445,7.525.3,2.491.4,5.024.866,7.489.447,2.469.82,4.966,1.328,7.434q1.083,3.607,2.09,7.285c-4.361-9.231-5.9-19.513-6.777-29.611a204.208,204.208,0,0,1,.131-30.49c.854-10.123,2.006-20.218,3.778-30.21A298.06,298.06,0,0,1,229.522,248.617Z" transform="translate(-113.965 -231.966)" fill="#181532" opacity="0.34"/>
            <path id="Path_11506" data-name="Path 11506" d="M252.617,267.149c-.2,3.954-.441,7.893-.548,11.841-.188,3.941-.332,7.882-.388,11.821-.138,7.878-.2,15.748.138,23.6a202.7,202.7,0,0,0,1.989,23.438l.4,2.916.585,2.876c.438,1.9.678,3.876,1.3,5.731.54,1.879.974,3.808,1.6,5.667.729,1.819,1.43,3.66,2.118,5.529-4.164-6.794-6.4-14.594-8.024-22.364a140.68,140.68,0,0,1-2.632-23.7,208.9,208.9,0,0,1,.487-23.791A202.153,202.153,0,0,1,252.617,267.149Z" transform="translate(-86.684 -215.386)" fill="#181532" opacity="0.34"/>
            <path id="Path_11507" data-name="Path 11507" d="M169.137,281.927c3.257,1.682,6.1,3.59,9.083,5.151,2.988,1.6,5.854,2.931,9.517,3.012a8.04,8.04,0,0,1-5.458,1.1,14.8,14.8,0,0,1-5.32-1.758,21.009,21.009,0,0,1-4.433-3.225A16.954,16.954,0,0,1,169.137,281.927Z" transform="translate(-158.148 -202.166)" fill="#181532" opacity="0.34"/>
            <path id="Path_11508" data-name="Path 11508" d="M197.388,270.909c4.193.256,8.124,1.023,12.071,1.626,1.963.351,3.924.638,5.885.885a40.114,40.114,0,0,0,6.025.364,13,13,0,0,1-6.07,1.717,26.631,26.631,0,0,1-6.269-.333,35.158,35.158,0,0,1-6.019-1.559A25.636,25.636,0,0,1,197.388,270.909Z" transform="translate(-132.874 -212.023)" fill="#181532" opacity="0.34"/>
            <path id="Path_11509" data-name="Path 11509" d="M226.938,272.572c4.191.258,8.122,1.025,12.071,1.628,1.963.349,3.924.638,5.885.883a40.1,40.1,0,0,0,6.025.366,13.027,13.027,0,0,1-6.072,1.717,26.617,26.617,0,0,1-6.267-.335,35.333,35.333,0,0,1-6.019-1.557A25.561,25.561,0,0,1,226.938,272.572Z" transform="translate(-106.438 -210.535)" fill="#181532" opacity="0.34"/>
            <path id="Path_11510" data-name="Path 11510" d="M254.875,290.715c4.189-.3,8.187-.064,12.179.01,1.993.085,3.975.112,5.951.095a40.421,40.421,0,0,0,6.021-.44,13.027,13.027,0,0,1-5.79,2.508,26.73,26.73,0,0,1-6.258.5,35.267,35.267,0,0,1-6.173-.745A25.685,25.685,0,0,1,254.875,290.715Z" transform="translate(-81.445 -194.603)" fill="#181532" opacity="0.34"/>
            <path id="Path_11511" data-name="Path 11511" d="M254.851,293.529c4.187-.3,8.187-.064,12.179.01,1.991.085,3.975.112,5.951.095A40.1,40.1,0,0,0,279,293.2a13.027,13.027,0,0,1-5.79,2.507,26.609,26.609,0,0,1-6.258.5,35.109,35.109,0,0,1-6.173-.745A25.611,25.611,0,0,1,254.851,293.529Z" transform="translate(-81.466 -192.084)" fill="#181532" opacity="0.34"/>
            <path id="Path_11512" data-name="Path 11512" d="M226.9,276.8c4.193.256,8.124,1.023,12.071,1.626,1.963.349,3.926.638,5.885.885a40.348,40.348,0,0,0,6.025.364,13.026,13.026,0,0,1-6.07,1.717,26.628,26.628,0,0,1-6.269-.335,35.327,35.327,0,0,1-6.019-1.557A25.724,25.724,0,0,1,226.9,276.8Z" transform="translate(-106.471 -206.756)" fill="#181532" opacity="0.34"/>
            <path id="Path_11513" data-name="Path 11513" d="M229.4,313.42c4.193.256,8.124,1.023,12.071,1.626,1.963.351,3.924.64,5.885.885a40.354,40.354,0,0,0,6.025.366,13.049,13.049,0,0,1-6.07,1.717,26.725,26.725,0,0,1-6.269-.335,35.156,35.156,0,0,1-6.019-1.559A25.555,25.555,0,0,1,229.4,313.42Z" transform="translate(-104.235 -173.991)" fill="#181532" opacity="0.34"/>
            <path id="Path_11514" data-name="Path 11514" d="M263.1,318.724c4.159-.582,8.164-.612,12.152-.805,1.993-.047,3.973-.153,5.943-.3a40.355,40.355,0,0,0,5.978-.841,13.026,13.026,0,0,1-5.608,2.889,26.646,26.646,0,0,1-6.211.917,35.194,35.194,0,0,1-6.209-.332A25.579,25.579,0,0,1,263.1,318.724Z" transform="translate(-74.089 -170.989)" fill="#181532" opacity="0.34"/>
            <path id="Path_11515" data-name="Path 11515" d="M195.944,275.12c4.191.256,8.122,1.023,12.071,1.626q2.944.523,5.885.885a40.114,40.114,0,0,0,6.025.364,13.005,13.005,0,0,1-6.07,1.717,26.634,26.634,0,0,1-6.269-.333,35.163,35.163,0,0,1-6.019-1.559A25.639,25.639,0,0,1,195.944,275.12Z" transform="translate(-134.166 -208.255)" fill="#181532" opacity="0.34"/>
            <path id="Path_11516" data-name="Path 11516" d="M198.689,305.234c4.113.843,7.9,2.156,11.722,3.306,1.893.621,3.795,1.184,5.7,1.7a39.956,39.956,0,0,0,5.915,1.207,13.011,13.011,0,0,1-6.252.847,26.7,26.7,0,0,1-6.159-1.213,35.2,35.2,0,0,1-5.741-2.389A25.518,25.518,0,0,1,198.689,305.234Z" transform="translate(-131.71 -181.315)" fill="#181532" opacity="0.34"/>
          </g>
          <path id="Path_11517" data-name="Path 11517" d="M244.116,158.2s-59.207,35.1-55.478,54.16,77.092,9.46,95.246-1.506S254.974,156.452,244.116,158.2Z" transform="translate(201.541 -112.171)" fill="#8d4328"/>
          <path id="Path_11518" data-name="Path 11518" d="M217.7,157.965a14.254,14.254,0,0,1,4.1,4.983,14.107,14.107,0,0,1,1.734,6.216,14.109,14.109,0,0,1-4.1-4.985A14.266,14.266,0,0,1,217.7,157.965Z" transform="translate(227.694 -112.337)" fill="#181532" opacity="0.41"/>
          <path id="Path_11519" data-name="Path 11519" d="M220,158.652a11.875,11.875,0,0,1,4.263,4.028,11.737,11.737,0,0,1,2.039,5.5,11.731,11.731,0,0,1-4.263-4.026A11.87,11.87,0,0,1,220,158.652Z" transform="translate(229.75 -111.722)" fill="#181532" opacity="0.41"/>
          <path id="Path_11520" data-name="Path 11520" d="M241.527,196.031a60.01,60.01,0,0,1-4.331-8.4c-.6-1.427-1.2-2.853-1.726-4.325a32.332,32.332,0,0,1-1.385-4.6,21.579,21.579,0,0,1,5.559,7.872,25.829,25.829,0,0,1,1.48,4.589A15.8,15.8,0,0,1,241.527,196.031Z" transform="translate(242.35 -93.784)" fill="#181532" opacity="0.41"/>
          <path id="Path_11521" data-name="Path 11521" d="M188.788,196.831s12.129,1.18,30.8-14.824c0,0-1.339-11.565-6-12.45s-23.588,18.094-24.795,27.273" transform="translate(201.826 -101.992)" fill="#fff" opacity="0.46"/>
        </g>
      </g>
    </g>
    <g id="Group_7521" data-name="Group 7521" transform="translate(184.313 51.165)">
      <g id="Group_7498" data-name="Group 7498" transform="translate(381.416 80.119)">
        <g id="Group_7490" data-name="Group 7490" transform="translate(0 54.897)">
          <path id="Path_11551" data-name="Path 11551" d="M0,0H64.71V45.444H0Z" transform="matrix(0.927, 0.376, -0.376, 0.927, 20.08, 0.084)" fill="#c9614a"/>
          <path id="Path_11552" data-name="Path 11552" d="M0,0H64.71V45.444H0Z" transform="matrix(0.927, 0.376, -0.376, 0.927, 17.54, 6.344)" fill="#c88050"/>
          <g id="Group_7488" data-name="Group 7488" transform="translate(17.165 6.005)" opacity="0.39">
            <path id="Path_11522" data-name="Path 11522" d="M380.338,185.971l-43-66.646,62.782,18.154-.029.206-62.22-17.992,42.741,66.237Z" transform="translate(-337.333 -119.325)" fill="#2e0300"/>
          </g>
          <g id="Group_7489" data-name="Group 7489" transform="translate(0.262)" opacity="0.39">
            <path id="Path_11523" data-name="Path 11523" d="M328.575,164.562l-.164-.216,76.919-17.568-57.162-30.454.123-.168,57.68,30.73-.238.054Z" transform="translate(-328.411 -116.156)" fill="#2e0300"/>
          </g>
        </g>
        <g id="Group_7497" data-name="Group 7497" transform="translate(24.349)">
          <path id="Path_11524" data-name="Path 11524" d="M363.072,126.63a19.123,19.123,0,0,1,7.111-2.67c10.221-1.6,20.812,5.39,23.1,15.409,6.065-4.435,14.765-3.88,21.532-.294a39.041,39.041,0,0,0-72.99-27.654c-.129.316-.254.631-.375.947C351.052,111.5,361.562,116.669,363.072,126.63Z" transform="translate(-340.833 -87.18)" fill="#c9614a"/>
          <g id="Group_7491" data-name="Group 7491" transform="translate(0 25.034)">
            <path id="Path_11553" data-name="Path 11553" d="M.321.007H.979V46.665H.321Z" transform="matrix(0.924, -0.383, 0.383, 0.924, 0, 0.369)" fill="#8d4328"/>
          </g>
          <g id="Group_7492" data-name="Group 7492" transform="translate(30.645 51.44)">
            <path id="Path_11554" data-name="Path 11554" d="M.008.371H48.1v.658H.008Z" transform="translate(0 21.257) rotate(-26.67)" fill="#8d4328"/>
          </g>
          <g id="Group_7493" data-name="Group 7493" transform="translate(21.76 39.529)">
            <path id="Path_11525" data-name="Path 11525" d="M355.252,139.366,352.61,108.1l.655-.055,2.549,30.172,27.292-17.749.358.551Z" transform="translate(-352.61 -108.044)" fill="#8d4328"/>
          </g>
          <g id="Group_7494" data-name="Group 7494" transform="translate(23.952 38.522)">
            <path id="Path_11555" data-name="Path 11555" d="M.007.264H35.074V.922H.007Z" transform="translate(0 31.572) rotate(-64.608)" fill="#8d4328"/>
          </g>
          <g id="Group_7495" data-name="Group 7495" transform="translate(10.737 26.605)">
            <path id="Path_11556" data-name="Path 11556" d="M.208,0H.866V43.528H.208Z" transform="matrix(0.967, -0.253, 0.253, 0.967, 0, 0.215)" fill="#8d4328"/>
          </g>
          <g id="Group_7496" data-name="Group 7496" transform="translate(28.806 49.472)">
            <path id="Path_11557" data-name="Path 11557" d="M.009.361h42.5v.658H.009Z" transform="matrix(0.858, -0.514, 0.514, 0.858, 0, 21.537)" fill="#8d4328"/>
          </g>
        </g>
        <path id="Path_11526" data-name="Path 11526" d="M352.9,124.755S363.816,96.027,383.776,89.3c0,0,9.564,20.638-.652,48.434C383.124,137.731,374.812,114.484,352.9,124.755Z" transform="translate(-306.243 -85.287)" fill="#fff" opacity="0.74"/>
      </g>
      <g id="Group_7509" data-name="Group 7509" transform="translate(155.276)">
        <g id="Group_7501" data-name="Group 7501" transform="translate(8.609 62.724)">
          <path id="Path_11558" data-name="Path 11558" d="M.058.08h60.7V42.711H.058Z" transform="translate(0 4.305) rotate(-3.97)" fill="#c9614a"/>
          <path id="Path_11559" data-name="Path 11559" d="M.058.08h60.7V42.711H.058Z" transform="translate(0.439 10.627) rotate(-3.97)" fill="#c88050"/>
          <g id="Group_7499" data-name="Group 7499" transform="translate(0.046)" opacity="0.39">
            <path id="Path_11527" data-name="Path 11527" d="M277.188,127.014,213.483,88.571,273.872,78l.061.186L214.083,88.662,277.4,126.87Z" transform="translate(-213.483 -77.999)" fill="#2e0300"/>
          </g>
          <g id="Group_7500" data-name="Group 7500" transform="translate(0.046 4.285)" opacity="0.39">
            <path id="Path_11528" data-name="Path 11528" d="M216.848,129.179l-.227-.115,57.583-46.5-60.722-2.109.034-.192,61.272,2.129-.178.144Z" transform="translate(-213.482 -80.261)" fill="#2e0300"/>
          </g>
        </g>
        <g id="Group_7508" data-name="Group 7508" transform="translate(0)">
          <path id="Path_11529" data-name="Path 11529" d="M233.355,87.985a17.934,17.934,0,0,1,4.894-5.18c7.954-5.561,19.759-4.032,25.818,3.465,3.282-6.237,10.843-9.354,18.025-9.119a36.624,36.624,0,0,0-72.907,6.773c.021.318.045.635.074.951C216.989,80.186,227.978,80.213,233.355,87.985Z" transform="translate(-208.744 -44.893)" fill="#fdcb6a"/>
          <g id="Group_7502" data-name="Group 7502" transform="translate(0 39.735)">
            <path id="Path_11544" data-name="Path 11544" d="M.419.01h.617V43.779H.419Z" transform="translate(0 0.771) rotate(-48.581)" fill="#8d4328"/>
          </g>
          <g id="Group_7503" data-name="Group 7503" transform="translate(45.335 31.955)">
            <path id="Path_11545" data-name="Path 11545" d="M.01.422H45.121v.617H.01Z" transform="translate(0 35.65) rotate(-52.725)" fill="#8d4328"/>
          </g>
          <g id="Group_7504" data-name="Group 7504" transform="translate(24.263 41.259)">
            <path id="Path_11530" data-name="Path 11530" d="M236.831,94.075,221.72,68.814l.53-.317,14.581,24.376,15.686-26.2.529.317Z" transform="translate(-221.72 -66.669)" fill="#8d4328"/>
          </g>
          <g id="Group_7505" data-name="Group 7505" transform="translate(38.54 35.302)">
            <path id="Path_11560" data-name="Path 11560" d="M.007,0H.624V32.9H.007Z" transform="matrix(1, -0.012, 0.012, 1, 0, 0.007)" fill="#8d4328"/>
          </g>
          <g id="Group_7506" data-name="Group 7506" transform="translate(9.562 36.663)">
            <path id="Path_11546" data-name="Path 11546" d="M.391.01h.617v40.83H.391Z" transform="translate(0 0.65) rotate(-40.717)" fill="#8d4328"/>
          </g>
          <g id="Group_7507" data-name="Group 7507" transform="translate(43.14 33.727)">
            <path id="Path_11547" data-name="Path 11547" d="M.009.354h39.87V.971H.009Z" transform="matrix(0.545, -0.839, 0.839, 0.545, 0, 33.25)" fill="#8d4328"/>
          </g>
        </g>
        <path id="Path_11531" data-name="Path 11531" d="M222.032,87.748s-2.639-28.709,11.408-42.6c0,0,16.565,13.45,19.41,41.083C252.85,86.227,236.266,70.062,222.032,87.748Z" transform="translate(-197.355 -44.668)" fill="#fff" opacity="0.74"/>
      </g>
      <g id="Group_7520" data-name="Group 7520" transform="translate(0 462.34)">
        <g id="Group_7512" data-name="Group 7512" transform="translate(13.148 72.105)">
          <path id="Path_11561" data-name="Path 11561" d="M.155.216H73.291V51.578H.155Z" transform="matrix(0.988, -0.156, 0.156, 0.988, 0, 11.38)" fill="#c9614a"/>
          <path id="Path_11562" data-name="Path 11562" d="M.155.216H73.291V51.578H.155Z" transform="matrix(0.988, -0.156, 0.156, 0.988, 1.187, 18.922)" fill="#c88050"/>
          <g id="Group_7510" data-name="Group 7510" transform="translate(0.813)" opacity="0.39">
            <path id="Path_11532" data-name="Path 11532" d="M214.809,385.463l-80.482-39.484,71.379-19,.092.217-70.74,18.831,79.987,39.242Z" transform="translate(-134.327 -326.978)" fill="#2e0300"/>
          </g>
          <g id="Group_7511" data-name="Group 7511" transform="translate(0.176 7.602)" opacity="0.39">
            <path id="Path_11533" data-name="Path 11533" d="M143.123,393.207l-.285-.114,64.255-61.833-73.1,3.815.021-.235,73.765-3.849-.2.192Z" transform="translate(-133.991 -330.991)" fill="#2e0300"/>
          </g>
        </g>
        <g id="Group_7519" data-name="Group 7519">
          <path id="Path_11534" data-name="Path 11534" d="M156.912,342.106a21.609,21.609,0,0,1,5.333-6.728c8.965-7.506,23.294-6.906,31.35,1.461,3.289-7.83,12.038-12.361,20.684-12.83a44.126,44.126,0,0,0-86.8,15.75c.059.379.123.758.189,1.135C136.455,334.457,149.648,333.339,156.912,342.106Z" transform="translate(-126.958 -288.92)" fill="#e4587f"/>
          <g id="Group_7513" data-name="Group 7513" transform="translate(0.157 51.656)">
            <path id="Path_11548" data-name="Path 11548" d="M.486.011h.743V52.745H.486Z" transform="matrix(0.594, -0.804, 0.804, 0.594, 0, 0.982)" fill="#8d4328"/>
          </g>
          <g id="Group_7514" data-name="Group 7514" transform="translate(57.422 34.758)">
            <path id="Path_11563" data-name="Path 11563" d="M.011.477H54.362V1.22H.011Z" transform="translate(0 45.701) rotate(-57.712)" fill="#8d4328"/>
          </g>
          <g id="Group_7515" data-name="Group 7515" transform="translate(29.57 47.803)">
            <path id="Path_11535" data-name="Path 11535" d="M163.343,348.685l-20.777-28.741.6-.435,20.049,27.734,16.088-33.092.669.325Z" transform="translate(-142.566 -314.151)" fill="#8d4328"/>
          </g>
          <g id="Group_7516" data-name="Group 7516" transform="translate(45.799 42.314)">
            <path id="Path_11564" data-name="Path 11564" d="M.076,0H.819V39.635H.076Z" transform="matrix(0.995, -0.098, 0.098, 0.995, 0, 0.079)" fill="#8d4328"/>
          </g>
          <g id="Group_7517" data-name="Group 7517" transform="translate(11.284 46.961)">
            <path id="Path_11550" data-name="Path 11550" d="M.475.012h.743V49.2H.475Z" transform="translate(0 0.864) rotate(-45.694)" fill="#8d4328"/>
          </g>
          <g id="Group_7518" data-name="Group 7518" transform="translate(54.725 37.708)">
            <path id="Path_11565" data-name="Path 11565" d="M.009.387H48.045v.743H.009Z" transform="translate(0 42.225) rotate(-61.965)" fill="#8d4328"/>
          </g>
        </g>
        <path id="Path_11536" data-name="Path 11536" d="M143.386,341.691s-6.167-34.183,9.24-52.33c0,0,21.286,14.414,27.591,47.284C180.217,336.645,158.622,318.974,143.386,341.691Z" transform="translate(-113.353 -288.526)" fill="#fff" opacity="0.74"/>
      </g>
    </g>
  </g>
</svg>
