<svg xmlns="http://www.w3.org/2000/svg" width="28" height="28" viewBox="0 0 28 28">
  <path id="icons8-whatsapp" d="M16.018,2A13.985,13.985,0,0,0,3.9,22.967L2,30l7.326-1.731a13.976,13.976,0,0,0,6.684,1.7h.005a13.985,13.985,0,1,0,0-27.97Zm0,2.8a11.185,11.185,0,1,1-5.346,21.011L9.725,25.3l-1.042.246-2.757.651.673-2.5.3-1.121-.58-1.006A11.184,11.184,0,0,1,16.015,4.8ZM11.068,9.525a1.284,1.284,0,0,0-.933.438A3.907,3.907,0,0,0,8.91,12.875a6.8,6.8,0,0,0,1.427,3.615c.174.232,2.418,3.872,5.97,5.272,2.951,1.163,3.551.934,4.192.875a3.525,3.525,0,0,0,2.36-1.66,2.935,2.935,0,0,0,.205-1.663c-.087-.146-.32-.232-.67-.407s-2.067-1.019-2.387-1.135-.555-.175-.788.175-.9,1.135-1.1,1.367-.407.265-.757.09a9.621,9.621,0,0,1-2.811-1.736A10.526,10.526,0,0,1,12.6,15.251c-.2-.349-.019-.54.156-.714.157-.157.347-.408.522-.612a2.431,2.431,0,0,0,.35-.582.647.647,0,0,0-.03-.613c-.087-.175-.767-1.9-1.078-2.592-.262-.581-.538-.594-.788-.6C11.532,9.525,11.3,9.525,11.068,9.525Z" transform="translate(-2 -2)" fill="#fff"/>
</svg>
